<?xml version="1.0" encoding="utf-8"?><svg id="img-viewer-swipe_right" image-rendering="auto" baseProfile="basic" version="1.1" x="0px" y="0px" width="200" height="200" xmlns="http://www.w3.org/2000/svg" xmlns:xlink="http://www.w3.org/1999/xlink"><g id="right" overflow="visible" transform="translate(-113 0)"><g mask="url(#mask_)"><g id="Layer80_0_FILL"><path fill="#F2F4F6" stroke="none" d="M166.6 22.9Q166.6 21 165.25 19.6 163.85 18.25 161.95 18.25L57.95 18.25Q56 18.25 54.65 19.6 53.3 21 53.3 22.9L53.3 175.65Q53.3 177.6 54.65 178.95 56 180.3 57.95 180.3L161.95 180.3Q163.85 180.3 165.25 178.95 166.6 177.6 166.6 175.65L166.6 22.9M425.45 22.9Q425.45 21 424.1 19.6 422.7 18.25 420.8 18.25L316.75 18.25Q314.85 18.25 313.45 19.6 312.1 21 312.1 22.9L312.1 175.65Q312.1 177.6 313.45 178.95 314.85 180.3 316.75 180.3L420.8 180.3Q422.7 180.3 424.1 178.95 425.45 177.6 425.45 175.65L425.45 22.9M555.2 22.9Q555.2 21 553.85 19.6 552.5 18.25 550.55 18.25L446.55 18.25Q444.65 18.25 443.3 19.6 441.95 21 441.95 22.9L441.95 175.65Q441.95 177.6 443.3 178.95 444.65 180.3 446.55 180.3L550.55 180.3Q552.5 180.3 553.85 178.95 555.2 177.6 555.2 175.65L555.2 22.9Z"/><path fill="#D7E0E5" stroke="none" d="M295.6 22.9Q295.6 21 294.25 19.6 292.85 18.25 290.95 18.25L186.95 18.25Q185 18.25 183.65 19.6 182.3 21 182.3 22.9L182.3 175.65Q182.3 177.6 183.65 178.95 185 180.3 186.95 180.3L290.95 180.3Q292.85 180.3 294.25 178.95 295.6 177.6 295.6 175.65L295.6 22.9Z"/><animate attributeName="display" repeatCount="indefinite" dur="1s" keyTimes="0;.992;1" values="none;inline;inline"/></g><g display="none" id="Layer76_0_FILL"><path fill="#F2F4F6" stroke="none" d="M166.6 22.9Q166.6 21 165.25 19.6 163.85 18.25 161.95 18.25L57.95 18.25Q56 18.25 54.65 19.6 53.3 21 53.3 22.9L53.3 175.65Q53.3 177.6 54.65 178.95 56 180.3 57.95 180.3L161.95 180.3Q163.85 180.3 165.25 178.95 166.6 177.6 166.6 175.65L166.6 22.9M424.1 19.6Q422.7 18.25 420.8 18.25L316.75 18.25Q314.85 18.25 313.45 19.6 312.1 21 312.1 22.9L312.1 175.65Q312.1 177.6 313.45 178.95 314.85 180.3 316.75 180.3L420.8 180.3Q422.7 180.3 424.1 178.95 425.45 177.6 425.45 175.65L425.45 22.9Q425.45 21 424.1 19.6M553.85 19.6Q552.5 18.25 550.55 18.25L446.55 18.25Q444.65 18.25 443.3 19.6 441.95 21 441.95 22.9L441.95 175.65Q441.95 177.6 443.3 178.95 444.65 180.3 446.55 180.3L550.55 180.3Q552.5 180.3 553.85 178.95 555.2 177.6 555.2 175.65L555.2 22.9Q555.2 21 553.85 19.6Z"/><path fill="#D7E0E5" stroke="none" d="M294.25 19.6Q292.85 18.25 290.95 18.25L186.95 18.25Q185 18.25 183.65 19.6 182.3 21 182.3 22.9L182.3 175.65Q182.3 177.6 183.65 178.95 185 180.3 186.95 180.3L290.95 180.3Q292.85 180.3 294.25 178.95 295.6 177.6 295.6 175.65L295.6 22.9Q295.6 21 294.25 19.6Z"/><animate attributeName="display" repeatCount="indefinite" dur="1s" keyTimes="0;.958;.992;1" values="none;inline;none;none"/></g><g display="none" id="Layer74_0_FILL"><path fill="#F2F4F6" stroke="none" d="M166.5 22.9Q166.5 21 165.15 19.6 163.75 18.25 161.85 18.25L57.85 18.25Q55.9 18.25 54.55 19.6 53.2 21 53.2 22.9L53.2 175.65Q53.2 177.6 54.55 178.95 55.9 180.3 57.85 180.3L161.85 180.3Q163.75 180.3 165.15 178.95 166.5 177.6 166.5 175.65L166.5 22.9M424 19.6Q422.6 18.25 420.7 18.25L316.65 18.25Q314.75 18.25 313.35 19.6 312 21 312 22.9L312 175.65Q312 177.6 313.35 178.95 314.75 180.3 316.65 180.3L420.7 180.3Q422.6 180.3 424 178.95 425.35 177.6 425.35 175.65L425.35 22.9Q425.35 21 424 19.6M553.75 19.6Q552.4 18.25 550.45 18.25L446.45 18.25Q444.55 18.25 443.2 19.6 441.85 21 441.85 22.9L441.85 175.65Q441.85 177.6 443.2 178.95 444.55 180.3 446.45 180.3L550.45 180.3Q552.4 180.3 553.75 178.95 555.1 177.6 555.1 175.65L555.1 22.9Q555.1 21 553.75 19.6Z"/><path fill="#D7E0E5" stroke="none" d="M294.15 19.6Q292.75 18.25 290.85 18.25L186.85 18.25Q184.9 18.25 183.55 19.6 182.2 21 182.2 22.9L182.2 175.65Q182.2 177.6 183.55 178.95 184.9 180.3 186.85 180.3L290.85 180.3Q292.75 180.3 294.15 178.95 295.5 177.6 295.5 175.65L295.5 22.9Q295.5 21 294.15 19.6Z"/><animate attributeName="display" repeatCount="indefinite" dur="1s" keyTimes="0;.942;.958;1" values="none;inline;none;none"/></g><g display="none" id="Layer72_0_FILL"><path fill="#F2F4F6" stroke="none" d="M166.45 22.9Q166.45 21 165.1 19.6 163.7 18.25 161.8 18.25L57.8 18.25Q55.85 18.25 54.5 19.6 53.15 21 53.15 22.9L53.15 175.65Q53.15 177.6 54.5 178.95 55.85 180.3 57.8 180.3L161.8 180.3Q163.7 180.3 165.1 178.95 166.45 177.6 166.45 175.65L166.45 22.9M423.95 19.6Q422.55 18.25 420.65 18.25L316.6 18.25Q314.7 18.25 313.3 19.6 311.95 21 311.95 22.9L311.95 175.65Q311.95 177.6 313.3 178.95 314.7 180.3 316.6 180.3L420.65 180.3Q422.55 180.3 423.95 178.95 425.3 177.6 425.3 175.65L425.3 22.9Q425.3 21 423.95 19.6M553.7 19.6Q552.35 18.25 550.4 18.25L446.4 18.25Q444.5 18.25 443.15 19.6 441.8 21 441.8 22.9L441.8 175.65Q441.8 177.6 443.15 178.95 444.5 180.3 446.4 180.3L550.4 180.3Q552.35 180.3 553.7 178.95 555.05 177.6 555.05 175.65L555.05 22.9Q555.05 21 553.7 19.6Z"/><path fill="#D7E0E5" stroke="none" d="M294.1 19.6Q292.7 18.25 290.8 18.25L186.8 18.25Q184.85 18.25 183.5 19.6 182.15 21 182.15 22.9L182.15 175.65Q182.15 177.6 183.5 178.95 184.85 180.3 186.8 180.3L290.8 180.3Q292.7 180.3 294.1 178.95 295.45 177.6 295.45 175.65L295.45 22.9Q295.45 21 294.1 19.6Z"/><animate attributeName="display" repeatCount="indefinite" dur="1s" keyTimes="0;.925;.942;1" values="none;inline;none;none"/></g><g display="none" id="Layer71_0_FILL"><path fill="#F2F4F6" stroke="none" d="M166.35 22.9Q166.35 21 165 19.6 163.6 18.25 161.7 18.25L57.7 18.25Q55.75 18.25 54.4 19.6 53.05 21 53.05 22.9L53.05 175.65Q53.05 177.6 54.4 178.95 55.75 180.3 57.7 180.3L161.7 180.3Q163.6 180.3 165 178.95 166.35 177.6 166.35 175.65L166.35 22.9M423.85 19.6Q422.45 18.25 420.55 18.25L316.5 18.25Q314.6 18.25 313.2 19.6 311.85 21 311.85 22.9L311.85 175.65Q311.85 177.6 313.2 178.95 314.6 180.3 316.5 180.3L420.55 180.3Q422.45 180.3 423.85 178.95 425.2 177.6 425.2 175.65L425.2 22.9Q425.2 21 423.85 19.6M553.6 19.6Q552.25 18.25 550.3 18.25L446.3 18.25Q444.4 18.25 443.05 19.6 441.7 21 441.7 22.9L441.7 175.65Q441.7 177.6 443.05 178.95 444.4 180.3 446.3 180.3L550.3 180.3Q552.25 180.3 553.6 178.95 554.95 177.6 554.95 175.65L554.95 22.9Q554.95 21 553.6 19.6Z"/><path fill="#D7E0E5" stroke="none" d="M294 19.6Q292.6 18.25 290.7 18.25L186.7 18.25Q184.75 18.25 183.4 19.6 182.05 21 182.05 22.9L182.05 175.65Q182.05 177.6 183.4 178.95 184.75 180.3 186.7 180.3L290.7 180.3Q292.6 180.3 294 178.95 295.35 177.6 295.35 175.65L295.35 22.9Q295.35 21 294 19.6Z"/><animate attributeName="display" repeatCount="indefinite" dur="1s" keyTimes="0;.917;.925;1" values="none;inline;none;none"/></g><g display="none" id="Layer70_0_FILL"><path fill="#F2F4F6" stroke="none" d="M166.25 22.9Q166.25 21 164.9 19.6 163.5 18.25 161.6 18.25L57.6 18.25Q55.65 18.25 54.3 19.6 52.95 21 52.95 22.9L52.95 175.65Q52.95 177.6 54.3 178.95 55.65 180.3 57.6 180.3L161.6 180.3Q163.5 180.3 164.9 178.95 166.25 177.6 166.25 175.65L166.25 22.9M423.75 19.6Q422.35 18.25 420.45 18.25L316.4 18.25Q314.5 18.25 313.1 19.6 311.75 21 311.75 22.9L311.75 175.65Q311.75 177.6 313.1 178.95 314.5 180.3 316.4 180.3L420.45 180.3Q422.35 180.3 423.75 178.95 425.1 177.6 425.1 175.65L425.1 22.9Q425.1 21 423.75 19.6M553.5 19.6Q552.15 18.25 550.2 18.25L446.2 18.25Q444.3 18.25 442.95 19.6 441.6 21 441.6 22.9L441.6 175.65Q441.6 177.6 442.95 178.95 444.3 180.3 446.2 180.3L550.2 180.3Q552.15 180.3 553.5 178.95 554.85 177.6 554.85 175.65L554.85 22.9Q554.85 21 553.5 19.6Z"/><path fill="#D7E0E5" stroke="none" d="M293.9 19.6Q292.5 18.25 290.6 18.25L186.6 18.25Q184.65 18.25 183.3 19.6 181.95 21 181.95 22.9L181.95 175.65Q181.95 177.6 183.3 178.95 184.65 180.3 186.6 180.3L290.6 180.3Q292.5 180.3 293.9 178.95 295.25 177.6 295.25 175.65L295.25 22.9Q295.25 21 293.9 19.6Z"/><animate attributeName="display" repeatCount="indefinite" dur="1s" keyTimes="0;.908;.917;1" values="none;inline;none;none"/></g><g display="none" id="Layer69_0_FILL"><path fill="#F2F4F6" stroke="none" d="M166.2 22.9Q166.2 21 164.85 19.6 163.45 18.25 161.55 18.25L57.55 18.25Q55.6 18.25 54.25 19.6 52.9 21 52.9 22.9L52.9 175.65Q52.9 177.6 54.25 178.95 55.6 180.3 57.55 180.3L161.55 180.3Q163.45 180.3 164.85 178.95 166.2 177.6 166.2 175.65L166.2 22.9M423.7 19.6Q422.3 18.25 420.4 18.25L316.35 18.25Q314.45 18.25 313.05 19.6 311.7 21 311.7 22.9L311.7 175.65Q311.7 177.6 313.05 178.95 314.45 180.3 316.35 180.3L420.4 180.3Q422.3 180.3 423.7 178.95 425.05 177.6 425.05 175.65L425.05 22.9Q425.05 21 423.7 19.6M553.45 19.6Q552.1 18.25 550.15 18.25L446.15 18.25Q444.25 18.25 442.9 19.6 441.55 21 441.55 22.9L441.55 175.65Q441.55 177.6 442.9 178.95 444.25 180.3 446.15 180.3L550.15 180.3Q552.1 180.3 553.45 178.95 554.8 177.6 554.8 175.65L554.8 22.9Q554.8 21 553.45 19.6Z"/><path fill="#D7E0E5" stroke="none" d="M293.85 19.6Q292.45 18.25 290.55 18.25L186.55 18.25Q184.6 18.25 183.25 19.6 181.9 21 181.9 22.9L181.9 175.65Q181.9 177.6 183.25 178.95 184.6 180.3 186.55 180.3L290.55 180.3Q292.45 180.3 293.85 178.95 295.2 177.6 295.2 175.65L295.2 22.9Q295.2 21 293.85 19.6Z"/><animate attributeName="display" repeatCount="indefinite" dur="1s" keyTimes="0;.9;.908;1" values="none;inline;none;none"/></g><g display="none" id="Layer68_0_FILL"><path fill="#F2F4F6" stroke="none" d="M166 22.9Q166 21 164.65 19.6 163.25 18.25 161.35 18.25L57.35 18.25Q55.4 18.25 54.05 19.6 52.7 21 52.7 22.9L52.7 175.65Q52.7 177.6 54.05 178.95 55.4 180.3 57.35 180.3L161.35 180.3Q163.25 180.3 164.65 178.95 166 177.6 166 175.65L166 22.9M423.5 19.6Q422.1 18.25 420.2 18.25L316.15 18.25Q314.25 18.25 312.85 19.6 311.5 21 311.5 22.9L311.5 175.65Q311.5 177.6 312.85 178.95 314.25 180.3 316.15 180.3L420.2 180.3Q422.1 180.3 423.5 178.95 424.85 177.6 424.85 175.65L424.85 22.9Q424.85 21 423.5 19.6M553.25 19.6Q551.9 18.25 549.95 18.25L445.95 18.25Q444.05 18.25 442.7 19.6 441.35 21 441.35 22.9L441.35 175.65Q441.35 177.6 442.7 178.95 444.05 180.3 445.95 180.3L549.95 180.3Q551.9 180.3 553.25 178.95 554.6 177.6 554.6 175.65L554.6 22.9Q554.6 21 553.25 19.6Z"/><path fill="#D7E0E5" stroke="none" d="M293.65 19.6Q292.25 18.25 290.35 18.25L186.35 18.25Q184.4 18.25 183.05 19.6 181.7 21 181.7 22.9L181.7 175.65Q181.7 177.6 183.05 178.95 184.4 180.3 186.35 180.3L290.35 180.3Q292.25 180.3 293.65 178.95 295 177.6 295 175.65L295 22.9Q295 21 293.65 19.6Z"/><animate attributeName="display" repeatCount="indefinite" dur="1s" keyTimes="0;.892;.9;1" values="none;inline;none;none"/></g><g display="none" id="Layer67_0_FILL"><path fill="#F2F4F6" stroke="none" d="M165.9 22.9Q165.9 21 164.55 19.6 163.15 18.25 161.25 18.25L57.25 18.25Q55.3 18.25 53.95 19.6 52.6 21 52.6 22.9L52.6 175.65Q52.6 177.6 53.95 178.95 55.3 180.3 57.25 180.3L161.25 180.3Q163.15 180.3 164.55 178.95 165.9 177.6 165.9 175.65L165.9 22.9M423.4 19.6Q422 18.25 420.1 18.25L316.05 18.25Q314.15 18.25 312.75 19.6 311.4 21 311.4 22.9L311.4 175.65Q311.4 177.6 312.75 178.95 314.15 180.3 316.05 180.3L420.1 180.3Q422 180.3 423.4 178.95 424.75 177.6 424.75 175.65L424.75 22.9Q424.75 21 423.4 19.6M553.15 19.6Q551.8 18.25 549.85 18.25L445.85 18.25Q443.95 18.25 442.6 19.6 441.25 21 441.25 22.9L441.25 175.65Q441.25 177.6 442.6 178.95 443.95 180.3 445.85 180.3L549.85 180.3Q551.8 180.3 553.15 178.95 554.5 177.6 554.5 175.65L554.5 22.9Q554.5 21 553.15 19.6Z"/><path fill="#D7E0E5" stroke="none" d="M293.55 19.6Q292.15 18.25 290.25 18.25L186.25 18.25Q184.3 18.25 182.95 19.6 181.6 21 181.6 22.9L181.6 175.65Q181.6 177.6 182.95 178.95 184.3 180.3 186.25 180.3L290.25 180.3Q292.15 180.3 293.55 178.95 294.9 177.6 294.9 175.65L294.9 22.9Q294.9 21 293.55 19.6Z"/><animate attributeName="display" repeatCount="indefinite" dur="1s" keyTimes="0;.883;.892;1" values="none;inline;none;none"/></g><g display="none" id="Layer66_0_FILL"><path fill="#F2F4F6" stroke="none" d="M165.7 22.9Q165.7 21 164.35 19.6 162.95 18.25 161.05 18.25L57.05 18.25Q55.1 18.25 53.75 19.6 52.4 21 52.4 22.9L52.4 175.65Q52.4 177.6 53.75 178.95 55.1 180.3 57.05 180.3L161.05 180.3Q162.95 180.3 164.35 178.95 165.7 177.6 165.7 175.65L165.7 22.9M423.2 19.6Q421.8 18.25 419.9 18.25L315.85 18.25Q313.95 18.25 312.55 19.6 311.2 21 311.2 22.9L311.2 175.65Q311.2 177.6 312.55 178.95 313.95 180.3 315.85 180.3L419.9 180.3Q421.8 180.3 423.2 178.95 424.55 177.6 424.55 175.65L424.55 22.9Q424.55 21 423.2 19.6M552.95 19.6Q551.6 18.25 549.65 18.25L445.65 18.25Q443.75 18.25 442.4 19.6 441.05 21 441.05 22.9L441.05 175.65Q441.05 177.6 442.4 178.95 443.75 180.3 445.65 180.3L549.65 180.3Q551.6 180.3 552.95 178.95 554.3 177.6 554.3 175.65L554.3 22.9Q554.3 21 552.95 19.6Z"/><path fill="#D7E0E5" stroke="none" d="M293.35 19.6Q291.95 18.25 290.05 18.25L186.05 18.25Q184.1 18.25 182.75 19.6 181.4 21 181.4 22.9L181.4 175.65Q181.4 177.6 182.75 178.95 184.1 180.3 186.05 180.3L290.05 180.3Q291.95 180.3 293.35 178.95 294.7 177.6 294.7 175.65L294.7 22.9Q294.7 21 293.35 19.6Z"/><animate attributeName="display" repeatCount="indefinite" dur="1s" keyTimes="0;.875;.883;1" values="none;inline;none;none"/></g><g display="none" id="Layer65_0_FILL"><path fill="#F2F4F6" stroke="none" d="M165.5 22.9Q165.5 21 164.15 19.6 162.75 18.25 160.85 18.25L56.85 18.25Q54.9 18.25 53.55 19.6 52.2 21 52.2 22.9L52.2 175.65Q52.2 177.6 53.55 178.95 54.9 180.3 56.85 180.3L160.85 180.3Q162.75 180.3 164.15 178.95 165.5 177.6 165.5 175.65L165.5 22.9M423 19.6Q421.6 18.25 419.7 18.25L315.65 18.25Q313.75 18.25 312.35 19.6 311 21 311 22.9L311 175.65Q311 177.6 312.35 178.95 313.75 180.3 315.65 180.3L419.7 180.3Q421.6 180.3 423 178.95 424.35 177.6 424.35 175.65L424.35 22.9Q424.35 21 423 19.6M552.75 19.6Q551.4 18.25 549.45 18.25L445.45 18.25Q443.55 18.25 442.2 19.6 440.85 21 440.85 22.9L440.85 175.65Q440.85 177.6 442.2 178.95 443.55 180.3 445.45 180.3L549.45 180.3Q551.4 180.3 552.75 178.95 554.1 177.6 554.1 175.65L554.1 22.9Q554.1 21 552.75 19.6Z"/><path fill="#D7E0E5" stroke="none" d="M293.15 19.6Q291.75 18.25 289.85 18.25L185.85 18.25Q183.9 18.25 182.55 19.6 181.2 21 181.2 22.9L181.2 175.65Q181.2 177.6 182.55 178.95 183.9 180.3 185.85 180.3L289.85 180.3Q291.75 180.3 293.15 178.95 294.5 177.6 294.5 175.65L294.5 22.9Q294.5 21 293.15 19.6Z"/><animate attributeName="display" repeatCount="indefinite" dur="1s" keyTimes="0;.867;.875;1" values="none;inline;none;none"/></g><g display="none" id="Layer64_0_FILL"><path fill="#F2F4F6" stroke="none" d="M165.35 22.9Q165.35 21 164 19.6 162.6 18.25 160.7 18.25L56.7 18.25Q54.75 18.25 53.4 19.6 52.05 21 52.05 22.9L52.05 175.65Q52.05 177.6 53.4 178.95 54.75 180.3 56.7 180.3L160.7 180.3Q162.6 180.3 164 178.95 165.35 177.6 165.35 175.65L165.35 22.9M422.85 19.6Q421.45 18.25 419.55 18.25L315.5 18.25Q313.6 18.25 312.2 19.6 310.85 21 310.85 22.9L310.85 175.65Q310.85 177.6 312.2 178.95 313.6 180.3 315.5 180.3L419.55 180.3Q421.45 180.3 422.85 178.95 424.2 177.6 424.2 175.65L424.2 22.9Q424.2 21 422.85 19.6M552.6 19.6Q551.25 18.25 549.3 18.25L445.3 18.25Q443.4 18.25 442.05 19.6 440.7 21 440.7 22.9L440.7 175.65Q440.7 177.6 442.05 178.95 443.4 180.3 445.3 180.3L549.3 180.3Q551.25 180.3 552.6 178.95 553.95 177.6 553.95 175.65L553.95 22.9Q553.95 21 552.6 19.6Z"/><path fill="#D7E0E5" stroke="none" d="M293 19.6Q291.6 18.25 289.7 18.25L185.7 18.25Q183.75 18.25 182.4 19.6 181.05 21 181.05 22.9L181.05 175.65Q181.05 177.6 182.4 178.95 183.75 180.3 185.7 180.3L289.7 180.3Q291.6 180.3 293 178.95 294.35 177.6 294.35 175.65L294.35 22.9Q294.35 21 293 19.6Z"/><animate attributeName="display" repeatCount="indefinite" dur="1s" keyTimes="0;.858;.867;1" values="none;inline;none;none"/></g><g display="none" id="Layer63_0_FILL"><path fill="#F2F4F6" stroke="none" d="M165.1 22.9Q165.1 21 163.75 19.6 162.35 18.25 160.45 18.25L56.45 18.25Q54.5 18.25 53.15 19.6 51.8 21 51.8 22.9L51.8 175.65Q51.8 177.6 53.15 178.95 54.5 180.3 56.45 180.3L160.45 180.3Q162.35 180.3 163.75 178.95 165.1 177.6 165.1 175.65L165.1 22.9M422.6 19.6Q421.2 18.25 419.3 18.25L315.25 18.25Q313.35 18.25 311.95 19.6 310.6 21 310.6 22.9L310.6 175.65Q310.6 177.6 311.95 178.95 313.35 180.3 315.25 180.3L419.3 180.3Q421.2 180.3 422.6 178.95 423.95 177.6 423.95 175.65L423.95 22.9Q423.95 21 422.6 19.6M552.35 19.6Q551 18.25 549.05 18.25L445.05 18.25Q443.15 18.25 441.8 19.6 440.45 21 440.45 22.9L440.45 175.65Q440.45 177.6 441.8 178.95 443.15 180.3 445.05 180.3L549.05 180.3Q551 180.3 552.35 178.95 553.7 177.6 553.7 175.65L553.7 22.9Q553.7 21 552.35 19.6Z"/><path fill="#D7E0E5" stroke="none" d="M292.75 19.6Q291.35 18.25 289.45 18.25L185.45 18.25Q183.5 18.25 182.15 19.6 180.8 21 180.8 22.9L180.8 175.65Q180.8 177.6 182.15 178.95 183.5 180.3 185.45 180.3L289.45 180.3Q291.35 180.3 292.75 178.95 294.1 177.6 294.1 175.65L294.1 22.9Q294.1 21 292.75 19.6Z"/><animate attributeName="display" repeatCount="indefinite" dur="1s" keyTimes="0;.85;.858;1" values="none;inline;none;none"/></g><g display="none" id="Layer62_0_FILL"><path fill="#F2F4F6" stroke="none" d="M164.75 22.9Q164.75 21 163.4 19.6 162 18.25 160.1 18.25L56.1 18.25Q54.15 18.25 52.8 19.6 51.45 21 51.45 22.9L51.45 175.65Q51.45 177.6 52.8 178.95 54.15 180.3 56.1 180.3L160.1 180.3Q162 180.3 163.4 178.95 164.75 177.6 164.75 175.65L164.75 22.9M422.25 19.6Q420.85 18.25 418.95 18.25L314.9 18.25Q313 18.25 311.6 19.6 310.25 21 310.25 22.9L310.25 175.65Q310.25 177.6 311.6 178.95 313 180.3 314.9 180.3L418.95 180.3Q420.85 180.3 422.25 178.95 423.6 177.6 423.6 175.65L423.6 22.9Q423.6 21 422.25 19.6M552 19.6Q550.65 18.25 548.7 18.25L444.7 18.25Q442.8 18.25 441.45 19.6 440.1 21 440.1 22.9L440.1 175.65Q440.1 177.6 441.45 178.95 442.8 180.3 444.7 180.3L548.7 180.3Q550.65 180.3 552 178.95 553.35 177.6 553.35 175.65L553.35 22.9Q553.35 21 552 19.6Z"/><path fill="#D7E0E5" stroke="none" d="M292.4 19.6Q291 18.25 289.1 18.25L185.1 18.25Q183.15 18.25 181.8 19.6 180.45 21 180.45 22.9L180.45 175.65Q180.45 177.6 181.8 178.95 183.15 180.3 185.1 180.3L289.1 180.3Q291 180.3 292.4 178.95 293.75 177.6 293.75 175.65L293.75 22.9Q293.75 21 292.4 19.6Z"/><animate attributeName="display" repeatCount="indefinite" dur="1s" keyTimes="0;.842;.85;1" values="none;inline;none;none"/></g><g display="none" id="Layer61_0_FILL"><path fill="#F2F4F6" stroke="none" d="M164.45 22.9Q164.45 21 163.1 19.6 161.7 18.25 159.8 18.25L55.8 18.25Q53.85 18.25 52.5 19.6 51.15 21 51.15 22.9L51.15 175.65Q51.15 177.6 52.5 178.95 53.85 180.3 55.8 180.3L159.8 180.3Q161.7 180.3 163.1 178.95 164.45 177.6 164.45 175.65L164.45 22.9M421.95 19.6Q420.55 18.25 418.65 18.25L314.6 18.25Q312.7 18.25 311.3 19.6 309.95 21 309.95 22.9L309.95 175.65Q309.95 177.6 311.3 178.95 312.7 180.3 314.6 180.3L418.65 180.3Q420.55 180.3 421.95 178.95 423.3 177.6 423.3 175.65L423.3 22.9Q423.3 21 421.95 19.6M551.7 19.6Q550.35 18.25 548.4 18.25L444.4 18.25Q442.5 18.25 441.15 19.6 439.8 21 439.8 22.9L439.8 175.65Q439.8 177.6 441.15 178.95 442.5 180.3 444.4 180.3L548.4 180.3Q550.35 180.3 551.7 178.95 553.05 177.6 553.05 175.65L553.05 22.9Q553.05 21 551.7 19.6Z"/><path fill="#D7E0E5" stroke="none" d="M292.1 19.6Q290.7 18.25 288.8 18.25L184.8 18.25Q182.85 18.25 181.5 19.6 180.15 21 180.15 22.9L180.15 175.65Q180.15 177.6 181.5 178.95 182.85 180.3 184.8 180.3L288.8 180.3Q290.7 180.3 292.1 178.95 293.45 177.6 293.45 175.65L293.45 22.9Q293.45 21 292.1 19.6Z"/><animate attributeName="display" repeatCount="indefinite" dur="1s" keyTimes="0;.833;.842;1" values="none;inline;none;none"/></g><g display="none" id="Layer60_0_FILL"><path fill="#F2F4F6" stroke="none" d="M164.15 22.9Q164.15 21 162.8 19.6 161.4 18.25 159.5 18.25L55.5 18.25Q53.55 18.25 52.2 19.6 50.85 21 50.85 22.9L50.85 175.65Q50.85 177.6 52.2 178.95 53.55 180.3 55.5 180.3L159.5 180.3Q161.4 180.3 162.8 178.95 164.15 177.6 164.15 175.65L164.15 22.9M551.4 19.6Q550.05 18.25 548.1 18.25L444.1 18.25Q442.2 18.25 440.85 19.6 439.5 21 439.5 22.9L439.5 175.65Q439.5 177.6 440.85 178.95 442.2 180.3 444.1 180.3L548.1 180.3Q550.05 180.3 551.4 178.95 552.75 177.6 552.75 175.65L552.75 22.9Q552.75 21 551.4 19.6Z"/><path fill="#D8E0E5" stroke="none" d="M291.8 19.6Q290.4 18.25 288.5 18.25L184.5 18.25Q182.55 18.25 181.2 19.6 179.85 21 179.85 22.9L179.85 175.65Q179.85 177.6 181.2 178.95 182.55 180.3 184.5 180.3L288.5 180.3Q290.4 180.3 291.8 178.95 293.15 177.6 293.15 175.65L293.15 22.9Q293.15 21 291.8 19.6Z"/><path fill="#F1F4F6" stroke="none" d="M421.65 19.6Q420.25 18.25 418.35 18.25L314.3 18.25Q312.4 18.25 311 19.6 309.65 21 309.65 22.9L309.65 175.65Q309.65 177.6 311 178.95 312.4 180.3 314.3 180.3L418.35 180.3Q420.25 180.3 421.65 178.95 423 177.6 423 175.65L423 22.9Q423 21 421.65 19.6Z"/><animate attributeName="display" repeatCount="indefinite" dur="1s" keyTimes="0;.825;.833;1" values="none;inline;none;none"/></g><g display="none" id="Layer59_0_FILL"><path fill="#F2F4F6" stroke="none" d="M163.7 22.9Q163.7 21 162.35 19.6 160.95 18.25 159.05 18.25L55.05 18.25Q53.1 18.25 51.75 19.6 50.4 21 50.4 22.9L50.4 175.65Q50.4 177.6 51.75 178.95 53.1 180.3 55.05 180.3L159.05 180.3Q160.95 180.3 162.35 178.95 163.7 177.6 163.7 175.65L163.7 22.9M550.95 19.6Q549.6 18.25 547.65 18.25L443.65 18.25Q441.75 18.25 440.4 19.6 439.05 21 439.05 22.9L439.05 175.65Q439.05 177.6 440.4 178.95 441.75 180.3 443.65 180.3L547.65 180.3Q549.6 180.3 550.95 178.95 552.3 177.6 552.3 175.65L552.3 22.9Q552.3 21 550.95 19.6Z"/><path fill="#D8E0E5" stroke="none" d="M291.35 19.6Q289.95 18.25 288.05 18.25L184.05 18.25Q182.1 18.25 180.75 19.6 179.4 21 179.4 22.9L179.4 175.65Q179.4 177.6 180.75 178.95 182.1 180.3 184.05 180.3L288.05 180.3Q289.95 180.3 291.35 178.95 292.7 177.6 292.7 175.65L292.7 22.9Q292.7 21 291.35 19.6Z"/><path fill="#F1F4F6" stroke="none" d="M421.2 19.6Q419.8 18.25 417.9 18.25L313.85 18.25Q311.95 18.25 310.55 19.6 309.2 21 309.2 22.9L309.2 175.65Q309.2 177.6 310.55 178.95 311.95 180.3 313.85 180.3L417.9 180.3Q419.8 180.3 421.2 178.95 422.55 177.6 422.55 175.65L422.55 22.9Q422.55 21 421.2 19.6Z"/><animate attributeName="display" repeatCount="indefinite" dur="1s" keyTimes="0;.817;.825;1" values="none;inline;none;none"/></g><g display="none" id="Layer58_0_FILL"><path fill="#F2F4F6" stroke="none" d="M163.25 175.65L163.25 22.9Q163.25 21 161.9 19.6 160.5 18.25 158.6 18.25L54.6 18.25Q52.65 18.25 51.3 19.6 49.95 21 49.95 22.9L49.95 175.65Q49.95 177.6 51.3 178.95 52.65 180.3 54.6 180.3L158.6 180.3Q160.5 180.3 161.9 178.95 163.25 177.6 163.25 175.65M550.5 19.6Q549.15 18.25 547.2 18.25L443.2 18.25Q441.3 18.25 439.95 19.6 438.6 21 438.6 22.9L438.6 175.65Q438.6 177.6 439.95 178.95 441.3 180.3 443.2 180.3L547.2 180.3Q549.15 180.3 550.5 178.95 551.85 177.6 551.85 175.65L551.85 22.9Q551.85 21 550.5 19.6Z"/><path fill="#D8E1E5" stroke="none" d="M290.9 19.6Q289.5 18.25 287.6 18.25L183.6 18.25Q181.65 18.25 180.3 19.6 178.95 21 178.95 22.9L178.95 175.65Q178.95 177.6 180.3 178.95 181.65 180.3 183.6 180.3L287.6 180.3Q289.5 180.3 290.9 178.95 292.25 177.6 292.25 175.65L292.25 22.9Q292.25 21 290.9 19.6Z"/><path fill="#F1F3F6" stroke="none" d="M420.75 19.6Q419.35 18.25 417.45 18.25L313.4 18.25Q311.5 18.25 310.1 19.6 308.75 21 308.75 22.9L308.75 175.65Q308.75 177.6 310.1 178.95 311.5 180.3 313.4 180.3L417.45 180.3Q419.35 180.3 420.75 178.95 422.1 177.6 422.1 175.65L422.1 22.9Q422.1 21 420.75 19.6Z"/><animate attributeName="display" repeatCount="indefinite" dur="1s" keyTimes="0;.808;.817;1" values="none;inline;none;none"/></g><g display="none" id="Layer57_0_FILL"><path fill="#F2F4F6" stroke="none" d="M162.85 175.65L162.85 22.9Q162.85 21 161.5 19.6 160.1 18.25 158.2 18.25L54.2 18.25Q52.25 18.25 50.9 19.6 49.55 21 49.55 22.9L49.55 175.65Q49.55 177.6 50.9 178.95 52.25 180.3 54.2 180.3L158.2 180.3Q160.1 180.3 161.5 178.95 162.85 177.6 162.85 175.65M550.1 19.6Q548.75 18.25 546.8 18.25L442.8 18.25Q440.9 18.25 439.55 19.6 438.2 21 438.2 22.9L438.2 175.65Q438.2 177.6 439.55 178.95 440.9 180.3 442.8 180.3L546.8 180.3Q548.75 180.3 550.1 178.95 551.45 177.6 551.45 175.65L551.45 22.9Q551.45 21 550.1 19.6Z"/><path fill="#D8E1E5" stroke="none" d="M290.5 19.6Q289.1 18.25 287.2 18.25L183.2 18.25Q181.25 18.25 179.9 19.6 178.55 21 178.55 22.9L178.55 175.65Q178.55 177.6 179.9 178.95 181.25 180.3 183.2 180.3L287.2 180.3Q289.1 180.3 290.5 178.95 291.85 177.6 291.85 175.65L291.85 22.9Q291.85 21 290.5 19.6Z"/><path fill="#F1F3F6" stroke="none" d="M420.35 19.6Q418.95 18.25 417.05 18.25L313 18.25Q311.1 18.25 309.7 19.6 308.35 21 308.35 22.9L308.35 175.65Q308.35 177.6 309.7 178.95 311.1 180.3 313 180.3L417.05 180.3Q418.95 180.3 420.35 178.95 421.7 177.6 421.7 175.65L421.7 22.9Q421.7 21 420.35 19.6Z"/><animate attributeName="display" repeatCount="indefinite" dur="1s" keyTimes="0;.8;.808;1" values="none;inline;none;none"/></g><g display="none" id="Layer56_0_FILL"><path fill="#F2F4F6" stroke="none" d="M162.35 175.65L162.35 22.9Q162.35 21 161 19.6 159.6 18.25 157.7 18.25L53.7 18.25Q51.75 18.25 50.4 19.6 49.05 21 49.05 22.9L49.05 175.65Q49.05 177.6 50.4 178.95 51.75 180.3 53.7 180.3L157.7 180.3Q159.6 180.3 161 178.95 162.35 177.6 162.35 175.65M549.6 19.6Q548.25 18.25 546.3 18.25L442.3 18.25Q440.4 18.25 439.05 19.6 437.7 21 437.7 22.9L437.7 175.65Q437.7 177.6 439.05 178.95 440.4 180.3 442.3 180.3L546.3 180.3Q548.25 180.3 549.6 178.95 550.95 177.6 550.95 175.65L550.95 22.9Q550.95 21 549.6 19.6Z"/><path fill="#D8E1E6" stroke="none" d="M290 19.6Q288.6 18.25 286.7 18.25L182.7 18.25Q180.75 18.25 179.4 19.6 178.05 21 178.05 22.9L178.05 175.65Q178.05 177.6 179.4 178.95 180.75 180.3 182.7 180.3L286.7 180.3Q288.6 180.3 290 178.95 291.35 177.6 291.35 175.65L291.35 22.9Q291.35 21 290 19.6Z"/><path fill="#F1F3F5" stroke="none" d="M419.85 19.6Q418.45 18.25 416.55 18.25L312.5 18.25Q310.6 18.25 309.2 19.6 307.85 21 307.85 22.9L307.85 175.65Q307.85 177.6 309.2 178.95 310.6 180.3 312.5 180.3L416.55 180.3Q418.45 180.3 419.85 178.95 421.2 177.6 421.2 175.65L421.2 22.9Q421.2 21 419.85 19.6Z"/><animate attributeName="display" repeatCount="indefinite" dur="1s" keyTimes="0;.792;.8;1" values="none;inline;none;none"/></g><g display="none" id="Layer55_0_FILL"><path fill="#F2F4F6" stroke="none" d="M160.35 19.6Q158.95 18.25 157.05 18.25L53.05 18.25Q51.1 18.25 49.75 19.6 48.4 21 48.4 22.9L48.4 175.65Q48.4 177.6 49.75 178.95 51.1 180.3 53.05 180.3L157.05 180.3Q158.95 180.3 160.35 178.95 161.7 177.6 161.7 175.65L161.7 22.9Q161.7 21 160.35 19.6M548.95 19.6Q547.6 18.25 545.65 18.25L441.65 18.25Q439.75 18.25 438.4 19.6 437.05 21 437.05 22.9L437.05 175.65Q437.05 177.6 438.4 178.95 439.75 180.3 441.65 180.3L545.65 180.3Q547.6 180.3 548.95 178.95 550.3 177.6 550.3 175.65L550.3 22.9Q550.3 21 548.95 19.6Z"/><path fill="#D8E1E6" stroke="none" d="M289.35 19.6Q287.95 18.25 286.05 18.25L182.05 18.25Q180.1 18.25 178.75 19.6 177.4 21 177.4 22.9L177.4 175.65Q177.4 177.6 178.75 178.95 180.1 180.3 182.05 180.3L286.05 180.3Q287.95 180.3 289.35 178.95 290.7 177.6 290.7 175.65L290.7 22.9Q290.7 21 289.35 19.6Z"/><path fill="#F1F3F5" stroke="none" d="M419.2 19.6Q417.8 18.25 415.9 18.25L311.85 18.25Q309.95 18.25 308.55 19.6 307.2 21 307.2 22.9L307.2 175.65Q307.2 177.6 308.55 178.95 309.95 180.3 311.85 180.3L415.9 180.3Q417.8 180.3 419.2 178.95 420.55 177.6 420.55 175.65L420.55 22.9Q420.55 21 419.2 19.6Z"/><animate attributeName="display" repeatCount="indefinite" dur="1s" keyTimes="0;.783;.792;1" values="none;inline;none;none"/></g><g display="none" id="Layer54_0_FILL"><path fill="#F2F4F6" stroke="none" d="M159.8 19.6Q158.4 18.25 156.5 18.25L52.5 18.25Q50.55 18.25 49.2 19.6 47.85 21 47.85 22.9L47.85 175.65Q47.85 177.6 49.2 178.95 50.55 180.3 52.5 180.3L156.5 180.3Q158.4 180.3 159.8 178.95 161.15 177.6 161.15 175.65L161.15 22.9Q161.15 21 159.8 19.6M548.4 19.6Q547.05 18.25 545.1 18.25L441.1 18.25Q439.2 18.25 437.85 19.6 436.5 21 436.5 22.9L436.5 175.65Q436.5 177.6 437.85 178.95 439.2 180.3 441.1 180.3L545.1 180.3Q547.05 180.3 548.4 178.95 549.75 177.6 549.75 175.65L549.75 22.9Q549.75 21 548.4 19.6Z"/><path fill="#D8E1E6" stroke="none" d="M288.8 19.6Q287.4 18.25 285.5 18.25L181.5 18.25Q179.55 18.25 178.2 19.6 176.85 21 176.85 22.9L176.85 175.65Q176.85 177.6 178.2 178.95 179.55 180.3 181.5 180.3L285.5 180.3Q287.4 180.3 288.8 178.95 290.15 177.6 290.15 175.65L290.15 22.9Q290.15 21 288.8 19.6Z"/><path fill="#F1F3F5" stroke="none" d="M418.65 19.6Q417.25 18.25 415.35 18.25L311.3 18.25Q309.4 18.25 308 19.6 306.65 21 306.65 22.9L306.65 175.65Q306.65 177.6 308 178.95 309.4 180.3 311.3 180.3L415.35 180.3Q417.25 180.3 418.65 178.95 420 177.6 420 175.65L420 22.9Q420 21 418.65 19.6Z"/><animate attributeName="display" repeatCount="indefinite" dur="1s" keyTimes="0;.775;.783;1" values="none;inline;none;none"/></g><g display="none" id="Layer53_0_FILL"><path fill="#F2F4F6" stroke="none" d="M159.1 19.6Q157.7 18.25 155.8 18.25L51.8 18.25Q49.85 18.25 48.5 19.6 47.15 21 47.15 22.9L47.15 175.65Q47.15 177.6 48.5 178.95 49.85 180.3 51.8 180.3L155.8 180.3Q157.7 180.3 159.1 178.95 160.45 177.6 160.45 175.65L160.45 22.9Q160.45 21 159.1 19.6M547.7 19.6Q546.35 18.25 544.4 18.25L440.4 18.25Q438.5 18.25 437.15 19.6 435.8 21 435.8 22.9L435.8 175.65Q435.8 177.6 437.15 178.95 438.5 180.3 440.4 180.3L544.4 180.3Q546.35 180.3 547.7 178.95 549.05 177.6 549.05 175.65L549.05 22.9Q549.05 21 547.7 19.6Z"/><path fill="#D8E1E6" stroke="none" d="M288.1 19.6Q286.7 18.25 284.8 18.25L180.8 18.25Q178.85 18.25 177.5 19.6 176.15 21 176.15 22.9L176.15 175.65Q176.15 177.6 177.5 178.95 178.85 180.3 180.8 180.3L284.8 180.3Q286.7 180.3 288.1 178.95 289.45 177.6 289.45 175.65L289.45 22.9Q289.45 21 288.1 19.6Z"/><path fill="#F1F3F5" stroke="none" d="M417.95 19.6Q416.55 18.25 414.65 18.25L310.6 18.25Q308.7 18.25 307.3 19.6 305.95 21 305.95 22.9L305.95 175.65Q305.95 177.6 307.3 178.95 308.7 180.3 310.6 180.3L414.65 180.3Q416.55 180.3 417.95 178.95 419.3 177.6 419.3 175.65L419.3 22.9Q419.3 21 417.95 19.6Z"/><animate attributeName="display" repeatCount="indefinite" dur="1s" keyTimes="0;.767;.775;1" values="none;inline;none;none"/></g><g display="none" id="Layer52_0_FILL"><path fill="#F2F4F6" stroke="none" d="M158.4 19.6Q157 18.25 155.1 18.25L51.1 18.25Q49.15 18.25 47.8 19.6 46.45 21 46.45 22.9L46.45 175.65Q46.45 177.6 47.8 178.95 49.15 180.3 51.1 180.3L155.1 180.3Q157 180.3 158.4 178.95 159.75 177.6 159.75 175.65L159.75 22.9Q159.75 21 158.4 19.6M547 19.6Q545.65 18.25 543.7 18.25L439.7 18.25Q437.8 18.25 436.45 19.6 435.1 21 435.1 22.9L435.1 175.65Q435.1 177.6 436.45 178.95 437.8 180.3 439.7 180.3L543.7 180.3Q545.65 180.3 547 178.95 548.35 177.6 548.35 175.65L548.35 22.9Q548.35 21 547 19.6Z"/><path fill="#D8E1E6" stroke="none" d="M287.4 19.6Q286 18.25 284.1 18.25L180.1 18.25Q178.15 18.25 176.8 19.6 175.45 21 175.45 22.9L175.45 175.65Q175.45 177.6 176.8 178.95 178.15 180.3 180.1 180.3L284.1 180.3Q286 180.3 287.4 178.95 288.75 177.6 288.75 175.65L288.75 22.9Q288.75 21 287.4 19.6Z"/><path fill="#F1F3F5" stroke="none" d="M417.25 19.6Q415.85 18.25 413.95 18.25L309.9 18.25Q308 18.25 306.6 19.6 305.25 21 305.25 22.9L305.25 175.65Q305.25 177.6 306.6 178.95 308 180.3 309.9 180.3L413.95 180.3Q415.85 180.3 417.25 178.95 418.6 177.6 418.6 175.65L418.6 22.9Q418.6 21 417.25 19.6Z"/><animate attributeName="display" repeatCount="indefinite" dur="1s" keyTimes="0;.758;.767;1" values="none;inline;none;none"/></g><g display="none" id="Layer51_0_FILL"><path fill="#F2F4F6" stroke="none" d="M157.65 19.6Q156.25 18.25 154.35 18.25L50.35 18.25Q48.4 18.25 47.05 19.6 45.7 21 45.7 22.9L45.7 175.65Q45.7 177.6 47.05 178.95 48.4 180.3 50.35 180.3L154.35 180.3Q156.25 180.3 157.65 178.95 159 177.6 159 175.65L159 22.9Q159 21 157.65 19.6M546.25 19.6Q544.9 18.25 542.95 18.25L438.95 18.25Q437.05 18.25 435.7 19.6 434.35 21 434.35 22.9L434.35 175.65Q434.35 177.6 435.7 178.95 437.05 180.3 438.95 180.3L542.95 180.3Q544.9 180.3 546.25 178.95 547.6 177.6 547.6 175.65L547.6 22.9Q547.6 21 546.25 19.6Z"/><path fill="#D9E1E6" stroke="none" d="M288 22.9Q288 21 286.65 19.6 285.25 18.25 283.35 18.25L179.35 18.25Q177.4 18.25 176.05 19.6 174.7 21 174.7 22.9L174.7 175.65Q174.7 177.6 176.05 178.95 177.4 180.3 179.35 180.3L283.35 180.3Q285.25 180.3 286.65 178.95 288 177.6 288 175.65L288 22.9Z"/><path fill="#F0F3F5" stroke="none" d="M416.5 19.6Q415.1 18.25 413.2 18.25L309.15 18.25Q307.25 18.25 305.85 19.6 304.5 21 304.5 22.9L304.5 175.65Q304.5 177.6 305.85 178.95 307.25 180.3 309.15 180.3L413.2 180.3Q415.1 180.3 416.5 178.95 417.85 177.6 417.85 175.65L417.85 22.9Q417.85 21 416.5 19.6Z"/><animate attributeName="display" repeatCount="indefinite" dur="1s" keyTimes="0;.75;.758;1" values="none;inline;none;none"/></g><g display="none" id="Layer50_0_FILL"><path fill="#F2F4F6" stroke="none" d="M156.85 19.6Q155.45 18.25 153.55 18.25L49.55 18.25Q47.6 18.25 46.25 19.6 44.9 21 44.9 22.9L44.9 175.65Q44.9 177.6 46.25 178.95 47.6 180.3 49.55 180.3L153.55 180.3Q155.45 180.3 156.85 178.95 158.2 177.6 158.2 175.65L158.2 22.9Q158.2 21 156.85 19.6M545.45 19.6Q544.1 18.25 542.15 18.25L438.15 18.25Q436.25 18.25 434.9 19.6 433.55 21 433.55 22.9L433.55 175.65Q433.55 177.6 434.9 178.95 436.25 180.3 438.15 180.3L542.15 180.3Q544.1 180.3 545.45 178.95 546.8 177.6 546.8 175.65L546.8 22.9Q546.8 21 545.45 19.6Z"/><path fill="#D9E1E6" stroke="none" d="M287.2 22.9Q287.2 21 285.85 19.6 284.45 18.25 282.55 18.25L178.55 18.25Q176.6 18.25 175.25 19.6 173.9 21 173.9 22.9L173.9 175.65Q173.9 177.6 175.25 178.95 176.6 180.3 178.55 180.3L282.55 180.3Q284.45 180.3 285.85 178.95 287.2 177.6 287.2 175.65L287.2 22.9Z"/><path fill="#F0F3F5" stroke="none" d="M415.7 19.6Q414.3 18.25 412.4 18.25L308.35 18.25Q306.45 18.25 305.05 19.6 303.7 21 303.7 22.9L303.7 175.65Q303.7 177.6 305.05 178.95 306.45 180.3 308.35 180.3L412.4 180.3Q414.3 180.3 415.7 178.95 417.05 177.6 417.05 175.65L417.05 22.9Q417.05 21 415.7 19.6Z"/><animate attributeName="display" repeatCount="indefinite" dur="1s" keyTimes="0;.742;.75;1" values="none;inline;none;none"/></g><g display="none" id="Layer49_0_FILL"><path fill="#F2F4F6" stroke="none" d="M156.05 19.6Q154.65 18.25 152.75 18.25L48.75 18.25Q46.8 18.25 45.45 19.6 44.1 21 44.1 22.9L44.1 175.65Q44.1 177.6 45.45 178.95 46.8 180.3 48.75 180.3L152.75 180.3Q154.65 180.3 156.05 178.95 157.4 177.6 157.4 175.65L157.4 22.9Q157.4 21 156.05 19.6M544.65 19.6Q543.3 18.25 541.35 18.25L437.35 18.25Q435.45 18.25 434.1 19.6 432.75 21 432.75 22.9L432.75 175.65Q432.75 177.6 434.1 178.95 435.45 180.3 437.35 180.3L541.35 180.3Q543.3 180.3 544.65 178.95 546 177.6 546 175.65L546 22.9Q546 21 544.65 19.6Z"/><path fill="#D9E1E6" stroke="none" d="M286.4 22.9Q286.4 21 285.05 19.6 283.65 18.25 281.75 18.25L177.75 18.25Q175.8 18.25 174.45 19.6 173.1 21 173.1 22.9L173.1 175.65Q173.1 177.6 174.45 178.95 175.8 180.3 177.75 180.3L281.75 180.3Q283.65 180.3 285.05 178.95 286.4 177.6 286.4 175.65L286.4 22.9Z"/><path fill="#F0F3F5" stroke="none" d="M414.9 19.6Q413.5 18.25 411.6 18.25L307.55 18.25Q305.65 18.25 304.25 19.6 302.9 21 302.9 22.9L302.9 175.65Q302.9 177.6 304.25 178.95 305.65 180.3 307.55 180.3L411.6 180.3Q413.5 180.3 414.9 178.95 416.25 177.6 416.25 175.65L416.25 22.9Q416.25 21 414.9 19.6Z"/><animate attributeName="display" repeatCount="indefinite" dur="1s" keyTimes="0;.733;.742;1" values="none;inline;none;none"/></g><g display="none" id="Layer48_0_FILL"><path fill="#F2F4F6" stroke="none" d="M155.1 19.6Q153.7 18.25 151.8 18.25L47.8 18.25Q45.85 18.25 44.5 19.6 43.15 21 43.15 22.9L43.15 175.65Q43.15 177.6 44.5 178.95 45.85 180.3 47.8 180.3L151.8 180.3Q153.7 180.3 155.1 178.95 156.45 177.6 156.45 175.65L156.45 22.9Q156.45 21 155.1 19.6M543.7 19.6Q542.35 18.25 540.4 18.25L436.4 18.25Q434.5 18.25 433.15 19.6 431.8 21 431.8 22.9L431.8 175.65Q431.8 177.6 433.15 178.95 434.5 180.3 436.4 180.3L540.4 180.3Q542.35 180.3 543.7 178.95 545.05 177.6 545.05 175.65L545.05 22.9Q545.05 21 543.7 19.6Z"/><path fill="#D9E2E6" stroke="none" d="M285.45 22.9Q285.45 21 284.1 19.6 282.7 18.25 280.8 18.25L176.8 18.25Q174.85 18.25 173.5 19.6 172.15 21 172.15 22.9L172.15 175.65Q172.15 177.6 173.5 178.95 174.85 180.3 176.8 180.3L280.8 180.3Q282.7 180.3 284.1 178.95 285.45 177.6 285.45 175.65L285.45 22.9Z"/><path fill="#F0F2F5" stroke="none" d="M413.95 19.6Q412.55 18.25 410.65 18.25L306.6 18.25Q304.7 18.25 303.3 19.6 301.95 21 301.95 22.9L301.95 175.65Q301.95 177.6 303.3 178.95 304.7 180.3 306.6 180.3L410.65 180.3Q412.55 180.3 413.95 178.95 415.3 177.6 415.3 175.65L415.3 22.9Q415.3 21 413.95 19.6Z"/><animate attributeName="display" repeatCount="indefinite" dur="1s" keyTimes="0;.725;.733;1" values="none;inline;none;none"/></g><g display="none" id="Layer47_0_FILL"><path fill="#F2F4F6" stroke="none" d="M154.1 19.6Q152.7 18.25 150.8 18.25L46.8 18.25Q44.85 18.25 43.5 19.6 42.15 21 42.15 22.9L42.15 175.65Q42.15 177.6 43.5 178.95 44.85 180.3 46.8 180.3L150.8 180.3Q152.7 180.3 154.1 178.95 155.45 177.6 155.45 175.65L155.45 22.9Q155.45 21 154.1 19.6M542.7 19.6Q541.35 18.25 539.4 18.25L435.4 18.25Q433.5 18.25 432.15 19.6 430.8 21 430.8 22.9L430.8 175.65Q430.8 177.6 432.15 178.95 433.5 180.3 435.4 180.3L539.4 180.3Q541.35 180.3 542.7 178.95 544.05 177.6 544.05 175.65L544.05 22.9Q544.05 21 542.7 19.6Z"/><path fill="#D9E2E6" stroke="none" d="M283.1 19.6Q281.7 18.25 279.8 18.25L175.8 18.25Q173.85 18.25 172.5 19.6 171.15 21 171.15 22.9L171.15 175.65Q171.15 177.6 172.5 178.95 173.85 180.3 175.8 180.3L279.8 180.3Q281.7 180.3 283.1 178.95 284.45 177.6 284.45 175.65L284.45 22.9Q284.45 21 283.1 19.6Z"/><path fill="#F0F2F5" stroke="none" d="M412.95 19.6Q411.55 18.25 409.65 18.25L305.6 18.25Q303.7 18.25 302.3 19.6 300.95 21 300.95 22.9L300.95 175.65Q300.95 177.6 302.3 178.95 303.7 180.3 305.6 180.3L409.65 180.3Q411.55 180.3 412.95 178.95 414.3 177.6 414.3 175.65L414.3 22.9Q414.3 21 412.95 19.6Z"/><animate attributeName="display" repeatCount="indefinite" dur="1s" keyTimes="0;.717;.725;1" values="none;inline;none;none"/></g><g display="none" id="Layer46_0_FILL"><path fill="#F2F4F6" stroke="none" d="M153.1 19.6Q151.7 18.25 149.8 18.25L45.8 18.25Q43.85 18.25 42.5 19.6 41.15 21 41.15 22.9L41.15 175.65Q41.15 177.6 42.5 178.95 43.85 180.3 45.8 180.3L149.8 180.3Q151.7 180.3 153.1 178.95 154.45 177.6 154.45 175.65L154.45 22.9Q154.45 21 153.1 19.6M541.7 19.6Q540.35 18.25 538.4 18.25L434.4 18.25Q432.5 18.25 431.15 19.6 429.8 21 429.8 22.9L429.8 175.65Q429.8 177.6 431.15 178.95 432.5 180.3 434.4 180.3L538.4 180.3Q540.35 180.3 541.7 178.95 543.05 177.6 543.05 175.65L543.05 22.9Q543.05 21 541.7 19.6Z"/><path fill="#DAE2E7" stroke="none" d="M282.1 19.6Q280.7 18.25 278.8 18.25L174.8 18.25Q172.85 18.25 171.5 19.6 170.15 21 170.15 22.9L170.15 175.65Q170.15 177.6 171.5 178.95 172.85 180.3 174.8 180.3L278.8 180.3Q280.7 180.3 282.1 178.95 283.45 177.6 283.45 175.65L283.45 22.9Q283.45 21 282.1 19.6Z"/><path fill="#EFF2F4" stroke="none" d="M411.95 19.6Q410.55 18.25 408.65 18.25L304.6 18.25Q302.7 18.25 301.3 19.6 299.95 21 299.95 22.9L299.95 175.65Q299.95 177.6 301.3 178.95 302.7 180.3 304.6 180.3L408.65 180.3Q410.55 180.3 411.95 178.95 413.3 177.6 413.3 175.65L413.3 22.9Q413.3 21 411.95 19.6Z"/><animate attributeName="display" repeatCount="indefinite" dur="1s" keyTimes="0;.708;.717;1" values="none;inline;none;none"/></g><g display="none" id="Layer45_0_FILL"><path fill="#F2F4F6" stroke="none" d="M152 19.6Q150.6 18.25 148.7 18.25L44.7 18.25Q42.75 18.25 41.4 19.6 40.05 21 40.05 22.9L40.05 175.65Q40.05 177.6 41.4 178.95 42.75 180.3 44.7 180.3L148.7 180.3Q150.6 180.3 152 178.95 153.35 177.6 153.35 175.65L153.35 22.9Q153.35 21 152 19.6M540.6 19.6Q539.25 18.25 537.3 18.25L433.3 18.25Q431.4 18.25 430.05 19.6 428.7 21 428.7 22.9L428.7 175.65Q428.7 177.6 430.05 178.95 431.4 180.3 433.3 180.3L537.3 180.3Q539.25 180.3 540.6 178.95 541.95 177.6 541.95 175.65L541.95 22.9Q541.95 21 540.6 19.6Z"/><path fill="#DAE2E7" stroke="none" d="M281 19.6Q279.6 18.25 277.7 18.25L173.7 18.25Q171.75 18.25 170.4 19.6 169.05 21 169.05 22.9L169.05 175.65Q169.05 177.6 170.4 178.95 171.75 180.3 173.7 180.3L277.7 180.3Q279.6 180.3 281 178.95 282.35 177.6 282.35 175.65L282.35 22.9Q282.35 21 281 19.6Z"/><path fill="#EFF2F4" stroke="none" d="M410.85 19.6Q409.45 18.25 407.55 18.25L303.5 18.25Q301.6 18.25 300.2 19.6 298.85 21 298.85 22.9L298.85 175.65Q298.85 177.6 300.2 178.95 301.6 180.3 303.5 180.3L407.55 180.3Q409.45 180.3 410.85 178.95 412.2 177.6 412.2 175.65L412.2 22.9Q412.2 21 410.85 19.6Z"/><animate attributeName="display" repeatCount="indefinite" dur="1s" keyTimes="0;.7;.708;1" values="none;inline;none;none"/></g><g display="none" id="Layer44_0_FILL"><path fill="#F2F4F6" stroke="none" d="M150.85 19.6Q149.45 18.25 147.55 18.25L43.55 18.25Q41.6 18.25 40.25 19.6 38.9 21 38.9 22.9L38.9 175.65Q38.9 177.6 40.25 178.95 41.6 180.3 43.55 180.3L147.55 180.3Q149.45 180.3 150.85 178.95 152.2 177.6 152.2 175.65L152.2 22.9Q152.2 21 150.85 19.6M539.45 19.6Q538.1 18.25 536.15 18.25L432.15 18.25Q430.25 18.25 428.9 19.6 427.55 21 427.55 22.9L427.55 175.65Q427.55 177.6 428.9 178.95 430.25 180.3 432.15 180.3L536.15 180.3Q538.1 180.3 539.45 178.95 540.8 177.6 540.8 175.65L540.8 22.9Q540.8 21 539.45 19.6Z"/><path fill="#DAE2E7" stroke="none" d="M279.85 19.6Q278.45 18.25 276.55 18.25L172.55 18.25Q170.6 18.25 169.25 19.6 167.9 21 167.9 22.9L167.9 175.65Q167.9 177.6 169.25 178.95 170.6 180.3 172.55 180.3L276.55 180.3Q278.45 180.3 279.85 178.95 281.2 177.6 281.2 175.65L281.2 22.9Q281.2 21 279.85 19.6Z"/><path fill="#EFF2F4" stroke="none" d="M409.7 19.6Q408.3 18.25 406.4 18.25L302.35 18.25Q300.45 18.25 299.05 19.6 297.7 21 297.7 22.9L297.7 175.65Q297.7 177.6 299.05 178.95 300.45 180.3 302.35 180.3L406.4 180.3Q408.3 180.3 409.7 178.95 411.05 177.6 411.05 175.65L411.05 22.9Q411.05 21 409.7 19.6Z"/><animate attributeName="display" repeatCount="indefinite" dur="1s" keyTimes="0;.692;.7;1" values="none;inline;none;none"/></g><g display="none" id="Layer43_0_FILL"><path fill="#F2F4F6" stroke="none" d="M149.6 19.6Q148.2 18.25 146.3 18.25L42.3 18.25Q40.35 18.25 39 19.6 37.65 21 37.65 22.9L37.65 175.65Q37.65 177.6 39 178.95 40.35 180.3 42.3 180.3L146.3 180.3Q148.2 180.3 149.6 178.95 150.95 177.6 150.95 175.65L150.95 22.9Q150.95 21 149.6 19.6M538.2 19.6Q536.85 18.25 534.9 18.25L430.9 18.25Q429 18.25 427.65 19.6 426.3 21 426.3 22.9L426.3 175.65Q426.3 177.6 427.65 178.95 429 180.3 430.9 180.3L534.9 180.3Q536.85 180.3 538.2 178.95 539.55 177.6 539.55 175.65L539.55 22.9Q539.55 21 538.2 19.6Z"/><path fill="#DAE2E7" stroke="none" d="M278.6 19.6Q277.2 18.25 275.3 18.25L171.3 18.25Q169.35 18.25 168 19.6 166.65 21 166.65 22.9L166.65 175.65Q166.65 177.6 168 178.95 169.35 180.3 171.3 180.3L275.3 180.3Q277.2 180.3 278.6 178.95 279.95 177.6 279.95 175.65L279.95 22.9Q279.95 21 278.6 19.6Z"/><path fill="#EFF2F4" stroke="none" d="M408.45 19.6Q407.05 18.25 405.15 18.25L301.1 18.25Q299.2 18.25 297.8 19.6 296.45 21 296.45 22.9L296.45 175.65Q296.45 177.6 297.8 178.95 299.2 180.3 301.1 180.3L405.15 180.3Q407.05 180.3 408.45 178.95 409.8 177.6 409.8 175.65L409.8 22.9Q409.8 21 408.45 19.6Z"/><animate attributeName="display" repeatCount="indefinite" dur="1s" keyTimes="0;.683;.692;1" values="none;inline;none;none"/></g><g display="none" id="Layer42_0_FILL"><path fill="#F2F4F6" stroke="none" d="M148.3 19.6Q146.9 18.25 145 18.25L41 18.25Q39.05 18.25 37.7 19.6 36.35 21 36.35 22.9L36.35 175.65Q36.35 177.6 37.7 178.95 39.05 180.3 41 180.3L145 180.3Q146.9 180.3 148.3 178.95 149.65 177.6 149.65 175.65L149.65 22.9Q149.65 21 148.3 19.6M536.9 19.6Q535.55 18.25 533.6 18.25L429.6 18.25Q427.7 18.25 426.35 19.6 425 21 425 22.9L425 175.65Q425 177.6 426.35 178.95 427.7 180.3 429.6 180.3L533.6 180.3Q535.55 180.3 536.9 178.95 538.25 177.6 538.25 175.65L538.25 22.9Q538.25 21 536.9 19.6Z"/><path fill="#DBE3E7" stroke="none" d="M277.3 19.6Q275.9 18.25 274 18.25L170 18.25Q168.05 18.25 166.7 19.6 165.35 21 165.35 22.9L165.35 175.65Q165.35 177.6 166.7 178.95 168.05 180.3 170 180.3L274 180.3Q275.9 180.3 277.3 178.95 278.65 177.6 278.65 175.65L278.65 22.9Q278.65 21 277.3 19.6Z"/><path fill="#EEF1F4" stroke="none" d="M408.5 22.9Q408.5 21 407.15 19.6 405.75 18.25 403.85 18.25L299.8 18.25Q297.9 18.25 296.5 19.6 295.15 21 295.15 22.9L295.15 175.65Q295.15 177.6 296.5 178.95 297.9 180.3 299.8 180.3L403.85 180.3Q405.75 180.3 407.15 178.95 408.5 177.6 408.5 175.65L408.5 22.9Z"/><animate attributeName="display" repeatCount="indefinite" dur="1s" keyTimes="0;.675;.683;1" values="none;inline;none;none"/></g><g display="none" id="Layer41_0_FILL"><path fill="#F2F4F6" stroke="none" d="M146.9 19.6Q145.5 18.25 143.6 18.25L39.6 18.25Q37.65 18.25 36.3 19.6 34.95 21 34.95 22.9L34.95 175.65Q34.95 177.6 36.3 178.95 37.65 180.3 39.6 180.3L143.6 180.3Q145.5 180.3 146.9 178.95 148.25 177.6 148.25 175.65L148.25 22.9Q148.25 21 146.9 19.6M535.5 19.6Q534.15 18.25 532.2 18.25L428.2 18.25Q426.3 18.25 424.95 19.6 423.6 21 423.6 22.9L423.6 175.65Q423.6 177.6 424.95 178.95 426.3 180.3 428.2 180.3L532.2 180.3Q534.15 180.3 535.5 178.95 536.85 177.6 536.85 175.65L536.85 22.9Q536.85 21 535.5 19.6Z"/><path fill="#DBE3E7" stroke="none" d="M275.9 19.6Q274.5 18.25 272.6 18.25L168.6 18.25Q166.65 18.25 165.3 19.6 163.95 21 163.95 22.9L163.95 175.65Q163.95 177.6 165.3 178.95 166.65 180.3 168.6 180.3L272.6 180.3Q274.5 180.3 275.9 178.95 277.25 177.6 277.25 175.65L277.25 22.9Q277.25 21 275.9 19.6Z"/><path fill="#EEF1F4" stroke="none" d="M407.1 22.9Q407.1 21 405.75 19.6 404.35 18.25 402.45 18.25L298.4 18.25Q296.5 18.25 295.1 19.6 293.75 21 293.75 22.9L293.75 175.65Q293.75 177.6 295.1 178.95 296.5 180.3 298.4 180.3L402.45 180.3Q404.35 180.3 405.75 178.95 407.1 177.6 407.1 175.65L407.1 22.9Z"/><animate attributeName="display" repeatCount="indefinite" dur="1s" keyTimes="0;.667;.675;1" values="none;inline;none;none"/></g><g display="none" id="Layer40_0_FILL"><path fill="#F2F4F6" stroke="none" d="M145.5 19.6Q144.1 18.25 142.2 18.25L38.2 18.25Q36.25 18.25 34.9 19.6 33.55 21 33.55 22.9L33.55 175.65Q33.55 177.6 34.9 178.95 36.25 180.3 38.2 180.3L142.2 180.3Q144.1 180.3 145.5 178.95 146.85 177.6 146.85 175.65L146.85 22.9Q146.85 21 145.5 19.6M534.1 19.6Q532.75 18.25 530.8 18.25L426.8 18.25Q424.9 18.25 423.55 19.6 422.2 21 422.2 22.9L422.2 175.65Q422.2 177.6 423.55 178.95 424.9 180.3 426.8 180.3L530.8 180.3Q532.75 180.3 534.1 178.95 535.45 177.6 535.45 175.65L535.45 22.9Q535.45 21 534.1 19.6Z"/><path fill="#DBE3E8" stroke="none" d="M274.5 19.6Q273.1 18.25 271.2 18.25L167.2 18.25Q165.25 18.25 163.9 19.6 162.55 21 162.55 22.9L162.55 175.65Q162.55 177.6 163.9 178.95 165.25 180.3 167.2 180.3L271.2 180.3Q273.1 180.3 274.5 178.95 275.85 177.6 275.85 175.65L275.85 22.9Q275.85 21 274.5 19.6Z"/><path fill="#EEF1F3" stroke="none" d="M404.35 19.6Q402.95 18.25 401.05 18.25L297 18.25Q295.1 18.25 293.7 19.6 292.35 21 292.35 22.9L292.35 175.65Q292.35 177.6 293.7 178.95 295.1 180.3 297 180.3L401.05 180.3Q402.95 180.3 404.35 178.95 405.7 177.6 405.7 175.65L405.7 22.9Q405.7 21 404.35 19.6Z"/><animate attributeName="display" repeatCount="indefinite" dur="1s" keyTimes="0;.658;.667;1" values="none;inline;none;none"/></g><g display="none" id="Layer39_0_FILL"><path fill="#F2F4F6" stroke="none" d="M143.9 19.6Q142.5 18.25 140.6 18.25L36.6 18.25Q34.65 18.25 33.3 19.6 31.95 21 31.95 22.9L31.95 175.65Q31.95 177.6 33.3 178.95 34.65 180.3 36.6 180.3L140.6 180.3Q142.5 180.3 143.9 178.95 145.25 177.6 145.25 175.65L145.25 22.9Q145.25 21 143.9 19.6M532.5 19.6Q531.15 18.25 529.2 18.25L425.2 18.25Q423.3 18.25 421.95 19.6 420.6 21 420.6 22.9L420.6 175.65Q420.6 177.6 421.95 178.95 423.3 180.3 425.2 180.3L529.2 180.3Q531.15 180.3 532.5 178.95 533.85 177.6 533.85 175.65L533.85 22.9Q533.85 21 532.5 19.6Z"/><path fill="#DBE3E8" stroke="none" d="M272.9 19.6Q271.5 18.25 269.6 18.25L165.6 18.25Q163.65 18.25 162.3 19.6 160.95 21 160.95 22.9L160.95 175.65Q160.95 177.6 162.3 178.95 163.65 180.3 165.6 180.3L269.6 180.3Q271.5 180.3 272.9 178.95 274.25 177.6 274.25 175.65L274.25 22.9Q274.25 21 272.9 19.6Z"/><path fill="#EEF1F3" stroke="none" d="M402.75 19.6Q401.35 18.25 399.45 18.25L295.4 18.25Q293.5 18.25 292.1 19.6 290.75 21 290.75 22.9L290.75 175.65Q290.75 177.6 292.1 178.95 293.5 180.3 295.4 180.3L399.45 180.3Q401.35 180.3 402.75 178.95 404.1 177.6 404.1 175.65L404.1 22.9Q404.1 21 402.75 19.6Z"/><animate attributeName="display" repeatCount="indefinite" dur="1s" keyTimes="0;.65;.658;1" values="none;inline;none;none"/></g><g display="none" id="Layer38_0_FILL"><path fill="#F2F4F6" stroke="none" d="M142.35 19.6Q140.95 18.25 139.05 18.25L35.05 18.25Q33.1 18.25 31.75 19.6 30.4 21 30.4 22.9L30.4 175.65Q30.4 177.6 31.75 178.95 33.1 180.3 35.05 180.3L139.05 180.3Q140.95 180.3 142.35 178.95 143.7 177.6 143.7 175.65L143.7 22.9Q143.7 21 142.35 19.6M530.95 19.6Q529.6 18.25 527.65 18.25L423.65 18.25Q421.75 18.25 420.4 19.6 419.05 21 419.05 22.9L419.05 175.65Q419.05 177.6 420.4 178.95 421.75 180.3 423.65 180.3L527.65 180.3Q529.6 180.3 530.95 178.95 532.3 177.6 532.3 175.65L532.3 22.9Q532.3 21 530.95 19.6Z"/><path fill="#DCE4E8" stroke="none" d="M271.35 19.6Q269.95 18.25 268.05 18.25L164.05 18.25Q162.1 18.25 160.75 19.6 159.4 21 159.4 22.9L159.4 175.65Q159.4 177.6 160.75 178.95 162.1 180.3 164.05 180.3L268.05 180.3Q269.95 180.3 271.35 178.95 272.7 177.6 272.7 175.65L272.7 22.9Q272.7 21 271.35 19.6Z"/><path fill="#EDF0F3" stroke="none" d="M401.2 19.6Q399.8 18.25 397.9 18.25L293.85 18.25Q291.95 18.25 290.55 19.6 289.2 21 289.2 22.9L289.2 175.65Q289.2 177.6 290.55 178.95 291.95 180.3 293.85 180.3L397.9 180.3Q399.8 180.3 401.2 178.95 402.55 177.6 402.55 175.65L402.55 22.9Q402.55 21 401.2 19.6Z"/><animate attributeName="display" repeatCount="indefinite" dur="1s" keyTimes="0;.642;.65;1" values="none;inline;none;none"/></g><g display="none" id="Layer37_0_FILL"><path fill="#F2F4F6" stroke="none" d="M140.65 19.6Q139.25 18.25 137.35 18.25L33.35 18.25Q31.4 18.25 30.05 19.6 28.7 21 28.7 22.9L28.7 175.65Q28.7 177.6 30.05 178.95 31.4 180.3 33.35 180.3L137.35 180.3Q139.25 180.3 140.65 178.95 142 177.6 142 175.65L142 22.9Q142 21 140.65 19.6M530.6 22.9Q530.6 21 529.25 19.6 527.9 18.25 525.95 18.25L421.95 18.25Q420.05 18.25 418.7 19.6 417.35 21 417.35 22.9L417.35 175.65Q417.35 177.6 418.7 178.95 420.05 180.3 421.95 180.3L525.95 180.3Q527.9 180.3 529.25 178.95 530.6 177.6 530.6 175.65L530.6 22.9Z"/><path fill="#DCE4E8" stroke="none" d="M269.65 19.6Q268.25 18.25 266.35 18.25L162.35 18.25Q160.4 18.25 159.05 19.6 157.7 21 157.7 22.9L157.7 175.65Q157.7 177.6 159.05 178.95 160.4 180.3 162.35 180.3L266.35 180.3Q268.25 180.3 269.65 178.95 271 177.6 271 175.65L271 22.9Q271 21 269.65 19.6Z"/><path fill="#EDF0F3" stroke="none" d="M399.5 19.6Q398.1 18.25 396.2 18.25L292.15 18.25Q290.25 18.25 288.85 19.6 287.5 21 287.5 22.9L287.5 175.65Q287.5 177.6 288.85 178.95 290.25 180.3 292.15 180.3L396.2 180.3Q398.1 180.3 399.5 178.95 400.85 177.6 400.85 175.65L400.85 22.9Q400.85 21 399.5 19.6Z"/><animate attributeName="display" repeatCount="indefinite" dur="1s" keyTimes="0;.633;.642;1" values="none;inline;none;none"/></g><g display="none" id="Layer36_0_FILL"><path fill="#F2F4F6" stroke="none" d="M138.9 19.6Q137.5 18.25 135.6 18.25L31.6 18.25Q29.65 18.25 28.3 19.6 26.95 21 26.95 22.9L26.95 175.65Q26.95 177.6 28.3 178.95 29.65 180.3 31.6 180.3L135.6 180.3Q137.5 180.3 138.9 178.95 140.25 177.6 140.25 175.65L140.25 22.9Q140.25 21 138.9 19.6M528.85 22.9Q528.85 21 527.5 19.6 526.15 18.25 524.2 18.25L420.2 18.25Q418.3 18.25 416.95 19.6 415.6 21 415.6 22.9L415.6 175.65Q415.6 177.6 416.95 178.95 418.3 180.3 420.2 180.3L524.2 180.3Q526.15 180.3 527.5 178.95 528.85 177.6 528.85 175.65L528.85 22.9Z"/><path fill="#DCE4E8" stroke="none" d="M267.9 19.6Q266.5 18.25 264.6 18.25L160.6 18.25Q158.65 18.25 157.3 19.6 155.95 21 155.95 22.9L155.95 175.65Q155.95 177.6 157.3 178.95 158.65 180.3 160.6 180.3L264.6 180.3Q266.5 180.3 267.9 178.95 269.25 177.6 269.25 175.65L269.25 22.9Q269.25 21 267.9 19.6Z"/><path fill="#EDF0F3" stroke="none" d="M397.75 19.6Q396.35 18.25 394.45 18.25L290.4 18.25Q288.5 18.25 287.1 19.6 285.75 21 285.75 22.9L285.75 175.65Q285.75 177.6 287.1 178.95 288.5 180.3 290.4 180.3L394.45 180.3Q396.35 180.3 397.75 178.95 399.1 177.6 399.1 175.65L399.1 22.9Q399.1 21 397.75 19.6Z"/><animate attributeName="display" repeatCount="indefinite" dur="1s" keyTimes="0;.625;.633;1" values="none;inline;none;none"/></g><g display="none" id="Layer35_0_FILL"><path fill="#F2F4F6" stroke="none" d="M137.1 19.6Q135.7 18.25 133.8 18.25L29.8 18.25Q27.85 18.25 26.5 19.6 25.15 21 25.15 22.9L25.15 175.65Q25.15 177.6 26.5 178.95 27.85 180.3 29.8 180.3L133.8 180.3Q135.7 180.3 137.1 178.95 138.45 177.6 138.45 175.65L138.45 22.9Q138.45 21 137.1 19.6M525.7 19.6Q524.35 18.25 522.4 18.25L418.4 18.25Q416.5 18.25 415.15 19.6 413.8 21 413.8 22.9L413.8 175.65Q413.8 177.6 415.15 178.95 416.5 180.3 418.4 180.3L522.4 180.3Q524.35 180.3 525.7 178.95 527.05 177.6 527.05 175.65L527.05 22.9Q527.05 21 525.7 19.6Z"/><path fill="#DDE4E9" stroke="none" d="M266.1 19.6Q264.7 18.25 262.8 18.25L158.8 18.25Q156.85 18.25 155.5 19.6 154.15 21 154.15 22.9L154.15 175.65Q154.15 177.6 155.5 178.95 156.85 180.3 158.8 180.3L262.8 180.3Q264.7 180.3 266.1 178.95 267.45 177.6 267.45 175.65L267.45 22.9Q267.45 21 266.1 19.6Z"/><path fill="#ECF0F2" stroke="none" d="M395.95 19.6Q394.55 18.25 392.65 18.25L288.6 18.25Q286.7 18.25 285.3 19.6 283.95 21 283.95 22.9L283.95 175.65Q283.95 177.6 285.3 178.95 286.7 180.3 288.6 180.3L392.65 180.3Q394.55 180.3 395.95 178.95 397.3 177.6 397.3 175.65L397.3 22.9Q397.3 21 395.95 19.6Z"/><animate attributeName="display" repeatCount="indefinite" dur="1s" keyTimes="0;.617;.625;1" values="none;inline;none;none"/></g><g display="none" id="Layer34_0_FILL"><path fill="#F2F4F6" stroke="none" d="M135.15 19.6Q133.75 18.25 131.85 18.25L27.85 18.25Q25.9 18.25 24.55 19.6 23.2 21 23.2 22.9L23.2 175.65Q23.2 177.6 24.55 178.95 25.9 180.3 27.85 180.3L131.85 180.3Q133.75 180.3 135.15 178.95 136.5 177.6 136.5 175.65L136.5 22.9Q136.5 21 135.15 19.6M523.75 19.6Q522.4 18.25 520.45 18.25L416.45 18.25Q414.55 18.25 413.2 19.6 411.85 21 411.85 22.9L411.85 175.65Q411.85 177.6 413.2 178.95 414.55 180.3 416.45 180.3L520.45 180.3Q522.4 180.3 523.75 178.95 525.1 177.6 525.1 175.65L525.1 22.9Q525.1 21 523.75 19.6Z"/><path fill="#DDE5E9" stroke="none" d="M264.15 19.6Q262.75 18.25 260.85 18.25L156.85 18.25Q154.9 18.25 153.55 19.6 152.2 21 152.2 22.9L152.2 175.65Q152.2 177.6 153.55 178.95 154.9 180.3 156.85 180.3L260.85 180.3Q262.75 180.3 264.15 178.95 265.5 177.6 265.5 175.65L265.5 22.9Q265.5 21 264.15 19.6Z"/><path fill="#ECEFF2" stroke="none" d="M394 19.6Q392.6 18.25 390.7 18.25L286.65 18.25Q284.75 18.25 283.35 19.6 282 21 282 22.9L282 175.65Q282 177.6 283.35 178.95 284.75 180.3 286.65 180.3L390.7 180.3Q392.6 180.3 394 178.95 395.35 177.6 395.35 175.65L395.35 22.9Q395.35 21 394 19.6Z"/><animate attributeName="display" repeatCount="indefinite" dur="1s" keyTimes="0;.608;.617;1" values="none;inline;none;none"/></g><g display="none" id="Layer33_0_FILL"><path fill="#F2F4F6" stroke="none" d="M133.15 19.6Q131.75 18.25 129.85 18.25L25.85 18.25Q23.9 18.25 22.55 19.6 21.2 21 21.2 22.9L21.2 175.65Q21.2 177.6 22.55 178.95 23.9 180.3 25.85 180.3L129.85 180.3Q131.75 180.3 133.15 178.95 134.5 177.6 134.5 175.65L134.5 22.9Q134.5 21 133.15 19.6M521.75 19.6Q520.4 18.25 518.45 18.25L414.45 18.25Q412.55 18.25 411.2 19.6 409.85 21 409.85 22.9L409.85 175.65Q409.85 177.6 411.2 178.95 412.55 180.3 414.45 180.3L518.45 180.3Q520.4 180.3 521.75 178.95 523.1 177.6 523.1 175.65L523.1 22.9Q523.1 21 521.75 19.6Z"/><path fill="#DEE5E9" stroke="none" d="M262.15 19.6Q260.75 18.25 258.85 18.25L154.85 18.25Q152.9 18.25 151.55 19.6 150.2 21 150.2 22.9L150.2 175.65Q150.2 177.6 151.55 178.95 152.9 180.3 154.85 180.3L258.85 180.3Q260.75 180.3 262.15 178.95 263.5 177.6 263.5 175.65L263.5 22.9Q263.5 21 262.15 19.6Z"/><path fill="#EBEFF2" stroke="none" d="M392 19.6Q390.6 18.25 388.7 18.25L284.65 18.25Q282.75 18.25 281.35 19.6 280 21 280 22.9L280 175.65Q280 177.6 281.35 178.95 282.75 180.3 284.65 180.3L388.7 180.3Q390.6 180.3 392 178.95 393.35 177.6 393.35 175.65L393.35 22.9Q393.35 21 392 19.6Z"/><animate attributeName="display" repeatCount="indefinite" dur="1s" keyTimes="0;.6;.608;1" values="none;inline;none;none"/></g><g display="none" id="Layer32_0_FILL"><path fill="#F2F4F6" stroke="none" d="M131.1 19.6Q129.7 18.25 127.8 18.25L23.8 18.25Q21.85 18.25 20.5 19.6 19.15 21 19.15 22.9L19.15 175.65Q19.15 177.6 20.5 178.95 21.85 180.3 23.8 180.3L127.8 180.3Q129.7 180.3 131.1 178.95 132.45 177.6 132.45 175.65L132.45 22.9Q132.45 21 131.1 19.6M519.7 19.6Q518.35 18.25 516.4 18.25L412.4 18.25Q410.5 18.25 409.15 19.6 407.8 21 407.8 22.9L407.8 175.65Q407.8 177.6 409.15 178.95 410.5 180.3 412.4 180.3L516.4 180.3Q518.35 180.3 519.7 178.95 521.05 177.6 521.05 175.65L521.05 22.9Q521.05 21 519.7 19.6Z"/><path fill="#DEE5E9" stroke="none" d="M260.1 19.6Q258.7 18.25 256.8 18.25L152.8 18.25Q150.85 18.25 149.5 19.6 148.15 21 148.15 22.9L148.15 175.65Q148.15 177.6 149.5 178.95 150.85 180.3 152.8 180.3L256.8 180.3Q258.7 180.3 260.1 178.95 261.45 177.6 261.45 175.65L261.45 22.9Q261.45 21 260.1 19.6Z"/><path fill="#EBEFF2" stroke="none" d="M389.95 19.6Q388.55 18.25 386.65 18.25L282.6 18.25Q280.7 18.25 279.3 19.6 277.95 21 277.95 22.9L277.95 175.65Q277.95 177.6 279.3 178.95 280.7 180.3 282.6 180.3L386.65 180.3Q388.55 180.3 389.95 178.95 391.3 177.6 391.3 175.65L391.3 22.9Q391.3 21 389.95 19.6Z"/><animate attributeName="display" repeatCount="indefinite" dur="1s" keyTimes="0;.592;.6;1" values="none;inline;none;none"/></g><g display="none" id="Layer31_0_FILL"><path fill="#F2F4F6" stroke="none" d="M128.9 19.6Q127.5 18.25 125.6 18.25L21.6 18.25Q19.65 18.25 18.3 19.6 16.95 21 16.95 22.9L16.95 175.65Q16.95 177.6 18.3 178.95 19.65 180.3 21.6 180.3L125.6 180.3Q127.5 180.3 128.9 178.95 130.25 177.6 130.25 175.65L130.25 22.9Q130.25 21 128.9 19.6M517.5 19.6Q516.15 18.25 514.2 18.25L410.2 18.25Q408.3 18.25 406.95 19.6 405.6 21 405.6 22.9L405.6 175.65Q405.6 177.6 406.95 178.95 408.3 180.3 410.2 180.3L514.2 180.3Q516.15 180.3 517.5 178.95 518.85 177.6 518.85 175.65L518.85 22.9Q518.85 21 517.5 19.6Z"/><path fill="#DFE6EA" stroke="none" d="M257.9 19.6Q256.5 18.25 254.6 18.25L150.6 18.25Q148.65 18.25 147.3 19.6 145.95 21 145.95 22.9L145.95 175.65Q145.95 177.6 147.3 178.95 148.65 180.3 150.6 180.3L254.6 180.3Q256.5 180.3 257.9 178.95 259.25 177.6 259.25 175.65L259.25 22.9Q259.25 21 257.9 19.6Z"/><path fill="#EAEEF1" stroke="none" d="M387.75 19.6Q386.35 18.25 384.45 18.25L280.4 18.25Q278.5 18.25 277.1 19.6 275.75 21 275.75 22.9L275.75 175.65Q275.75 177.6 277.1 178.95 278.5 180.3 280.4 180.3L384.45 180.3Q386.35 180.3 387.75 178.95 389.1 177.6 389.1 175.65L389.1 22.9Q389.1 21 387.75 19.6Z"/><animate attributeName="display" repeatCount="indefinite" dur="1s" keyTimes="0;.583;.592;1" values="none;inline;none;none"/></g><g display="none" id="Layer30_0_FILL"><path fill="#F2F4F6" stroke="none" d="M126.6 19.6Q125.2 18.25 123.3 18.25L19.3 18.25Q17.35 18.25 16 19.6 14.65 21 14.65 22.9L14.65 175.65Q14.65 177.6 16 178.95 17.35 180.3 19.3 180.3L123.3 180.3Q125.2 180.3 126.6 178.95 127.95 177.6 127.95 175.65L127.95 22.9Q127.95 21 126.6 19.6M515.2 19.6Q513.85 18.25 511.9 18.25L407.9 18.25Q406 18.25 404.65 19.6 403.3 21 403.3 22.9L403.3 175.65Q403.3 177.6 404.65 178.95 406 180.3 407.9 180.3L511.9 180.3Q513.85 180.3 515.2 178.95 516.55 177.6 516.55 175.65L516.55 22.9Q516.55 21 515.2 19.6Z"/><path fill="#DFE6EA" stroke="none" d="M255.6 19.6Q254.2 18.25 252.3 18.25L148.3 18.25Q146.35 18.25 145 19.6 143.65 21 143.65 22.9L143.65 175.65Q143.65 177.6 145 178.95 146.35 180.3 148.3 180.3L252.3 180.3Q254.2 180.3 255.6 178.95 256.95 177.6 256.95 175.65L256.95 22.9Q256.95 21 255.6 19.6Z"/><path fill="#EAEEF1" stroke="none" d="M385.45 19.6Q384.05 18.25 382.15 18.25L278.1 18.25Q276.2 18.25 274.8 19.6 273.45 21 273.45 22.9L273.45 175.65Q273.45 177.6 274.8 178.95 276.2 180.3 278.1 180.3L382.15 180.3Q384.05 180.3 385.45 178.95 386.8 177.6 386.8 175.65L386.8 22.9Q386.8 21 385.45 19.6Z"/><animate attributeName="display" repeatCount="indefinite" dur="1s" keyTimes="0;.575;.583;1" values="none;inline;none;none"/></g><g display="none" id="Layer29_0_FILL"><path fill="#F2F4F6" stroke="none" d="M125.65 22.9Q125.65 21 124.3 19.6 122.9 18.25 121 18.25L17 18.25Q15.05 18.25 13.7 19.6 12.35 21 12.35 22.9L12.35 175.65Q12.35 177.6 13.7 178.95 15.05 180.3 17 180.3L121 180.3Q122.9 180.3 124.3 178.95 125.65 177.6 125.65 175.65L125.65 22.9M512.9 19.6Q511.55 18.25 509.6 18.25L405.6 18.25Q403.7 18.25 402.35 19.6 401 21 401 22.9L401 175.65Q401 177.6 402.35 178.95 403.7 180.3 405.6 180.3L509.6 180.3Q511.55 180.3 512.9 178.95 514.25 177.6 514.25 175.65L514.25 22.9Q514.25 21 512.9 19.6Z"/><path fill="#DFE6EA" stroke="none" d="M253.3 19.6Q251.9 18.25 250 18.25L146 18.25Q144.05 18.25 142.7 19.6 141.35 21 141.35 22.9L141.35 175.65Q141.35 177.6 142.7 178.95 144.05 180.3 146 180.3L250 180.3Q251.9 180.3 253.3 178.95 254.65 177.6 254.65 175.65L254.65 22.9Q254.65 21 253.3 19.6Z"/><path fill="#EAEEF1" stroke="none" d="M383.15 19.6Q381.75 18.25 379.85 18.25L275.8 18.25Q273.9 18.25 272.5 19.6 271.15 21 271.15 22.9L271.15 175.65Q271.15 177.6 272.5 178.95 273.9 180.3 275.8 180.3L379.85 180.3Q381.75 180.3 383.15 178.95 384.5 177.6 384.5 175.65L384.5 22.9Q384.5 21 383.15 19.6Z"/><animate attributeName="display" repeatCount="indefinite" dur="1s" keyTimes="0;.567;.575;1" values="none;inline;none;none"/></g><g display="none" id="Layer28_0_FILL"><path fill="#F2F4F6" stroke="none" d="M123.2 22.9Q123.2 21 121.85 19.6 120.45 18.25 118.55 18.25L14.55 18.25Q12.6 18.25 11.25 19.6 9.9 21 9.9 22.9L9.9 175.65Q9.9 177.6 11.25 178.95 12.6 180.3 14.55 180.3L118.55 180.3Q120.45 180.3 121.85 178.95 123.2 177.6 123.2 175.65L123.2 22.9M510.45 19.6Q509.1 18.25 507.15 18.25L403.15 18.25Q401.25 18.25 399.9 19.6 398.55 21 398.55 22.9L398.55 175.65Q398.55 177.6 399.9 178.95 401.25 180.3 403.15 180.3L507.15 180.3Q509.1 180.3 510.45 178.95 511.8 177.6 511.8 175.65L511.8 22.9Q511.8 21 510.45 19.6Z"/><path fill="#E0E7EB" stroke="none" d="M250.85 19.6Q249.45 18.25 247.55 18.25L143.55 18.25Q141.6 18.25 140.25 19.6 138.9 21 138.9 22.9L138.9 175.65Q138.9 177.6 140.25 178.95 141.6 180.3 143.55 180.3L247.55 180.3Q249.45 180.3 250.85 178.95 252.2 177.6 252.2 175.65L252.2 22.9Q252.2 21 250.85 19.6Z"/><path fill="#E9EDF0" stroke="none" d="M380.7 19.6Q379.3 18.25 377.4 18.25L273.35 18.25Q271.45 18.25 270.05 19.6 268.7 21 268.7 22.9L268.7 175.65Q268.7 177.6 270.05 178.95 271.45 180.3 273.35 180.3L377.4 180.3Q379.3 180.3 380.7 178.95 382.05 177.6 382.05 175.65L382.05 22.9Q382.05 21 380.7 19.6Z"/><animate attributeName="display" repeatCount="indefinite" dur="1s" keyTimes="0;.558;.567;1" values="none;inline;none;none"/></g><g display="none" id="Layer27_0_FILL"><path fill="#F2F4F6" stroke="none" d="M119.3 19.6Q117.9 18.25 116 18.25L12 18.25Q10.05 18.25 8.7 19.6 7.35 21 7.35 22.9L7.35 175.65Q7.35 177.6 8.7 178.95 10.05 180.3 12 180.3L116 180.3Q117.9 180.3 119.3 178.95 120.65 177.6 120.65 175.65L120.65 22.9Q120.65 21 119.3 19.6M507.9 19.6Q506.55 18.25 504.6 18.25L400.6 18.25Q398.7 18.25 397.35 19.6 396 21 396 22.9L396 175.65Q396 177.6 397.35 178.95 398.7 180.3 400.6 180.3L504.6 180.3Q506.55 180.3 507.9 178.95 509.25 177.6 509.25 175.65L509.25 22.9Q509.25 21 507.9 19.6Z"/><path fill="#E1E7EB" stroke="none" d="M248.3 19.6Q246.9 18.25 245 18.25L141 18.25Q139.05 18.25 137.7 19.6 136.35 21 136.35 22.9L136.35 175.65Q136.35 177.6 137.7 178.95 139.05 180.3 141 180.3L245 180.3Q246.9 180.3 248.3 178.95 249.65 177.6 249.65 175.65L249.65 22.9Q249.65 21 248.3 19.6Z"/><path fill="#E8EDF0" stroke="none" d="M378.15 19.6Q376.75 18.25 374.85 18.25L270.8 18.25Q268.9 18.25 267.5 19.6 266.15 21 266.15 22.9L266.15 175.65Q266.15 177.6 267.5 178.95 268.9 180.3 270.8 180.3L374.85 180.3Q376.75 180.3 378.15 178.95 379.5 177.6 379.5 175.65L379.5 22.9Q379.5 21 378.15 19.6Z"/><animate attributeName="display" repeatCount="indefinite" dur="1s" keyTimes="0;.55;.558;1" values="none;inline;none;none"/></g><g display="none" id="Layer26_0_FILL"><path fill="#F2F4F6" stroke="none" d="M116.65 19.6Q115.25 18.25 113.35 18.25L9.35 18.25Q7.4 18.25 6.05 19.6 4.7 21 4.7 22.9L4.7 175.65Q4.7 177.6 6.05 178.95 7.4 180.3 9.35 180.3L113.35 180.3Q115.25 180.3 116.65 178.95 118 177.6 118 175.65L118 22.9Q118 21 116.65 19.6M505.25 19.6Q503.9 18.25 501.95 18.25L397.95 18.25Q396.05 18.25 394.7 19.6 393.35 21 393.35 22.9L393.35 175.65Q393.35 177.6 394.7 178.95 396.05 180.3 397.95 180.3L501.95 180.3Q503.9 180.3 505.25 178.95 506.6 177.6 506.6 175.65L506.6 22.9Q506.6 21 505.25 19.6Z"/><path fill="#E1E7EB" stroke="none" d="M247 22.9Q247 21 245.65 19.6 244.25 18.25 242.35 18.25L138.35 18.25Q136.4 18.25 135.05 19.6 133.7 21 133.7 22.9L133.7 175.65Q133.7 177.6 135.05 178.95 136.4 180.3 138.35 180.3L242.35 180.3Q244.25 180.3 245.65 178.95 247 177.6 247 175.65L247 22.9Z"/><path fill="#E8EDF0" stroke="none" d="M375.5 19.6Q374.1 18.25 372.2 18.25L268.15 18.25Q266.25 18.25 264.85 19.6 263.5 21 263.5 22.9L263.5 175.65Q263.5 177.6 264.85 178.95 266.25 180.3 268.15 180.3L372.2 180.3Q374.1 180.3 375.5 178.95 376.85 177.6 376.85 175.65L376.85 22.9Q376.85 21 375.5 19.6Z"/><animate attributeName="display" repeatCount="indefinite" dur="1s" keyTimes="0;.542;.55;1" values="none;inline;none;none"/></g><g display="none" id="Layer25_0_FILL"><path fill="#F2F4F6" stroke="none" d="M113.9 19.6Q112.5 18.25 110.6 18.25L6.6 18.25Q4.65 18.25 3.3 19.6 1.95 21 1.95 22.9L1.95 175.65Q1.95 177.6 3.3 178.95 4.65 180.3 6.6 180.3L110.6 180.3Q112.5 180.3 113.9 178.95 115.25 177.6 115.25 175.65L115.25 22.9Q115.25 21 113.9 19.6M502.5 19.6Q501.15 18.25 499.2 18.25L395.2 18.25Q393.3 18.25 391.95 19.6 390.6 21 390.6 22.9L390.6 175.65Q390.6 177.6 391.95 178.95 393.3 180.3 395.2 180.3L499.2 180.3Q501.15 180.3 502.5 178.95 503.85 177.6 503.85 175.65L503.85 22.9Q503.85 21 502.5 19.6Z"/><path fill="#E2E8EC" stroke="none" d="M242.9 19.6Q241.5 18.25 239.6 18.25L135.6 18.25Q133.65 18.25 132.3 19.6 130.95 21 130.95 22.9L130.95 175.65Q130.95 177.6 132.3 178.95 133.65 180.3 135.6 180.3L239.6 180.3Q241.5 180.3 242.9 178.95 244.25 177.6 244.25 175.65L244.25 22.9Q244.25 21 242.9 19.6Z"/><path fill="#E7ECEF" stroke="none" d="M372.75 19.6Q371.35 18.25 369.45 18.25L265.4 18.25Q263.5 18.25 262.1 19.6 260.75 21 260.75 22.9L260.75 175.65Q260.75 177.6 262.1 178.95 263.5 180.3 265.4 180.3L369.45 180.3Q371.35 180.3 372.75 178.95 374.1 177.6 374.1 175.65L374.1 22.9Q374.1 21 372.75 19.6Z"/><animate attributeName="display" repeatCount="indefinite" dur="1s" keyTimes="0;.533;.542;1" values="none;inline;none;none"/></g><g display="none" id="Layer24_0_FILL"><path fill="#F2F4F6" stroke="none" d="M111.05 19.6Q109.65 18.25 107.75 18.25L3.75 18.25Q1.8 18.25 .45 19.6 -.9 21 -.9 22.9L-.9 175.65Q-.9 177.6 .45 178.95 1.8 180.3 3.75 180.3L107.75 180.3Q109.65 180.3 111.05 178.95 112.4 177.6 112.4 175.65L112.4 22.9Q112.4 21 111.05 19.6M499.65 19.6Q498.3 18.25 496.35 18.25L392.35 18.25Q390.45 18.25 389.1 19.6 387.75 21 387.75 22.9L387.75 175.65Q387.75 177.6 389.1 178.95 390.45 180.3 392.35 180.3L496.35 180.3Q498.3 180.3 499.65 178.95 501 177.6 501 175.65L501 22.9Q501 21 499.65 19.6Z"/><path fill="#E2E8EC" stroke="none" d="M240.05 19.6Q238.65 18.25 236.75 18.25L132.75 18.25Q130.8 18.25 129.45 19.6 128.1 21 128.1 22.9L128.1 175.65Q128.1 177.6 129.45 178.95 130.8 180.3 132.75 180.3L236.75 180.3Q238.65 180.3 240.05 178.95 241.4 177.6 241.4 175.65L241.4 22.9Q241.4 21 240.05 19.6Z"/><path fill="#E7ECEF" stroke="none" d="M369.9 19.6Q368.5 18.25 366.6 18.25L262.55 18.25Q260.65 18.25 259.25 19.6 257.9 21 257.9 22.9L257.9 175.65Q257.9 177.6 259.25 178.95 260.65 180.3 262.55 180.3L366.6 180.3Q368.5 180.3 369.9 178.95 371.25 177.6 371.25 175.65L371.25 22.9Q371.25 21 369.9 19.6Z"/><animate attributeName="display" repeatCount="indefinite" dur="1s" keyTimes="0;.525;.533;1" values="none;inline;none;none"/></g><g display="none" id="Layer23_0_FILL"><path fill="#F2F4F6" stroke="none" d="M108.05 19.6Q106.65 18.25 104.75 18.25L.75 18.25Q-1.2 18.25 -2.55 19.6 -3.9 21 -3.9 22.9L-3.9 175.65Q-3.9 177.6 -2.55 178.95 -1.2 180.3 .75 180.3L104.75 180.3Q106.65 180.3 108.05 178.95 109.4 177.6 109.4 175.65L109.4 22.9Q109.4 21 108.05 19.6M496.65 19.6Q495.3 18.25 493.35 18.25L389.35 18.25Q387.45 18.25 386.1 19.6 384.75 21 384.75 22.9L384.75 175.65Q384.75 177.6 386.1 178.95 387.45 180.3 389.35 180.3L493.35 180.3Q495.3 180.3 496.65 178.95 498 177.6 498 175.65L498 22.9Q498 21 496.65 19.6Z"/><path fill="#E3E9EC" stroke="none" d="M237.05 19.6Q235.65 18.25 233.75 18.25L129.75 18.25Q127.8 18.25 126.45 19.6 125.1 21 125.1 22.9L125.1 175.65Q125.1 177.6 126.45 178.95 127.8 180.3 129.75 180.3L233.75 180.3Q235.65 180.3 237.05 178.95 238.4 177.6 238.4 175.65L238.4 22.9Q238.4 21 237.05 19.6Z"/><path fill="#E6EBEF" stroke="none" d="M368.25 22.9Q368.25 21 366.9 19.6 365.5 18.25 363.6 18.25L259.55 18.25Q257.65 18.25 256.25 19.6 254.9 21 254.9 22.9L254.9 175.65Q254.9 177.6 256.25 178.95 257.65 180.3 259.55 180.3L363.6 180.3Q365.5 180.3 366.9 178.95 368.25 177.6 368.25 175.65L368.25 22.9Z"/><animate attributeName="display" repeatCount="indefinite" dur="1s" keyTimes="0;.517;.525;1" values="none;inline;none;none"/></g><g display="none" id="Layer22_0_FILL"><path fill="#F2F4F6" stroke="none" d="M105 19.6Q103.6 18.25 101.7 18.25L-2.3 18.25Q-4.25 18.25 -5.6 19.6 -6.95 21 -6.95 22.9L-6.95 175.65Q-6.95 177.6 -5.6 178.95 -4.25 180.3 -2.3 180.3L101.7 180.3Q103.6 180.3 105 178.95 106.35 177.6 106.35 175.65L106.35 22.9Q106.35 21 105 19.6M493.6 19.6Q492.25 18.25 490.3 18.25L386.3 18.25Q384.4 18.25 383.05 19.6 381.7 21 381.7 22.9L381.7 175.65Q381.7 177.6 383.05 178.95 384.4 180.3 386.3 180.3L490.3 180.3Q492.25 180.3 493.6 178.95 494.95 177.6 494.95 175.65L494.95 22.9Q494.95 21 493.6 19.6Z"/><path fill="#E3E9ED" stroke="none" d="M234 19.6Q232.6 18.25 230.7 18.25L126.7 18.25Q124.75 18.25 123.4 19.6 122.05 21 122.05 22.9L122.05 175.65Q122.05 177.6 123.4 178.95 124.75 180.3 126.7 180.3L230.7 180.3Q232.6 180.3 234 178.95 235.35 177.6 235.35 175.65L235.35 22.9Q235.35 21 234 19.6Z"/><path fill="#E6EBEE" stroke="none" d="M363.85 19.6Q362.45 18.25 360.55 18.25L256.5 18.25Q254.6 18.25 253.2 19.6 251.85 21 251.85 22.9L251.85 175.65Q251.85 177.6 253.2 178.95 254.6 180.3 256.5 180.3L360.55 180.3Q362.45 180.3 363.85 178.95 365.2 177.6 365.2 175.65L365.2 22.9Q365.2 21 363.85 19.6Z"/><animate attributeName="display" repeatCount="indefinite" dur="1s" keyTimes="0;.508;.517;1" values="none;inline;none;none"/></g><g display="none" id="Layer21_0_FILL"><path fill="#F2F4F6" stroke="none" d="M101.8 19.6Q100.4 18.25 98.5 18.25L-5.5 18.25Q-7.45 18.25 -8.8 19.6 -10.15 21 -10.15 22.9L-10.15 175.65Q-10.15 177.6 -8.8 178.95 -7.45 180.3 -5.5 180.3L98.5 180.3Q100.4 180.3 101.8 178.95 103.15 177.6 103.15 175.65L103.15 22.9Q103.15 21 101.8 19.6M490.4 19.6Q489.05 18.25 487.1 18.25L383.1 18.25Q381.2 18.25 379.85 19.6 378.5 21 378.5 22.9L378.5 175.65Q378.5 177.6 379.85 178.95 381.2 180.3 383.1 180.3L487.1 180.3Q489.05 180.3 490.4 178.95 491.75 177.6 491.75 175.65L491.75 22.9Q491.75 21 490.4 19.6Z"/><path fill="#E4EAED" stroke="none" d="M230.8 19.6Q229.4 18.25 227.5 18.25L123.5 18.25Q121.55 18.25 120.2 19.6 118.85 21 118.85 22.9L118.85 175.65Q118.85 177.6 120.2 178.95 121.55 180.3 123.5 180.3L227.5 180.3Q229.4 180.3 230.8 178.95 232.15 177.6 232.15 175.65L232.15 22.9Q232.15 21 230.8 19.6Z"/><path fill="#E5EAEE" stroke="none" d="M360.65 19.6Q359.25 18.25 357.35 18.25L253.3 18.25Q251.4 18.25 250 19.6 248.65 21 248.65 22.9L248.65 175.65Q248.65 177.6 250 178.95 251.4 180.3 253.3 180.3L357.35 180.3Q359.25 180.3 360.65 178.95 362 177.6 362 175.65L362 22.9Q362 21 360.65 19.6Z"/><animate attributeName="display" repeatCount="indefinite" dur="1s" keyTimes="0;.5;.508;1" values="none;inline;none;none"/></g><g display="none" id="Layer20_0_FILL"><path fill="#F2F4F6" stroke="none" d="M98.55 19.6Q97.15 18.25 95.25 18.25L-8.75 18.25Q-10.7 18.25 -12.05 19.6 -13.4 21 -13.4 22.9L-13.4 175.65Q-13.4 177.6 -12.05 178.95 -10.7 180.3 -8.75 180.3L95.25 180.3Q97.15 180.3 98.55 178.95 99.9 177.6 99.9 175.65L99.9 22.9Q99.9 21 98.55 19.6M488.5 22.9Q488.5 21 487.15 19.6 485.8 18.25 483.85 18.25L379.85 18.25Q377.95 18.25 376.6 19.6 375.25 21 375.25 22.9L375.25 175.65Q375.25 177.6 376.6 178.95 377.95 180.3 379.85 180.3L483.85 180.3Q485.8 180.3 487.15 178.95 488.5 177.6 488.5 175.65L488.5 22.9Z"/><path fill="#E5EAEE" stroke="none" d="M227.55 19.6Q226.15 18.25 224.25 18.25L120.25 18.25Q118.3 18.25 116.95 19.6 115.6 21 115.6 22.9L115.6 175.65Q115.6 177.6 116.95 178.95 118.3 180.3 120.25 180.3L224.25 180.3Q226.15 180.3 227.55 178.95 228.9 177.6 228.9 175.65L228.9 22.9Q228.9 21 227.55 19.6Z"/><path fill="#E4EAED" stroke="none" d="M357.4 19.6Q356 18.25 354.1 18.25L250.05 18.25Q248.15 18.25 246.75 19.6 245.4 21 245.4 22.9L245.4 175.65Q245.4 177.6 246.75 178.95 248.15 180.3 250.05 180.3L354.1 180.3Q356 180.3 357.4 178.95 358.75 177.6 358.75 175.65L358.75 22.9Q358.75 21 357.4 19.6Z"/><animate attributeName="display" repeatCount="indefinite" dur="1s" keyTimes="0;.492;.5;1" values="none;inline;none;none"/></g><g display="none" id="Layer19_0_FILL"><path fill="#F2F4F6" stroke="none" d="M95.15 19.6Q93.75 18.25 91.85 18.25L-12.15 18.25Q-14.1 18.25 -15.45 19.6 -16.8 21 -16.8 22.9L-16.8 175.65Q-16.8 177.6 -15.45 178.95 -14.1 180.3 -12.15 180.3L91.85 180.3Q93.75 180.3 95.15 178.95 96.5 177.6 96.5 175.65L96.5 22.9Q96.5 21 95.15 19.6M483.75 19.6Q482.4 18.25 480.45 18.25L376.45 18.25Q374.55 18.25 373.2 19.6 371.85 21 371.85 22.9L371.85 175.65Q371.85 177.6 373.2 178.95 374.55 180.3 376.45 180.3L480.45 180.3Q482.4 180.3 483.75 178.95 485.1 177.6 485.1 175.65L485.1 22.9Q485.1 21 483.75 19.6Z"/><path fill="#E6EBEE" stroke="none" d="M224.15 19.6Q222.75 18.25 220.85 18.25L116.85 18.25Q114.9 18.25 113.55 19.6 112.2 21 112.2 22.9L112.2 175.65Q112.2 177.6 113.55 178.95 114.9 180.3 116.85 180.3L220.85 180.3Q222.75 180.3 224.15 178.95 225.5 177.6 225.5 175.65L225.5 22.9Q225.5 21 224.15 19.6Z"/><path fill="#E3E9ED" stroke="none" d="M354 19.6Q352.6 18.25 350.7 18.25L246.65 18.25Q244.75 18.25 243.35 19.6 242 21 242 22.9L242 175.65Q242 177.6 243.35 178.95 244.75 180.3 246.65 180.3L350.7 180.3Q352.6 180.3 354 178.95 355.35 177.6 355.35 175.65L355.35 22.9Q355.35 21 354 19.6Z"/><animate attributeName="display" repeatCount="indefinite" dur="1s" keyTimes="0;.483;.492;1" values="none;inline;none;none"/></g><g display="none" id="Layer18_0_FILL"><path fill="#F2F4F6" stroke="none" d="M91.65 19.6Q90.25 18.25 88.35 18.25L-15.65 18.25Q-17.6 18.25 -18.95 19.6 -20.3 21 -20.3 22.9L-20.3 175.65Q-20.3 177.6 -18.95 178.95 -17.6 180.3 -15.65 180.3L88.35 180.3Q90.25 180.3 91.65 178.95 93 177.6 93 175.65L93 22.9Q93 21 91.65 19.6M480.25 19.6Q478.9 18.25 476.95 18.25L372.95 18.25Q371.05 18.25 369.7 19.6 368.35 21 368.35 22.9L368.35 175.65Q368.35 177.6 369.7 178.95 371.05 180.3 372.95 180.3L476.95 180.3Q478.9 180.3 480.25 178.95 481.6 177.6 481.6 175.65L481.6 22.9Q481.6 21 480.25 19.6Z"/><path fill="#E6EBEF" stroke="none" d="M220.65 19.6Q219.25 18.25 217.35 18.25L113.35 18.25Q111.4 18.25 110.05 19.6 108.7 21 108.7 22.9L108.7 175.65Q108.7 177.6 110.05 178.95 111.4 180.3 113.35 180.3L217.35 180.3Q219.25 180.3 220.65 178.95 222 177.6 222 175.65L222 22.9Q222 21 220.65 19.6Z"/><path fill="#E3E9EC" stroke="none" d="M350.5 19.6Q349.1 18.25 347.2 18.25L243.15 18.25Q241.25 18.25 239.85 19.6 238.5 21 238.5 22.9L238.5 175.65Q238.5 177.6 239.85 178.95 241.25 180.3 243.15 180.3L347.2 180.3Q349.1 180.3 350.5 178.95 351.85 177.6 351.85 175.65L351.85 22.9Q351.85 21 350.5 19.6Z"/><animate attributeName="display" repeatCount="indefinite" dur="1s" keyTimes="0;.475;.483;1" values="none;inline;none;none"/></g><g display="none" id="Layer17_0_FILL"><path fill="#F2F4F6" stroke="none" d="M88.05 19.6Q86.65 18.25 84.75 18.25L-19.25 18.25Q-21.2 18.25 -22.55 19.6 -23.9 21 -23.9 22.9L-23.9 175.65Q-23.9 177.6 -22.55 178.95 -21.2 180.3 -19.25 180.3L84.75 180.3Q86.65 180.3 88.05 178.95 89.4 177.6 89.4 175.65L89.4 22.9Q89.4 21 88.05 19.6M476.65 19.6Q475.3 18.25 473.35 18.25L369.35 18.25Q367.45 18.25 366.1 19.6 364.75 21 364.75 22.9L364.75 175.65Q364.75 177.6 366.1 178.95 367.45 180.3 369.35 180.3L473.35 180.3Q475.3 180.3 476.65 178.95 478 177.6 478 175.65L478 22.9Q478 21 476.65 19.6Z"/><path fill="#E7ECEF" stroke="none" d="M217.05 19.6Q215.65 18.25 213.75 18.25L109.75 18.25Q107.8 18.25 106.45 19.6 105.1 21 105.1 22.9L105.1 175.65Q105.1 177.6 106.45 178.95 107.8 180.3 109.75 180.3L213.75 180.3Q215.65 180.3 217.05 178.95 218.4 177.6 218.4 175.65L218.4 22.9Q218.4 21 217.05 19.6Z"/><path fill="#E2E8EC" stroke="none" d="M346.9 19.6Q345.5 18.25 343.6 18.25L239.55 18.25Q237.65 18.25 236.25 19.6 234.9 21 234.9 22.9L234.9 175.65Q234.9 177.6 236.25 178.95 237.65 180.3 239.55 180.3L343.6 180.3Q345.5 180.3 346.9 178.95 348.25 177.6 348.25 175.65L348.25 22.9Q348.25 21 346.9 19.6Z"/><animate attributeName="display" repeatCount="indefinite" dur="1s" keyTimes="0;.467;.475;1" values="none;inline;none;none"/></g><g display="none" id="Layer16_0_FILL"><path fill="#F2F4F6" stroke="none" d="M84.3 19.6Q82.9 18.25 81 18.25L-23 18.25Q-24.95 18.25 -26.3 19.6 -27.65 21 -27.65 22.9L-27.65 175.65Q-27.65 177.6 -26.3 178.95 -24.95 180.3 -23 180.3L81 180.3Q82.9 180.3 84.3 178.95 85.65 177.6 85.65 175.65L85.65 22.9Q85.65 21 84.3 19.6M472.9 19.6Q471.55 18.25 469.6 18.25L365.6 18.25Q363.7 18.25 362.35 19.6 361 21 361 22.9L361 175.65Q361 177.6 362.35 178.95 363.7 180.3 365.6 180.3L469.6 180.3Q471.55 180.3 472.9 178.95 474.25 177.6 474.25 175.65L474.25 22.9Q474.25 21 472.9 19.6Z"/><path fill="#E8ECF0" stroke="none" d="M213.3 19.6Q211.9 18.25 210 18.25L106 18.25Q104.05 18.25 102.7 19.6 101.35 21 101.35 22.9L101.35 175.65Q101.35 177.6 102.7 178.95 104.05 180.3 106 180.3L210 180.3Q211.9 180.3 213.3 178.95 214.65 177.6 214.65 175.65L214.65 22.9Q214.65 21 213.3 19.6Z"/><path fill="#E1E8EB" stroke="none" d="M343.15 19.6Q341.75 18.25 339.85 18.25L235.8 18.25Q233.9 18.25 232.5 19.6 231.15 21 231.15 22.9L231.15 175.65Q231.15 177.6 232.5 178.95 233.9 180.3 235.8 180.3L339.85 180.3Q341.75 180.3 343.15 178.95 344.5 177.6 344.5 175.65L344.5 22.9Q344.5 21 343.15 19.6Z"/><animate attributeName="display" repeatCount="indefinite" dur="1s" keyTimes="0;.458;.467;1" values="none;inline;none;none"/></g><g display="none" id="Layer15_0_FILL"><path fill="#F2F4F6" stroke="none" d="M80.4 19.6Q79 18.25 77.1 18.25L-26.9 18.25Q-28.85 18.25 -30.2 19.6 -31.55 21 -31.55 22.9L-31.55 175.65Q-31.55 177.6 -30.2 178.95 -28.85 180.3 -26.9 180.3L77.1 180.3Q79 180.3 80.4 178.95 81.75 177.6 81.75 175.65L81.75 22.9Q81.75 21 80.4 19.6M469 19.6Q467.65 18.25 465.7 18.25L361.7 18.25Q359.8 18.25 358.45 19.6 357.1 21 357.1 22.9L357.1 175.65Q357.1 177.6 358.45 178.95 359.8 180.3 361.7 180.3L465.7 180.3Q467.65 180.3 469 178.95 470.35 177.6 470.35 175.65L470.35 22.9Q470.35 21 469 19.6Z"/><path fill="#E9EDF0" stroke="none" d="M209.4 19.6Q208 18.25 206.1 18.25L102.1 18.25Q100.15 18.25 98.8 19.6 97.45 21 97.45 22.9L97.45 175.65Q97.45 177.6 98.8 178.95 100.15 180.3 102.1 180.3L206.1 180.3Q208 180.3 209.4 178.95 210.75 177.6 210.75 175.65L210.75 22.9Q210.75 21 209.4 19.6Z"/><path fill="#E0E7EB" stroke="none" d="M339.25 19.6Q337.85 18.25 335.95 18.25L231.9 18.25Q230 18.25 228.6 19.6 227.25 21 227.25 22.9L227.25 175.65Q227.25 177.6 228.6 178.95 230 180.3 231.9 180.3L335.95 180.3Q337.85 180.3 339.25 178.95 340.6 177.6 340.6 175.65L340.6 22.9Q340.6 21 339.25 19.6Z"/><animate attributeName="display" repeatCount="indefinite" dur="1s" keyTimes="0;.45;.458;1" values="none;inline;none;none"/></g><g display="none" id="Layer14_0_FILL"><path fill="#F2F4F6" stroke="none" d="M76.5 19.6Q75.1 18.25 73.2 18.25L-30.8 18.25Q-32.75 18.25 -34.1 19.6 -35.45 21 -35.45 22.9L-35.45 175.65Q-35.45 177.6 -34.1 178.95 -32.75 180.3 -30.8 180.3L73.2 180.3Q75.1 180.3 76.5 178.95 77.85 177.6 77.85 175.65L77.85 22.9Q77.85 21 76.5 19.6M465.1 19.6Q463.75 18.25 461.8 18.25L357.8 18.25Q355.9 18.25 354.55 19.6 353.2 21 353.2 22.9L353.2 175.65Q353.2 177.6 354.55 178.95 355.9 180.3 357.8 180.3L461.8 180.3Q463.75 180.3 465.1 178.95 466.45 177.6 466.45 175.65L466.45 22.9Q466.45 21 465.1 19.6Z"/><path fill="#E9EEF1" stroke="none" d="M206.85 22.9Q206.85 21 205.5 19.6 204.1 18.25 202.2 18.25L98.2 18.25Q96.25 18.25 94.9 19.6 93.55 21 93.55 22.9L93.55 175.65Q93.55 177.6 94.9 178.95 96.25 180.3 98.2 180.3L202.2 180.3Q204.1 180.3 205.5 178.95 206.85 177.6 206.85 175.65L206.85 22.9Z"/><path fill="#E0E6EA" stroke="none" d="M335.35 19.6Q333.95 18.25 332.05 18.25L228 18.25Q226.1 18.25 224.7 19.6 223.35 21 223.35 22.9L223.35 175.65Q223.35 177.6 224.7 178.95 226.1 180.3 228 180.3L332.05 180.3Q333.95 180.3 335.35 178.95 336.7 177.6 336.7 175.65L336.7 22.9Q336.7 21 335.35 19.6Z"/><animate attributeName="display" repeatCount="indefinite" dur="1s" keyTimes="0;.442;.45;1" values="none;inline;none;none"/></g><g display="none" id="Layer13_0_FILL"><path fill="#F2F4F6" stroke="none" d="M72.4 19.6Q71 18.25 69.1 18.25L-34.9 18.25Q-36.85 18.25 -38.2 19.6 -39.55 21 -39.55 22.9L-39.55 175.65Q-39.55 177.6 -38.2 178.95 -36.85 180.3 -34.9 180.3L69.1 180.3Q71 180.3 72.4 178.95 73.75 177.6 73.75 175.65L73.75 22.9Q73.75 21 72.4 19.6M461 19.6Q459.65 18.25 457.7 18.25L353.7 18.25Q351.8 18.25 350.45 19.6 349.1 21 349.1 22.9L349.1 175.65Q349.1 177.6 350.45 178.95 351.8 180.3 353.7 180.3L457.7 180.3Q459.65 180.3 461 178.95 462.35 177.6 462.35 175.65L462.35 22.9Q462.35 21 461 19.6Z"/><path fill="#EAEEF1" stroke="none" d="M201.4 19.6Q200 18.25 198.1 18.25L94.1 18.25Q92.15 18.25 90.8 19.6 89.45 21 89.45 22.9L89.45 175.65Q89.45 177.6 90.8 178.95 92.15 180.3 94.1 180.3L198.1 180.3Q200 180.3 201.4 178.95 202.75 177.6 202.75 175.65L202.75 22.9Q202.75 21 201.4 19.6Z"/><path fill="#DFE6EA" stroke="none" d="M331.25 19.6Q329.85 18.25 327.95 18.25L223.9 18.25Q222 18.25 220.6 19.6 219.25 21 219.25 22.9L219.25 175.65Q219.25 177.6 220.6 178.95 222 180.3 223.9 180.3L327.95 180.3Q329.85 180.3 331.25 178.95 332.6 177.6 332.6 175.65L332.6 22.9Q332.6 21 331.25 19.6Z"/><animate attributeName="display" repeatCount="indefinite" dur="1s" keyTimes="0;.433;.442;1" values="none;inline;none;none"/></g><g display="none" id="Layer12_0_FILL"><path fill="#F2F4F6" stroke="none" d="M68.15 19.6Q66.75 18.25 64.85 18.25L-39.15 18.25Q-41.1 18.25 -42.45 19.6 -43.8 21 -43.8 22.9L-43.8 175.65Q-43.8 177.6 -42.45 178.95 -41.1 180.3 -39.15 180.3L64.85 180.3Q66.75 180.3 68.15 178.95 69.5 177.6 69.5 175.65L69.5 22.9Q69.5 21 68.15 19.6M456.75 19.6Q455.4 18.25 453.45 18.25L349.45 18.25Q347.55 18.25 346.2 19.6 344.85 21 344.85 22.9L344.85 175.65Q344.85 177.6 346.2 178.95 347.55 180.3 349.45 180.3L453.45 180.3Q455.4 180.3 456.75 178.95 458.1 177.6 458.1 175.65L458.1 22.9Q458.1 21 456.75 19.6Z"/><path fill="#EBEFF2" stroke="none" d="M197.15 19.6Q195.75 18.25 193.85 18.25L89.85 18.25Q87.9 18.25 86.55 19.6 85.2 21 85.2 22.9L85.2 175.65Q85.2 177.6 86.55 178.95 87.9 180.3 89.85 180.3L193.85 180.3Q195.75 180.3 197.15 178.95 198.5 177.6 198.5 175.65L198.5 22.9Q198.5 21 197.15 19.6Z"/><path fill="#DEE5E9" stroke="none" d="M328.35 22.9Q328.35 21 327 19.6 325.6 18.25 323.7 18.25L219.65 18.25Q217.75 18.25 216.35 19.6 215 21 215 22.9L215 175.65Q215 177.6 216.35 178.95 217.75 180.3 219.65 180.3L323.7 180.3Q325.6 180.3 327 178.95 328.35 177.6 328.35 175.65L328.35 22.9Z"/><animate attributeName="display" repeatCount="indefinite" dur="1s" keyTimes="0;.425;.433;1" values="none;inline;none;none"/></g><g display="none" id="Layer11_0_FILL"><path fill="#F2F4F6" stroke="none" d="M63.8 19.6Q62.4 18.25 60.5 18.25L-43.5 18.25Q-45.45 18.25 -46.8 19.6 -48.15 21 -48.15 22.9L-48.15 175.65Q-48.15 177.6 -46.8 178.95 -45.45 180.3 -43.5 180.3L60.5 180.3Q62.4 180.3 63.8 178.95 65.15 177.6 65.15 175.65L65.15 22.9Q65.15 21 63.8 19.6M452.4 19.6Q451.05 18.25 449.1 18.25L345.1 18.25Q343.2 18.25 341.85 19.6 340.5 21 340.5 22.9L340.5 175.65Q340.5 177.6 341.85 178.95 343.2 180.3 345.1 180.3L449.1 180.3Q451.05 180.3 452.4 178.95 453.75 177.6 453.75 175.65L453.75 22.9Q453.75 21 452.4 19.6Z"/><path fill="#ECF0F2" stroke="none" d="M192.8 19.6Q191.4 18.25 189.5 18.25L85.5 18.25Q83.55 18.25 82.2 19.6 80.85 21 80.85 22.9L80.85 175.65Q80.85 177.6 82.2 178.95 83.55 180.3 85.5 180.3L189.5 180.3Q191.4 180.3 192.8 178.95 194.15 177.6 194.15 175.65L194.15 22.9Q194.15 21 192.8 19.6Z"/><path fill="#DDE4E9" stroke="none" d="M324 175.65L324 22.9Q324 21 322.65 19.6 321.25 18.25 319.35 18.25L215.3 18.25Q213.4 18.25 212 19.6 210.65 21 210.65 22.9L210.65 175.65Q210.65 177.6 212 178.95 213.4 180.3 215.3 180.3L319.35 180.3Q321.25 180.3 322.65 178.95 324 177.6 324 175.65Z"/><animate attributeName="display" repeatCount="indefinite" dur="1s" keyTimes="0;.417;.425;1" values="none;inline;none;none"/></g><g display="none" id="Layer10_0_FILL"><path fill="#F2F4F6" stroke="none" d="M59.3 19.6Q57.9 18.25 56 18.25L-48 18.25Q-49.95 18.25 -51.3 19.6 -52.65 21 -52.65 22.9L-52.65 175.65Q-52.65 177.6 -51.3 178.95 -49.95 180.3 -48 180.3L56 180.3Q57.9 180.3 59.3 178.95 60.65 177.6 60.65 175.65L60.65 22.9Q60.65 21 59.3 19.6M449.25 22.9Q449.25 21 447.9 19.6 446.55 18.25 444.6 18.25L340.6 18.25Q338.7 18.25 337.35 19.6 336 21 336 22.9L336 175.65Q336 177.6 337.35 178.95 338.7 180.3 340.6 180.3L444.6 180.3Q446.55 180.3 447.9 178.95 449.25 177.6 449.25 175.65L449.25 22.9Z"/><path fill="#EDF0F3" stroke="none" d="M188.3 19.6Q186.9 18.25 185 18.25L81 18.25Q79.05 18.25 77.7 19.6 76.35 21 76.35 22.9L76.35 175.65Q76.35 177.6 77.7 178.95 79.05 180.3 81 180.3L185 180.3Q186.9 180.3 188.3 178.95 189.65 177.6 189.65 175.65L189.65 22.9Q189.65 21 188.3 19.6Z"/><path fill="#DCE4E8" stroke="none" d="M318.15 19.6Q316.75 18.25 314.85 18.25L210.8 18.25Q208.9 18.25 207.5 19.6 206.15 21 206.15 22.9L206.15 175.65Q206.15 177.6 207.5 178.95 208.9 180.3 210.8 180.3L314.85 180.3Q316.75 180.3 318.15 178.95 319.5 177.6 319.5 175.65L319.5 22.9Q319.5 21 318.15 19.6Z"/><animate attributeName="display" repeatCount="indefinite" dur="1s" keyTimes="0;.408;.417;1" values="none;inline;none;none"/></g><g display="none" id="Layer9_0_FILL"><path fill="#F2F4F6" stroke="none" d="M54.75 19.6Q53.35 18.25 51.45 18.25L-52.55 18.25Q-54.5 18.25 -55.85 19.6 -57.2 21 -57.2 22.9L-57.2 175.65Q-57.2 177.6 -55.85 178.95 -54.5 180.3 -52.55 180.3L51.45 180.3Q53.35 180.3 54.75 178.95 56.1 177.6 56.1 175.65L56.1 22.9Q56.1 21 54.75 19.6M443.35 19.6Q442 18.25 440.05 18.25L336.05 18.25Q334.15 18.25 332.8 19.6 331.45 21 331.45 22.9L331.45 175.65Q331.45 177.6 332.8 178.95 334.15 180.3 336.05 180.3L440.05 180.3Q442 180.3 443.35 178.95 444.7 177.6 444.7 175.65L444.7 22.9Q444.7 21 443.35 19.6Z"/><path fill="#EEF1F3" stroke="none" d="M183.75 19.6Q182.35 18.25 180.45 18.25L76.45 18.25Q74.5 18.25 73.15 19.6 71.8 21 71.8 22.9L71.8 175.65Q71.8 177.6 73.15 178.95 74.5 180.3 76.45 180.3L180.45 180.3Q182.35 180.3 183.75 178.95 185.1 177.6 185.1 175.65L185.1 22.9Q185.1 21 183.75 19.6Z"/><path fill="#DBE3E8" stroke="none" d="M313.6 19.6Q312.2 18.25 310.3 18.25L206.25 18.25Q204.35 18.25 202.95 19.6 201.6 21 201.6 22.9L201.6 175.65Q201.6 177.6 202.95 178.95 204.35 180.3 206.25 180.3L310.3 180.3Q312.2 180.3 313.6 178.95 314.95 177.6 314.95 175.65L314.95 22.9Q314.95 21 313.6 19.6Z"/><animate attributeName="display" repeatCount="indefinite" dur="1s" keyTimes="0;.4;.408;1" values="none;inline;none;none"/></g><g display="none" id="Layer8_0_FILL"><path fill="#F2F4F6" stroke="none" d="M50 19.6Q48.6 18.25 46.7 18.25L-57.3 18.25Q-59.25 18.25 -60.6 19.6 -61.95 21 -61.95 22.9L-61.95 175.65Q-61.95 177.6 -60.6 178.95 -59.25 180.3 -57.3 180.3L46.7 180.3Q48.6 180.3 50 178.95 51.35 177.6 51.35 175.65L51.35 22.9Q51.35 21 50 19.6M438.6 19.6Q437.25 18.25 435.3 18.25L331.3 18.25Q329.4 18.25 328.05 19.6 326.7 21 326.7 22.9L326.7 175.65Q326.7 177.6 328.05 178.95 329.4 180.3 331.3 180.3L435.3 180.3Q437.25 180.3 438.6 178.95 439.95 177.6 439.95 175.65L439.95 22.9Q439.95 21 438.6 19.6Z"/><path fill="#EFF2F4" stroke="none" d="M179 19.6Q177.6 18.25 175.7 18.25L71.7 18.25Q69.75 18.25 68.4 19.6 67.05 21 67.05 22.9L67.05 175.65Q67.05 177.6 68.4 178.95 69.75 180.3 71.7 180.3L175.7 180.3Q177.6 180.3 179 178.95 180.35 177.6 180.35 175.65L180.35 22.9Q180.35 21 179 19.6Z"/><path fill="#DAE2E7" stroke="none" d="M308.85 19.6Q307.45 18.25 305.55 18.25L201.5 18.25Q199.6 18.25 198.2 19.6 196.85 21 196.85 22.9L196.85 175.65Q196.85 177.6 198.2 178.95 199.6 180.3 201.5 180.3L305.55 180.3Q307.45 180.3 308.85 178.95 310.2 177.6 310.2 175.65L310.2 22.9Q310.2 21 308.85 19.6Z"/><animate attributeName="display" repeatCount="indefinite" dur="1s" keyTimes="0;.392;.4;1" values="none;inline;none;none"/></g><g display="none" id="Layer7_0_FILL"><path fill="#F2F4F6" stroke="none" d="M45.15 19.6Q43.75 18.25 41.85 18.25L-62.15 18.25Q-64.1 18.25 -65.45 19.6 -66.8 21 -66.8 22.9L-66.8 175.65Q-66.8 177.6 -65.45 178.95 -64.1 180.3 -62.15 180.3L41.85 180.3Q43.75 180.3 45.15 178.95 46.5 177.6 46.5 175.65L46.5 22.9Q46.5 21 45.15 19.6M433.75 19.6Q432.4 18.25 430.45 18.25L326.45 18.25Q324.55 18.25 323.2 19.6 321.85 21 321.85 22.9L321.85 175.65Q321.85 177.6 323.2 178.95 324.55 180.3 326.45 180.3L430.45 180.3Q432.4 180.3 433.75 178.95 435.1 177.6 435.1 175.65L435.1 22.9Q435.1 21 433.75 19.6Z"/><path fill="#F0F2F5" stroke="none" d="M174.15 19.6Q172.75 18.25 170.85 18.25L66.85 18.25Q64.9 18.25 63.55 19.6 62.2 21 62.2 22.9L62.2 175.65Q62.2 177.6 63.55 178.95 64.9 180.3 66.85 180.3L170.85 180.3Q172.75 180.3 174.15 178.95 175.5 177.6 175.5 175.65L175.5 22.9Q175.5 21 174.15 19.6Z"/><path fill="#D9E2E6" stroke="none" d="M304 19.6Q302.6 18.25 300.7 18.25L196.65 18.25Q194.75 18.25 193.35 19.6 192 21 192 22.9L192 175.65Q192 177.6 193.35 178.95 194.75 180.3 196.65 180.3L300.7 180.3Q302.6 180.3 304 178.95 305.35 177.6 305.35 175.65L305.35 22.9Q305.35 21 304 19.6Z"/><animate attributeName="display" repeatCount="indefinite" dur="1s" keyTimes="0;.383;.392;1" values="none;inline;none;none"/></g><g display="none" id="Layer6_0_FILL"><path fill="#F2F4F6" stroke="none" d="M40.15 19.6Q38.75 18.25 36.85 18.25L-67.15 18.25Q-69.1 18.25 -70.45 19.6 -71.8 21 -71.8 22.9L-71.8 175.65Q-71.8 177.6 -70.45 178.95 -69.1 180.3 -67.15 180.3L36.85 180.3Q38.75 180.3 40.15 178.95 41.5 177.6 41.5 175.65L41.5 22.9Q41.5 21 40.15 19.6M428.75 19.6Q427.4 18.25 425.45 18.25L321.45 18.25Q319.55 18.25 318.2 19.6 316.85 21 316.85 22.9L316.85 175.65Q316.85 177.6 318.2 178.95 319.55 180.3 321.45 180.3L425.45 180.3Q427.4 180.3 428.75 178.95 430.1 177.6 430.1 175.65L430.1 22.9Q430.1 21 428.75 19.6Z"/><path fill="#F1F3F5" stroke="none" d="M169.15 19.6Q167.75 18.25 165.85 18.25L61.85 18.25Q59.9 18.25 58.55 19.6 57.2 21 57.2 22.9L57.2 175.65Q57.2 177.6 58.55 178.95 59.9 180.3 61.85 180.3L165.85 180.3Q167.75 180.3 169.15 178.95 170.5 177.6 170.5 175.65L170.5 22.9Q170.5 21 169.15 19.6Z"/><path fill="#D8E1E6" stroke="none" d="M299 19.6Q297.6 18.25 295.7 18.25L191.65 18.25Q189.75 18.25 188.35 19.6 187 21 187 22.9L187 175.65Q187 177.6 188.35 178.95 189.75 180.3 191.65 180.3L295.7 180.3Q297.6 180.3 299 178.95 300.35 177.6 300.35 175.65L300.35 22.9Q300.35 21 299 19.6Z"/><animate attributeName="display" repeatCount="indefinite" dur="1s" keyTimes="0;.375;.383;1" values="none;inline;none;none"/></g><g display="none" id="Layer4_0_FILL"><path fill="#F2F4F6" stroke="none" d="M36.35 22.9Q36.35 21 35 19.6 33.6 18.25 31.7 18.25L-72.3 18.25Q-74.25 18.25 -75.6 19.6 -76.95 21 -76.95 22.9L-76.95 175.65Q-76.95 177.6 -75.6 178.95 -74.25 180.3 -72.3 180.3L31.7 180.3Q33.6 180.3 35 178.95 36.35 177.6 36.35 175.65L36.35 22.9M165.35 22.9Q165.35 21 164 19.6 162.6 18.25 160.7 18.25L56.7 18.25Q54.75 18.25 53.4 19.6 52.05 21 52.05 22.9L52.05 175.65Q52.05 177.6 53.4 178.95 54.75 180.3 56.7 180.3L160.7 180.3Q162.6 180.3 164 178.95 165.35 177.6 165.35 175.65L165.35 22.9M424.95 22.9Q424.95 21 423.6 19.6 422.25 18.25 420.3 18.25L316.3 18.25Q314.4 18.25 313.05 19.6 311.7 21 311.7 22.9L311.7 175.65Q311.7 177.6 313.05 178.95 314.4 180.3 316.3 180.3L420.3 180.3Q422.25 180.3 423.6 178.95 424.95 177.6 424.95 175.65L424.95 22.9Z"/><path fill="#D7E0E5" stroke="none" d="M295.2 22.9Q295.2 21 293.85 19.6 292.45 18.25 290.55 18.25L186.5 18.25Q184.6 18.25 183.2 19.6 181.85 21 181.85 22.9L181.85 175.65Q181.85 177.6 183.2 178.95 184.6 180.3 186.5 180.3L290.55 180.3Q292.45 180.3 293.85 178.95 295.2 177.6 295.2 175.65L295.2 22.9Z"/><animate attributeName="display" repeatCount="indefinite" dur="1s" keyTimes="0;.375;1" values="inline;none;none"/></g></g><mask id="mask_"><g><g><g><g id="Layer3_0_FILL"><path fill="#FFF" stroke="none" d="M308.5 3.55Q304.95 0 300 0L125 0Q120 0 116.5 3.55 113 7.05 113 12L113 187Q113 192 116.5 195.5 120 199 125 199L300 199Q304.95 199 308.5 195.5 312 192 312 187L312 12Q312 7.05 308.5 3.55Z" fill-opacity="1"/></g></g><animate attributeName="display" repeatCount="indefinite" dur="1s" keyTimes="0;.992;1" values="none;inline;inline"/></g><g display="none"><g><g id="Layer2_0_FILL"><path fill="#FFF" stroke="none" d="M308.5 3.55Q304.95 0 300 0L125 0Q120 0 116.5 3.55 113 7.05 113 12L113 187Q113 192 116.5 195.5 120 199 125 199L300 199Q304.95 199 308.5 195.5 312 192 312 187L312 12Q312 7.05 308.5 3.55Z" fill-opacity="1"/></g></g><animate attributeName="display" repeatCount="indefinite" dur="1s" keyTimes="0;.992;1" values="inline;none;none"/></g></g></mask><path fill="#F2F4F6" stroke="none" d="M307.35 5.75Q301.75 .1 293.75 0L132.2 0Q124.2 .1 118.6 5.75 113 11.4 113 19.4L113 180.65Q113 188.65 118.6 194.3 124.2 199.95 132.2 200L293.75 200Q301.75 199.95 307.35 194.3 313 188.65 313 180.65L313 19.4Q313 11.4 307.35 5.75M306.3 6.85Q311.45 12.05 311.45 19.4L311.45 180.65Q311.45 188 306.3 193.2 301.1 198.4 293.75 198.45L132.2 198.45Q124.85 198.4 119.7 193.2 114.5 188 114.5 180.65L114.5 19.4Q114.5 12.05 119.7 6.85 124.85 1.6 132.2 1.6L293.75 1.6Q301.1 1.65 306.3 6.85Z"/></g></svg>