<?xml version="1.0" encoding="utf-8"?><svg id="img-viewer-swipe_left" image-rendering="auto" baseProfile="basic" version="1.1" x="0px" y="0px" width="200" height="200" xmlns="http://www.w3.org/2000/svg" xmlns:xlink="http://www.w3.org/1999/xlink"><g id="left" overflow="visible" transform="translate(-113 0)"><g mask="url(#mask_)"><g id="Layer82_0_FILL"><path fill="#F2F4F6" stroke="none" d="M-18.3 19.6Q-19.65 18.25 -21.55 18.25L-125.55 18.25Q-127.5 18.25 -128.85 19.6 -130.2 21 -130.2 22.9L-130.2 175.65Q-130.2 177.6 -128.85 178.95 -127.5 180.3 -125.55 180.3L-21.55 180.3Q-19.65 180.3 -18.3 178.95 -16.95 177.6 -16.95 175.65L-16.95 22.9Q-16.95 21 -18.3 19.6M111.55 19.6Q110.15 18.25 108.25 18.25L4.2 18.25Q2.3 18.25 .9 19.6 -.45 21 -.45 22.9L-.45 175.65Q-.45 177.6 .9 178.95 2.3 180.3 4.2 180.3L108.25 180.3Q110.15 180.3 111.55 178.95 112.9 177.6 112.9 175.65L112.9 22.9Q112.9 21 111.55 19.6M370.35 19.6Q369 18.25 367.05 18.25L263.05 18.25Q261.15 18.25 259.75 19.6 258.4 21 258.4 22.9L258.4 175.65Q258.4 177.6 259.75 178.95 261.15 180.3 263.05 180.3L367.05 180.3Q369 180.3 370.35 178.95 371.7 177.6 371.7 175.65L371.7 22.9Q371.7 21 370.35 19.6Z"/><path fill="#D7E0E5" stroke="none" d="M241.35 19.6Q240 18.25 238.05 18.25L134.05 18.25Q132.15 18.25 130.75 19.6 129.4 21 129.4 22.9L129.4 175.65Q129.4 177.6 130.75 178.95 132.15 180.3 134.05 180.3L238.05 180.3Q240 180.3 241.35 178.95 242.7 177.6 242.7 175.65L242.7 22.9Q242.7 21 241.35 19.6Z"/><animate attributeName="display" repeatCount="indefinite" dur="1s" keyTimes="0;.992;1" values="none;inline;inline"/></g><g display="none" id="Layer78_0_FILL"><path fill="#F2F4F6" stroke="none" d="M-18.3 19.6Q-19.65 18.25 -21.55 18.25L-125.55 18.25Q-127.5 18.25 -128.85 19.6 -130.2 21 -130.2 22.9L-130.2 175.65Q-130.2 177.6 -128.85 178.95 -127.5 180.3 -125.55 180.3L-21.55 180.3Q-19.65 180.3 -18.3 178.95 -16.95 177.6 -16.95 175.65L-16.95 22.9Q-16.95 21 -18.3 19.6M111.55 19.6Q110.15 18.25 108.25 18.25L4.2 18.25Q2.3 18.25 .9 19.6 -.45 21 -.45 22.9L-.45 175.65Q-.45 177.6 .9 178.95 2.3 180.3 4.2 180.3L108.25 180.3Q110.15 180.3 111.55 178.95 112.9 177.6 112.9 175.65L112.9 22.9Q112.9 21 111.55 19.6M370.35 19.6Q369 18.25 367.05 18.25L263.05 18.25Q261.15 18.25 259.75 19.6 258.4 21 258.4 22.9L258.4 175.65Q258.4 177.6 259.75 178.95 261.15 180.3 263.05 180.3L367.05 180.3Q369 180.3 370.35 178.95 371.7 177.6 371.7 175.65L371.7 22.9Q371.7 21 370.35 19.6Z"/><path fill="#D7E0E5" stroke="none" d="M241.35 19.6Q240 18.25 238.05 18.25L134.05 18.25Q132.15 18.25 130.75 19.6 129.4 21 129.4 22.9L129.4 175.65Q129.4 177.6 130.75 178.95 132.15 180.3 134.05 180.3L238.05 180.3Q240 180.3 241.35 178.95 242.7 177.6 242.7 175.65L242.7 22.9Q242.7 21 241.35 19.6Z"/><animate attributeName="display" repeatCount="indefinite" dur="1s" keyTimes="0;.958;.992;1" values="none;inline;none;none"/></g><g display="none" id="Layer76_0_FILL"><path fill="#F2F4F6" stroke="none" d="M-18.25 19.6Q-19.6 18.25 -21.5 18.25L-125.5 18.25Q-127.45 18.25 -128.8 19.6 -130.15 21 -130.15 22.9L-130.15 175.65Q-130.15 177.6 -128.8 178.95 -127.45 180.3 -125.5 180.3L-21.5 180.3Q-19.6 180.3 -18.25 178.95 -16.9 177.6 -16.9 175.65L-16.9 22.9Q-16.9 21 -18.25 19.6M111.6 19.6Q110.2 18.25 108.3 18.25L4.25 18.25Q2.35 18.25 .95 19.6 -.4 21 -.4 22.9L-.4 175.65Q-.4 177.6 .95 178.95 2.35 180.3 4.25 180.3L108.3 180.3Q110.2 180.3 111.6 178.95 112.95 177.6 112.95 175.65L112.95 22.9Q112.95 21 111.6 19.6M370.4 19.6Q369.05 18.25 367.1 18.25L263.1 18.25Q261.2 18.25 259.8 19.6 258.45 21 258.45 22.9L258.45 175.65Q258.45 177.6 259.8 178.95 261.2 180.3 263.1 180.3L367.1 180.3Q369.05 180.3 370.4 178.95 371.75 177.6 371.75 175.65L371.75 22.9Q371.75 21 370.4 19.6Z"/><path fill="#D7E0E5" stroke="none" d="M241.4 19.6Q240.05 18.25 238.1 18.25L134.1 18.25Q132.2 18.25 130.8 19.6 129.45 21 129.45 22.9L129.45 175.65Q129.45 177.6 130.8 178.95 132.2 180.3 134.1 180.3L238.1 180.3Q240.05 180.3 241.4 178.95 242.75 177.6 242.75 175.65L242.75 22.9Q242.75 21 241.4 19.6Z"/><animate attributeName="display" repeatCount="indefinite" dur="1s" keyTimes="0;.942;.958;1" values="none;inline;none;none"/></g><g display="none" id="Layer75_0_FILL"><path fill="#F2F4F6" stroke="none" d="M-18.2 19.6Q-19.55 18.25 -21.45 18.25L-125.45 18.25Q-127.4 18.25 -128.75 19.6 -130.1 21 -130.1 22.9L-130.1 175.65Q-130.1 177.6 -128.75 178.95 -127.4 180.3 -125.45 180.3L-21.45 180.3Q-19.55 180.3 -18.2 178.95 -16.85 177.6 -16.85 175.65L-16.85 22.9Q-16.85 21 -18.2 19.6M111.65 19.6Q110.25 18.25 108.35 18.25L4.3 18.25Q2.4 18.25 1 19.6 -.35 21 -.35 22.9L-.35 175.65Q-.35 177.6 1 178.95 2.4 180.3 4.3 180.3L108.35 180.3Q110.25 180.3 111.65 178.95 113 177.6 113 175.65L113 22.9Q113 21 111.65 19.6M370.45 19.6Q369.1 18.25 367.15 18.25L263.15 18.25Q261.25 18.25 259.85 19.6 258.5 21 258.5 22.9L258.5 175.65Q258.5 177.6 259.85 178.95 261.25 180.3 263.15 180.3L367.15 180.3Q369.1 180.3 370.45 178.95 371.8 177.6 371.8 175.65L371.8 22.9Q371.8 21 370.45 19.6Z"/><path fill="#D7E0E5" stroke="none" d="M241.45 19.6Q240.1 18.25 238.15 18.25L134.15 18.25Q132.25 18.25 130.85 19.6 129.5 21 129.5 22.9L129.5 175.65Q129.5 177.6 130.85 178.95 132.25 180.3 134.15 180.3L238.15 180.3Q240.1 180.3 241.45 178.95 242.8 177.6 242.8 175.65L242.8 22.9Q242.8 21 241.45 19.6Z"/><animate attributeName="display" repeatCount="indefinite" dur="1s" keyTimes="0;.933;.942;1" values="none;inline;none;none"/></g><g display="none" id="Layer74_0_FILL"><path fill="#F2F4F6" stroke="none" d="M-18.15 19.6Q-19.5 18.25 -21.4 18.25L-125.4 18.25Q-127.35 18.25 -128.7 19.6 -130.05 21 -130.05 22.9L-130.05 175.65Q-130.05 177.6 -128.7 178.95 -127.35 180.3 -125.4 180.3L-21.4 180.3Q-19.5 180.3 -18.15 178.95 -16.8 177.6 -16.8 175.65L-16.8 22.9Q-16.8 21 -18.15 19.6M111.7 19.6Q110.3 18.25 108.4 18.25L4.35 18.25Q2.45 18.25 1.05 19.6 -.3 21 -.3 22.9L-.3 175.65Q-.3 177.6 1.05 178.95 2.45 180.3 4.35 180.3L108.4 180.3Q110.3 180.3 111.7 178.95 113.05 177.6 113.05 175.65L113.05 22.9Q113.05 21 111.7 19.6M370.5 19.6Q369.15 18.25 367.2 18.25L263.2 18.25Q261.3 18.25 259.9 19.6 258.55 21 258.55 22.9L258.55 175.65Q258.55 177.6 259.9 178.95 261.3 180.3 263.2 180.3L367.2 180.3Q369.15 180.3 370.5 178.95 371.85 177.6 371.85 175.65L371.85 22.9Q371.85 21 370.5 19.6Z"/><path fill="#D7E0E5" stroke="none" d="M241.5 19.6Q240.15 18.25 238.2 18.25L134.2 18.25Q132.3 18.25 130.9 19.6 129.55 21 129.55 22.9L129.55 175.65Q129.55 177.6 130.9 178.95 132.3 180.3 134.2 180.3L238.2 180.3Q240.15 180.3 241.5 178.95 242.85 177.6 242.85 175.65L242.85 22.9Q242.85 21 241.5 19.6Z"/><animate attributeName="display" repeatCount="indefinite" dur="1s" keyTimes="0;.925;.933;1" values="none;inline;none;none"/></g><g display="none" id="Layer73_0_FILL"><path fill="#F2F4F6" stroke="none" d="M-18.05 19.6Q-19.4 18.25 -21.3 18.25L-125.3 18.25Q-127.25 18.25 -128.6 19.6 -129.95 21 -129.95 22.9L-129.95 175.65Q-129.95 177.6 -128.6 178.95 -127.25 180.3 -125.3 180.3L-21.3 180.3Q-19.4 180.3 -18.05 178.95 -16.7 177.6 -16.7 175.65L-16.7 22.9Q-16.7 21 -18.05 19.6M111.8 19.6Q110.4 18.25 108.5 18.25L4.45 18.25Q2.55 18.25 1.15 19.6 -.2 21 -.2 22.9L-.2 175.65Q-.2 177.6 1.15 178.95 2.55 180.3 4.45 180.3L108.5 180.3Q110.4 180.3 111.8 178.95 113.15 177.6 113.15 175.65L113.15 22.9Q113.15 21 111.8 19.6M370.6 19.6Q369.25 18.25 367.3 18.25L263.3 18.25Q261.4 18.25 260 19.6 258.65 21 258.65 22.9L258.65 175.65Q258.65 177.6 260 178.95 261.4 180.3 263.3 180.3L367.3 180.3Q369.25 180.3 370.6 178.95 371.95 177.6 371.95 175.65L371.95 22.9Q371.95 21 370.6 19.6Z"/><path fill="#D7E0E5" stroke="none" d="M241.6 19.6Q240.25 18.25 238.3 18.25L134.3 18.25Q132.4 18.25 131 19.6 129.65 21 129.65 22.9L129.65 175.65Q129.65 177.6 131 178.95 132.4 180.3 134.3 180.3L238.3 180.3Q240.25 180.3 241.6 178.95 242.95 177.6 242.95 175.65L242.95 22.9Q242.95 21 241.6 19.6Z"/><animate attributeName="display" repeatCount="indefinite" dur="1s" keyTimes="0;.917;.925;1" values="none;inline;none;none"/></g><g display="none" id="Layer72_0_FILL"><path fill="#F2F4F6" stroke="none" d="M-18 19.6Q-19.35 18.25 -21.25 18.25L-125.25 18.25Q-127.2 18.25 -128.55 19.6 -129.9 21 -129.9 22.9L-129.9 175.65Q-129.9 177.6 -128.55 178.95 -127.2 180.3 -125.25 180.3L-21.25 180.3Q-19.35 180.3 -18 178.95 -16.65 177.6 -16.65 175.65L-16.65 22.9Q-16.65 21 -18 19.6M111.85 19.6Q110.45 18.25 108.55 18.25L4.5 18.25Q2.6 18.25 1.2 19.6 -.15 21 -.15 22.9L-.15 175.65Q-.15 177.6 1.2 178.95 2.6 180.3 4.5 180.3L108.55 180.3Q110.45 180.3 111.85 178.95 113.2 177.6 113.2 175.65L113.2 22.9Q113.2 21 111.85 19.6M370.65 19.6Q369.3 18.25 367.35 18.25L263.35 18.25Q261.45 18.25 260.05 19.6 258.7 21 258.7 22.9L258.7 175.65Q258.7 177.6 260.05 178.95 261.45 180.3 263.35 180.3L367.35 180.3Q369.3 180.3 370.65 178.95 372 177.6 372 175.65L372 22.9Q372 21 370.65 19.6Z"/><path fill="#D7E0E5" stroke="none" d="M241.65 19.6Q240.3 18.25 238.35 18.25L134.35 18.25Q132.45 18.25 131.05 19.6 129.7 21 129.7 22.9L129.7 175.65Q129.7 177.6 131.05 178.95 132.45 180.3 134.35 180.3L238.35 180.3Q240.3 180.3 241.65 178.95 243 177.6 243 175.65L243 22.9Q243 21 241.65 19.6Z"/><animate attributeName="display" repeatCount="indefinite" dur="1s" keyTimes="0;.908;.917;1" values="none;inline;none;none"/></g><g display="none" id="Layer71_0_FILL"><path fill="#F2F4F6" stroke="none" d="M-17.9 19.6Q-19.25 18.25 -21.15 18.25L-125.15 18.25Q-127.1 18.25 -128.45 19.6 -129.8 21 -129.8 22.9L-129.8 175.65Q-129.8 177.6 -128.45 178.95 -127.1 180.3 -125.15 180.3L-21.15 180.3Q-19.25 180.3 -17.9 178.95 -16.55 177.6 -16.55 175.65L-16.55 22.9Q-16.55 21 -17.9 19.6M111.95 19.6Q110.55 18.25 108.65 18.25L4.6 18.25Q2.7 18.25 1.3 19.6 -.05 21 -.05 22.9L-.05 175.65Q-.05 177.6 1.3 178.95 2.7 180.3 4.6 180.3L108.65 180.3Q110.55 180.3 111.95 178.95 113.3 177.6 113.3 175.65L113.3 22.9Q113.3 21 111.95 19.6M370.75 19.6Q369.4 18.25 367.45 18.25L263.45 18.25Q261.55 18.25 260.15 19.6 258.8 21 258.8 22.9L258.8 175.65Q258.8 177.6 260.15 178.95 261.55 180.3 263.45 180.3L367.45 180.3Q369.4 180.3 370.75 178.95 372.1 177.6 372.1 175.65L372.1 22.9Q372.1 21 370.75 19.6Z"/><path fill="#D7E0E5" stroke="none" d="M241.75 19.6Q240.4 18.25 238.45 18.25L134.45 18.25Q132.55 18.25 131.15 19.6 129.8 21 129.8 22.9L129.8 175.65Q129.8 177.6 131.15 178.95 132.55 180.3 134.45 180.3L238.45 180.3Q240.4 180.3 241.75 178.95 243.1 177.6 243.1 175.65L243.1 22.9Q243.1 21 241.75 19.6Z"/><animate attributeName="display" repeatCount="indefinite" dur="1s" keyTimes="0;.9;.908;1" values="none;inline;none;none"/></g><g display="none" id="Layer70_0_FILL"><path fill="#F2F4F6" stroke="none" d="M-17.75 19.6Q-19.1 18.25 -21 18.25L-125 18.25Q-126.95 18.25 -128.3 19.6 -129.65 21 -129.65 22.9L-129.65 175.65Q-129.65 177.6 -128.3 178.95 -126.95 180.3 -125 180.3L-21 180.3Q-19.1 180.3 -17.75 178.95 -16.4 177.6 -16.4 175.65L-16.4 22.9Q-16.4 21 -17.75 19.6M112.1 19.6Q110.7 18.25 108.8 18.25L4.75 18.25Q2.85 18.25 1.45 19.6 .1 21 .1 22.9L.1 175.65Q.1 177.6 1.45 178.95 2.85 180.3 4.75 180.3L108.8 180.3Q110.7 180.3 112.1 178.95 113.45 177.6 113.45 175.65L113.45 22.9Q113.45 21 112.1 19.6M370.9 19.6Q369.55 18.25 367.6 18.25L263.6 18.25Q261.7 18.25 260.3 19.6 258.95 21 258.95 22.9L258.95 175.65Q258.95 177.6 260.3 178.95 261.7 180.3 263.6 180.3L367.6 180.3Q369.55 180.3 370.9 178.95 372.25 177.6 372.25 175.65L372.25 22.9Q372.25 21 370.9 19.6Z"/><path fill="#D7E0E5" stroke="none" d="M241.9 19.6Q240.55 18.25 238.6 18.25L134.6 18.25Q132.7 18.25 131.3 19.6 129.95 21 129.95 22.9L129.95 175.65Q129.95 177.6 131.3 178.95 132.7 180.3 134.6 180.3L238.6 180.3Q240.55 180.3 241.9 178.95 243.25 177.6 243.25 175.65L243.25 22.9Q243.25 21 241.9 19.6Z"/><animate attributeName="display" repeatCount="indefinite" dur="1s" keyTimes="0;.892;.9;1" values="none;inline;none;none"/></g><g display="none" id="Layer69_0_FILL"><path fill="#F2F4F6" stroke="none" d="M-17.6 19.6Q-18.95 18.25 -20.85 18.25L-124.85 18.25Q-126.8 18.25 -128.15 19.6 -129.5 21 -129.5 22.9L-129.5 175.65Q-129.5 177.6 -128.15 178.95 -126.8 180.3 -124.85 180.3L-20.85 180.3Q-18.95 180.3 -17.6 178.95 -16.25 177.6 -16.25 175.65L-16.25 22.9Q-16.25 21 -17.6 19.6M112.25 19.6Q110.85 18.25 108.95 18.25L4.9 18.25Q3 18.25 1.6 19.6 .25 21 .25 22.9L.25 175.65Q.25 177.6 1.6 178.95 3 180.3 4.9 180.3L108.95 180.3Q110.85 180.3 112.25 178.95 113.6 177.6 113.6 175.65L113.6 22.9Q113.6 21 112.25 19.6M371.05 19.6Q369.7 18.25 367.75 18.25L263.75 18.25Q261.85 18.25 260.45 19.6 259.1 21 259.1 22.9L259.1 175.65Q259.1 177.6 260.45 178.95 261.85 180.3 263.75 180.3L367.75 180.3Q369.7 180.3 371.05 178.95 372.4 177.6 372.4 175.65L372.4 22.9Q372.4 21 371.05 19.6Z"/><path fill="#D7E0E5" stroke="none" d="M242.05 19.6Q240.7 18.25 238.75 18.25L134.75 18.25Q132.85 18.25 131.45 19.6 130.1 21 130.1 22.9L130.1 175.65Q130.1 177.6 131.45 178.95 132.85 180.3 134.75 180.3L238.75 180.3Q240.7 180.3 242.05 178.95 243.4 177.6 243.4 175.65L243.4 22.9Q243.4 21 242.05 19.6Z"/><animate attributeName="display" repeatCount="indefinite" dur="1s" keyTimes="0;.883;.892;1" values="none;inline;none;none"/></g><g display="none" id="Layer68_0_FILL"><path fill="#F2F4F6" stroke="none" d="M-17.45 19.6Q-18.8 18.25 -20.7 18.25L-124.7 18.25Q-126.65 18.25 -128 19.6 -129.35 21 -129.35 22.9L-129.35 175.65Q-129.35 177.6 -128 178.95 -126.65 180.3 -124.7 180.3L-20.7 180.3Q-18.8 180.3 -17.45 178.95 -16.1 177.6 -16.1 175.65L-16.1 22.9Q-16.1 21 -17.45 19.6M112.4 19.6Q111 18.25 109.1 18.25L5.05 18.25Q3.15 18.25 1.75 19.6 .4 21 .4 22.9L.4 175.65Q.4 177.6 1.75 178.95 3.15 180.3 5.05 180.3L109.1 180.3Q111 180.3 112.4 178.95 113.75 177.6 113.75 175.65L113.75 22.9Q113.75 21 112.4 19.6M371.2 19.6Q369.85 18.25 367.9 18.25L263.9 18.25Q262 18.25 260.6 19.6 259.25 21 259.25 22.9L259.25 175.65Q259.25 177.6 260.6 178.95 262 180.3 263.9 180.3L367.9 180.3Q369.85 180.3 371.2 178.95 372.55 177.6 372.55 175.65L372.55 22.9Q372.55 21 371.2 19.6Z"/><path fill="#D7E0E5" stroke="none" d="M242.2 19.6Q240.85 18.25 238.9 18.25L134.9 18.25Q133 18.25 131.6 19.6 130.25 21 130.25 22.9L130.25 175.65Q130.25 177.6 131.6 178.95 133 180.3 134.9 180.3L238.9 180.3Q240.85 180.3 242.2 178.95 243.55 177.6 243.55 175.65L243.55 22.9Q243.55 21 242.2 19.6Z"/><animate attributeName="display" repeatCount="indefinite" dur="1s" keyTimes="0;.875;.883;1" values="none;inline;none;none"/></g><g display="none" id="Layer67_0_FILL"><path fill="#F2F4F6" stroke="none" d="M-17.25 19.6Q-18.6 18.25 -20.5 18.25L-124.5 18.25Q-126.45 18.25 -127.8 19.6 -129.15 21 -129.15 22.9L-129.15 175.65Q-129.15 177.6 -127.8 178.95 -126.45 180.3 -124.5 180.3L-20.5 180.3Q-18.6 180.3 -17.25 178.95 -15.9 177.6 -15.9 175.65L-15.9 22.9Q-15.9 21 -17.25 19.6M112.6 19.6Q111.2 18.25 109.3 18.25L5.25 18.25Q3.35 18.25 1.95 19.6 .6 21 .6 22.9L.6 175.65Q.6 177.6 1.95 178.95 3.35 180.3 5.25 180.3L109.3 180.3Q111.2 180.3 112.6 178.95 113.95 177.6 113.95 175.65L113.95 22.9Q113.95 21 112.6 19.6M371.4 19.6Q370.05 18.25 368.1 18.25L264.1 18.25Q262.2 18.25 260.8 19.6 259.45 21 259.45 22.9L259.45 175.65Q259.45 177.6 260.8 178.95 262.2 180.3 264.1 180.3L368.1 180.3Q370.05 180.3 371.4 178.95 372.75 177.6 372.75 175.65L372.75 22.9Q372.75 21 371.4 19.6Z"/><path fill="#D7E0E5" stroke="none" d="M242.4 19.6Q241.05 18.25 239.1 18.25L135.1 18.25Q133.2 18.25 131.8 19.6 130.45 21 130.45 22.9L130.45 175.65Q130.45 177.6 131.8 178.95 133.2 180.3 135.1 180.3L239.1 180.3Q241.05 180.3 242.4 178.95 243.75 177.6 243.75 175.65L243.75 22.9Q243.75 21 242.4 19.6Z"/><animate attributeName="display" repeatCount="indefinite" dur="1s" keyTimes="0;.867;.875;1" values="none;inline;none;none"/></g><g display="none" id="Layer66_0_FILL"><path fill="#F2F4F6" stroke="none" d="M-17.05 19.6Q-18.4 18.25 -20.3 18.25L-124.3 18.25Q-126.25 18.25 -127.6 19.6 -128.95 21 -128.95 22.9L-128.95 175.65Q-128.95 177.6 -127.6 178.95 -126.25 180.3 -124.3 180.3L-20.3 180.3Q-18.4 180.3 -17.05 178.95 -15.7 177.6 -15.7 175.65L-15.7 22.9Q-15.7 21 -17.05 19.6M112.8 19.6Q111.4 18.25 109.5 18.25L5.45 18.25Q3.55 18.25 2.15 19.6 .8 21 .8 22.9L.8 175.65Q.8 177.6 2.15 178.95 3.55 180.3 5.45 180.3L109.5 180.3Q111.4 180.3 112.8 178.95 114.15 177.6 114.15 175.65L114.15 22.9Q114.15 21 112.8 19.6M371.6 19.6Q370.25 18.25 368.3 18.25L264.3 18.25Q262.4 18.25 261 19.6 259.65 21 259.65 22.9L259.65 175.65Q259.65 177.6 261 178.95 262.4 180.3 264.3 180.3L368.3 180.3Q370.25 180.3 371.6 178.95 372.95 177.6 372.95 175.65L372.95 22.9Q372.95 21 371.6 19.6Z"/><path fill="#D7E0E5" stroke="none" d="M242.6 19.6Q241.25 18.25 239.3 18.25L135.3 18.25Q133.4 18.25 132 19.6 130.65 21 130.65 22.9L130.65 175.65Q130.65 177.6 132 178.95 133.4 180.3 135.3 180.3L239.3 180.3Q241.25 180.3 242.6 178.95 243.95 177.6 243.95 175.65L243.95 22.9Q243.95 21 242.6 19.6Z"/><animate attributeName="display" repeatCount="indefinite" dur="1s" keyTimes="0;.858;.867;1" values="none;inline;none;none"/></g><g display="none" id="Layer65_0_FILL"><path fill="#F2F4F6" stroke="none" d="M-16.8 19.6Q-18.15 18.25 -20.05 18.25L-124.05 18.25Q-126 18.25 -127.35 19.6 -128.7 21 -128.7 22.9L-128.7 175.65Q-128.7 177.6 -127.35 178.95 -126 180.3 -124.05 180.3L-20.05 180.3Q-18.15 180.3 -16.8 178.95 -15.45 177.6 -15.45 175.65L-15.45 22.9Q-15.45 21 -16.8 19.6M113.05 19.6Q111.65 18.25 109.75 18.25L5.7 18.25Q3.8 18.25 2.4 19.6 1.05 21 1.05 22.9L1.05 175.65Q1.05 177.6 2.4 178.95 3.8 180.3 5.7 180.3L109.75 180.3Q111.65 180.3 113.05 178.95 114.4 177.6 114.4 175.65L114.4 22.9Q114.4 21 113.05 19.6M371.85 19.6Q370.5 18.25 368.55 18.25L264.55 18.25Q262.65 18.25 261.25 19.6 259.9 21 259.9 22.9L259.9 175.65Q259.9 177.6 261.25 178.95 262.65 180.3 264.55 180.3L368.55 180.3Q370.5 180.3 371.85 178.95 373.2 177.6 373.2 175.65L373.2 22.9Q373.2 21 371.85 19.6Z"/><path fill="#D7E0E5" stroke="none" d="M242.85 19.6Q241.5 18.25 239.55 18.25L135.55 18.25Q133.65 18.25 132.25 19.6 130.9 21 130.9 22.9L130.9 175.65Q130.9 177.6 132.25 178.95 133.65 180.3 135.55 180.3L239.55 180.3Q241.5 180.3 242.85 178.95 244.2 177.6 244.2 175.65L244.2 22.9Q244.2 21 242.85 19.6Z"/><animate attributeName="display" repeatCount="indefinite" dur="1s" keyTimes="0;.85;.858;1" values="none;inline;none;none"/></g><g display="none" id="Layer64_0_FILL"><path fill="#F2F4F6" stroke="none" d="M-16.5 19.6Q-17.85 18.25 -19.75 18.25L-123.75 18.25Q-125.7 18.25 -127.05 19.6 -128.4 21 -128.4 22.9L-128.4 175.65Q-128.4 177.6 -127.05 178.95 -125.7 180.3 -123.75 180.3L-19.75 180.3Q-17.85 180.3 -16.5 178.95 -15.15 177.6 -15.15 175.65L-15.15 22.9Q-15.15 21 -16.5 19.6M113.35 19.6Q111.95 18.25 110.05 18.25L6 18.25Q4.1 18.25 2.7 19.6 1.35 21 1.35 22.9L1.35 175.65Q1.35 177.6 2.7 178.95 4.1 180.3 6 180.3L110.05 180.3Q111.95 180.3 113.35 178.95 114.7 177.6 114.7 175.65L114.7 22.9Q114.7 21 113.35 19.6M372.15 19.6Q370.8 18.25 368.85 18.25L264.85 18.25Q262.95 18.25 261.55 19.6 260.2 21 260.2 22.9L260.2 175.65Q260.2 177.6 261.55 178.95 262.95 180.3 264.85 180.3L368.85 180.3Q370.8 180.3 372.15 178.95 373.5 177.6 373.5 175.65L373.5 22.9Q373.5 21 372.15 19.6Z"/><path fill="#D7E0E5" stroke="none" d="M244.5 22.9Q244.5 21 243.15 19.6 241.8 18.25 239.85 18.25L135.85 18.25Q133.95 18.25 132.55 19.6 131.2 21 131.2 22.9L131.2 175.65Q131.2 177.6 132.55 178.95 133.95 180.3 135.85 180.3L239.85 180.3Q241.8 180.3 243.15 178.95 244.5 177.6 244.5 175.65L244.5 22.9Z"/><animate attributeName="display" repeatCount="indefinite" dur="1s" keyTimes="0;.842;.85;1" values="none;inline;none;none"/></g><g display="none" id="Layer63_0_FILL"><path fill="#F2F4F6" stroke="none" d="M-16.2 19.6Q-17.55 18.25 -19.45 18.25L-123.45 18.25Q-125.4 18.25 -126.75 19.6 -128.1 21 -128.1 22.9L-128.1 175.65Q-128.1 177.6 -126.75 178.95 -125.4 180.3 -123.45 180.3L-19.45 180.3Q-17.55 180.3 -16.2 178.95 -14.85 177.6 -14.85 175.65L-14.85 22.9Q-14.85 21 -16.2 19.6M113.65 19.6Q112.25 18.25 110.35 18.25L6.3 18.25Q4.4 18.25 3 19.6 1.65 21 1.65 22.9L1.65 175.65Q1.65 177.6 3 178.95 4.4 180.3 6.3 180.3L110.35 180.3Q112.25 180.3 113.65 178.95 115 177.6 115 175.65L115 22.9Q115 21 113.65 19.6M372.45 19.6Q371.1 18.25 369.15 18.25L265.15 18.25Q263.25 18.25 261.85 19.6 260.5 21 260.5 22.9L260.5 175.65Q260.5 177.6 261.85 178.95 263.25 180.3 265.15 180.3L369.15 180.3Q371.1 180.3 372.45 178.95 373.8 177.6 373.8 175.65L373.8 22.9Q373.8 21 372.45 19.6Z"/><path fill="#D7E0E5" stroke="none" d="M244.8 22.9Q244.8 21 243.45 19.6 242.1 18.25 240.15 18.25L136.15 18.25Q134.25 18.25 132.85 19.6 131.5 21 131.5 22.9L131.5 175.65Q131.5 177.6 132.85 178.95 134.25 180.3 136.15 180.3L240.15 180.3Q242.1 180.3 243.45 178.95 244.8 177.6 244.8 175.65L244.8 22.9Z"/><animate attributeName="display" repeatCount="indefinite" dur="1s" keyTimes="0;.833;.842;1" values="none;inline;none;none"/></g><g display="none" id="Layer62_0_FILL"><path fill="#F2F4F6" stroke="none" d="M-15.85 19.6Q-17.2 18.25 -19.1 18.25L-123.1 18.25Q-125.05 18.25 -126.4 19.6 -127.75 21 -127.75 22.9L-127.75 175.65Q-127.75 177.6 -126.4 178.95 -125.05 180.3 -123.1 180.3L-19.1 180.3Q-17.2 180.3 -15.85 178.95 -14.5 177.6 -14.5 175.65L-14.5 22.9Q-14.5 21 -15.85 19.6M372.8 19.6Q371.45 18.25 369.5 18.25L265.5 18.25Q263.6 18.25 262.2 19.6 260.85 21 260.85 22.9L260.85 175.65Q260.85 177.6 262.2 178.95 263.6 180.3 265.5 180.3L369.5 180.3Q371.45 180.3 372.8 178.95 374.15 177.6 374.15 175.65L374.15 22.9Q374.15 21 372.8 19.6Z"/><path fill="#F1F4F6" stroke="none" d="M114 19.6Q112.6 18.25 110.7 18.25L6.65 18.25Q4.75 18.25 3.35 19.6 2 21 2 22.9L2 175.65Q2 177.6 3.35 178.95 4.75 180.3 6.65 180.3L110.7 180.3Q112.6 180.3 114 178.95 115.35 177.6 115.35 175.65L115.35 22.9Q115.35 21 114 19.6Z"/><path fill="#D8E0E5" stroke="none" d="M245.15 22.9Q245.15 21 243.8 19.6 242.45 18.25 240.5 18.25L136.5 18.25Q134.6 18.25 133.2 19.6 131.85 21 131.85 22.9L131.85 175.65Q131.85 177.6 133.2 178.95 134.6 180.3 136.5 180.3L240.5 180.3Q242.45 180.3 243.8 178.95 245.15 177.6 245.15 175.65L245.15 22.9Z"/><animate attributeName="display" repeatCount="indefinite" dur="1s" keyTimes="0;.825;.833;1" values="none;inline;none;none"/></g><g display="none" id="Layer61_0_FILL"><path fill="#F2F4F6" stroke="none" d="M-15.45 19.6Q-16.8 18.25 -18.7 18.25L-122.7 18.25Q-124.65 18.25 -126 19.6 -127.35 21 -127.35 22.9L-127.35 175.65Q-127.35 177.6 -126 178.95 -124.65 180.3 -122.7 180.3L-18.7 180.3Q-16.8 180.3 -15.45 178.95 -14.1 177.6 -14.1 175.65L-14.1 22.9Q-14.1 21 -15.45 19.6M373.2 19.6Q371.85 18.25 369.9 18.25L265.9 18.25Q264 18.25 262.6 19.6 261.25 21 261.25 22.9L261.25 175.65Q261.25 177.6 262.6 178.95 264 180.3 265.9 180.3L369.9 180.3Q371.85 180.3 373.2 178.95 374.55 177.6 374.55 175.65L374.55 22.9Q374.55 21 373.2 19.6Z"/><path fill="#F1F4F6" stroke="none" d="M114.4 19.6Q113 18.25 111.1 18.25L7.05 18.25Q5.15 18.25 3.75 19.6 2.4 21 2.4 22.9L2.4 175.65Q2.4 177.6 3.75 178.95 5.15 180.3 7.05 180.3L111.1 180.3Q113 180.3 114.4 178.95 115.75 177.6 115.75 175.65L115.75 22.9Q115.75 21 114.4 19.6Z"/><path fill="#D8E0E5" stroke="none" d="M245.55 22.9Q245.55 21 244.2 19.6 242.85 18.25 240.9 18.25L136.9 18.25Q135 18.25 133.6 19.6 132.25 21 132.25 22.9L132.25 175.65Q132.25 177.6 133.6 178.95 135 180.3 136.9 180.3L240.9 180.3Q242.85 180.3 244.2 178.95 245.55 177.6 245.55 175.65L245.55 22.9Z"/><animate attributeName="display" repeatCount="indefinite" dur="1s" keyTimes="0;.817;.825;1" values="none;inline;none;none"/></g><g display="none" id="Layer60_0_FILL"><path fill="#F2F4F6" stroke="none" d="M-15 19.6Q-16.35 18.25 -18.25 18.25L-122.25 18.25Q-124.2 18.25 -125.55 19.6 -126.9 21 -126.9 22.9L-126.9 175.65Q-126.9 177.6 -125.55 178.95 -124.2 180.3 -122.25 180.3L-18.25 180.3Q-16.35 180.3 -15 178.95 -13.65 177.6 -13.65 175.65L-13.65 22.9Q-13.65 21 -15 19.6M373.65 19.6Q372.3 18.25 370.35 18.25L266.35 18.25Q264.45 18.25 263.05 19.6 261.7 21 261.7 22.9L261.7 175.65Q261.7 177.6 263.05 178.95 264.45 180.3 266.35 180.3L370.35 180.3Q372.3 180.3 373.65 178.95 375 177.6 375 175.65L375 22.9Q375 21 373.65 19.6Z"/><path fill="#F1F3F6" stroke="none" d="M114.85 19.6Q113.45 18.25 111.55 18.25L7.5 18.25Q5.6 18.25 4.2 19.6 2.85 21 2.85 22.9L2.85 175.65Q2.85 177.6 4.2 178.95 5.6 180.3 7.5 180.3L111.55 180.3Q113.45 180.3 114.85 178.95 116.2 177.6 116.2 175.65L116.2 22.9Q116.2 21 114.85 19.6Z"/><path fill="#D8E1E5" stroke="none" d="M246 22.9Q246 21 244.65 19.6 243.3 18.25 241.35 18.25L137.35 18.25Q135.45 18.25 134.05 19.6 132.7 21 132.7 22.9L132.7 175.65Q132.7 177.6 134.05 178.95 135.45 180.3 137.35 180.3L241.35 180.3Q243.3 180.3 244.65 178.95 246 177.6 246 175.65L246 22.9Z"/><animate attributeName="display" repeatCount="indefinite" dur="1s" keyTimes="0;.808;.817;1" values="none;inline;none;none"/></g><g display="none" id="Layer59_0_FILL"><path fill="#F2F4F6" stroke="none" d="M-14.55 19.6Q-15.9 18.25 -17.8 18.25L-121.8 18.25Q-123.75 18.25 -125.1 19.6 -126.45 21 -126.45 22.9L-126.45 175.65Q-126.45 177.6 -125.1 178.95 -123.75 180.3 -121.8 180.3L-17.8 180.3Q-15.9 180.3 -14.55 178.95 -13.2 177.6 -13.2 175.65L-13.2 22.9Q-13.2 21 -14.55 19.6M374.1 19.6Q372.75 18.25 370.8 18.25L266.8 18.25Q264.9 18.25 263.5 19.6 262.15 21 262.15 22.9L262.15 175.65Q262.15 177.6 263.5 178.95 264.9 180.3 266.8 180.3L370.8 180.3Q372.75 180.3 374.1 178.95 375.45 177.6 375.45 175.65L375.45 22.9Q375.45 21 374.1 19.6Z"/><path fill="#F1F3F6" stroke="none" d="M115.3 19.6Q113.9 18.25 112 18.25L7.95 18.25Q6.05 18.25 4.65 19.6 3.3 21 3.3 22.9L3.3 175.65Q3.3 177.6 4.65 178.95 6.05 180.3 7.95 180.3L112 180.3Q113.9 180.3 115.3 178.95 116.65 177.6 116.65 175.65L116.65 22.9Q116.65 21 115.3 19.6Z"/><path fill="#D8E1E5" stroke="none" d="M246.45 22.9Q246.45 21 245.1 19.6 243.75 18.25 241.8 18.25L137.8 18.25Q135.9 18.25 134.5 19.6 133.15 21 133.15 22.9L133.15 175.65Q133.15 177.6 134.5 178.95 135.9 180.3 137.8 180.3L241.8 180.3Q243.75 180.3 245.1 178.95 246.45 177.6 246.45 175.65L246.45 22.9Z"/><animate attributeName="display" repeatCount="indefinite" dur="1s" keyTimes="0;.8;.808;1" values="none;inline;none;none"/></g><g display="none" id="Layer58_0_FILL"><path fill="#F2F4F6" stroke="none" d="M-14.05 19.6Q-15.4 18.25 -17.3 18.25L-121.3 18.25Q-123.25 18.25 -124.6 19.6 -125.95 21 -125.95 22.9L-125.95 175.65Q-125.95 177.6 -124.6 178.95 -123.25 180.3 -121.3 180.3L-17.3 180.3Q-15.4 180.3 -14.05 178.95 -12.7 177.6 -12.7 175.65L-12.7 22.9Q-12.7 21 -14.05 19.6M374.6 19.6Q373.25 18.25 371.3 18.25L267.3 18.25Q265.4 18.25 264 19.6 262.65 21 262.65 22.9L262.65 175.65Q262.65 177.6 264 178.95 265.4 180.3 267.3 180.3L371.3 180.3Q373.25 180.3 374.6 178.95 375.95 177.6 375.95 175.65L375.95 22.9Q375.95 21 374.6 19.6Z"/><path fill="#F1F3F5" stroke="none" d="M115.8 19.6Q114.4 18.25 112.5 18.25L8.45 18.25Q6.55 18.25 5.15 19.6 3.8 21 3.8 22.9L3.8 175.65Q3.8 177.6 5.15 178.95 6.55 180.3 8.45 180.3L112.5 180.3Q114.4 180.3 115.8 178.95 117.15 177.6 117.15 175.65L117.15 22.9Q117.15 21 115.8 19.6Z"/><path fill="#D8E1E6" stroke="none" d="M246.95 22.9Q246.95 21 245.6 19.6 244.25 18.25 242.3 18.25L138.3 18.25Q136.4 18.25 135 19.6 133.65 21 133.65 22.9L133.65 175.65Q133.65 177.6 135 178.95 136.4 180.3 138.3 180.3L242.3 180.3Q244.25 180.3 245.6 178.95 246.95 177.6 246.95 175.65L246.95 22.9Z"/><animate attributeName="display" repeatCount="indefinite" dur="1s" keyTimes="0;.792;.8;1" values="none;inline;none;none"/></g><g display="none" id="Layer57_0_FILL"><path fill="#F2F4F6" stroke="none" d="M-13.5 19.6Q-14.85 18.25 -16.75 18.25L-120.75 18.25Q-122.7 18.25 -124.05 19.6 -125.4 21 -125.4 22.9L-125.4 175.65Q-125.4 177.6 -124.05 178.95 -122.7 180.3 -120.75 180.3L-16.75 180.3Q-14.85 180.3 -13.5 178.95 -12.15 177.6 -12.15 175.65L-12.15 22.9Q-12.15 21 -13.5 19.6M375.15 19.6Q373.8 18.25 371.85 18.25L267.85 18.25Q265.95 18.25 264.55 19.6 263.2 21 263.2 22.9L263.2 175.65Q263.2 177.6 264.55 178.95 265.95 180.3 267.85 180.3L371.85 180.3Q373.8 180.3 375.15 178.95 376.5 177.6 376.5 175.65L376.5 22.9Q376.5 21 375.15 19.6Z"/><path fill="#F1F3F5" stroke="none" d="M116.35 19.6Q114.95 18.25 113.05 18.25L9 18.25Q7.1 18.25 5.7 19.6 4.35 21 4.35 22.9L4.35 175.65Q4.35 177.6 5.7 178.95 7.1 180.3 9 180.3L113.05 180.3Q114.95 180.3 116.35 178.95 117.7 177.6 117.7 175.65L117.7 22.9Q117.7 21 116.35 19.6Z"/><path fill="#D8E1E6" stroke="none" d="M247.5 22.9Q247.5 21 246.15 19.6 244.8 18.25 242.85 18.25L138.85 18.25Q136.95 18.25 135.55 19.6 134.2 21 134.2 22.9L134.2 175.65Q134.2 177.6 135.55 178.95 136.95 180.3 138.85 180.3L242.85 180.3Q244.8 180.3 246.15 178.95 247.5 177.6 247.5 175.65L247.5 22.9Z"/><animate attributeName="display" repeatCount="indefinite" dur="1s" keyTimes="0;.783;.792;1" values="none;inline;none;none"/></g><g display="none" id="Layer56_0_FILL"><path fill="#F2F4F6" stroke="none" d="M-12.85 19.6Q-14.2 18.25 -16.1 18.25L-120.1 18.25Q-122.05 18.25 -123.4 19.6 -124.75 21 -124.75 22.9L-124.75 175.65Q-124.75 177.6 -123.4 178.95 -122.05 180.3 -120.1 180.3L-16.1 180.3Q-14.2 180.3 -12.85 178.95 -11.5 177.6 -11.5 175.65L-11.5 22.9Q-11.5 21 -12.85 19.6M375.8 19.6Q374.45 18.25 372.5 18.25L268.5 18.25Q266.6 18.25 265.2 19.6 263.85 21 263.85 22.9L263.85 175.65Q263.85 177.6 265.2 178.95 266.6 180.3 268.5 180.3L372.5 180.3Q374.45 180.3 375.8 178.95 377.15 177.6 377.15 175.65L377.15 22.9Q377.15 21 375.8 19.6Z"/><path fill="#F1F3F5" stroke="none" d="M117 19.6Q115.6 18.25 113.7 18.25L9.65 18.25Q7.75 18.25 6.35 19.6 5 21 5 22.9L5 175.65Q5 177.6 6.35 178.95 7.75 180.3 9.65 180.3L113.7 180.3Q115.6 180.3 117 178.95 118.35 177.6 118.35 175.65L118.35 22.9Q118.35 21 117 19.6Z"/><path fill="#D8E1E6" stroke="none" d="M246.8 19.6Q245.45 18.25 243.5 18.25L139.5 18.25Q137.6 18.25 136.2 19.6 134.85 21 134.85 22.9L134.85 175.65Q134.85 177.6 136.2 178.95 137.6 180.3 139.5 180.3L243.5 180.3Q245.45 180.3 246.8 178.95 248.15 177.6 248.15 175.65L248.15 22.9Q248.15 21 246.8 19.6Z"/><animate attributeName="display" repeatCount="indefinite" dur="1s" keyTimes="0;.775;.783;1" values="none;inline;none;none"/></g><g display="none" id="Layer55_0_FILL"><path fill="#F2F4F6" stroke="none" d="M-12.2 19.6Q-13.55 18.25 -15.45 18.25L-119.45 18.25Q-121.4 18.25 -122.75 19.6 -124.1 21 -124.1 22.9L-124.1 175.65Q-124.1 177.6 -122.75 178.95 -121.4 180.3 -119.45 180.3L-15.45 180.3Q-13.55 180.3 -12.2 178.95 -10.85 177.6 -10.85 175.65L-10.85 22.9Q-10.85 21 -12.2 19.6M376.45 19.6Q375.1 18.25 373.15 18.25L269.15 18.25Q267.25 18.25 265.85 19.6 264.5 21 264.5 22.9L264.5 175.65Q264.5 177.6 265.85 178.95 267.25 180.3 269.15 180.3L373.15 180.3Q375.1 180.3 376.45 178.95 377.8 177.6 377.8 175.65L377.8 22.9Q377.8 21 376.45 19.6Z"/><path fill="#F1F3F5" stroke="none" d="M117.65 19.6Q116.25 18.25 114.35 18.25L10.3 18.25Q8.4 18.25 7 19.6 5.65 21 5.65 22.9L5.65 175.65Q5.65 177.6 7 178.95 8.4 180.3 10.3 180.3L114.35 180.3Q116.25 180.3 117.65 178.95 119 177.6 119 175.65L119 22.9Q119 21 117.65 19.6Z"/><path fill="#D8E1E6" stroke="none" d="M247.45 19.6Q246.1 18.25 244.15 18.25L140.15 18.25Q138.25 18.25 136.85 19.6 135.5 21 135.5 22.9L135.5 175.65Q135.5 177.6 136.85 178.95 138.25 180.3 140.15 180.3L244.15 180.3Q246.1 180.3 247.45 178.95 248.8 177.6 248.8 175.65L248.8 22.9Q248.8 21 247.45 19.6Z"/><animate attributeName="display" repeatCount="indefinite" dur="1s" keyTimes="0;.767;.775;1" values="none;inline;none;none"/></g><g display="none" id="Layer54_0_FILL"><path fill="#F2F4F6" stroke="none" d="M-11.5 19.6Q-12.85 18.25 -14.75 18.25L-118.75 18.25Q-120.7 18.25 -122.05 19.6 -123.4 21 -123.4 22.9L-123.4 175.65Q-123.4 177.6 -122.05 178.95 -120.7 180.3 -118.75 180.3L-14.75 180.3Q-12.85 180.3 -11.5 178.95 -10.15 177.6 -10.15 175.65L-10.15 22.9Q-10.15 21 -11.5 19.6M377.15 19.6Q375.8 18.25 373.85 18.25L269.85 18.25Q267.95 18.25 266.55 19.6 265.2 21 265.2 22.9L265.2 175.65Q265.2 177.6 266.55 178.95 267.95 180.3 269.85 180.3L373.85 180.3Q375.8 180.3 377.15 178.95 378.5 177.6 378.5 175.65L378.5 22.9Q378.5 21 377.15 19.6Z"/><path fill="#F1F3F5" stroke="none" d="M118.35 19.6Q116.95 18.25 115.05 18.25L11 18.25Q9.1 18.25 7.7 19.6 6.35 21 6.35 22.9L6.35 175.65Q6.35 177.6 7.7 178.95 9.1 180.3 11 180.3L115.05 180.3Q116.95 180.3 118.35 178.95 119.7 177.6 119.7 175.65L119.7 22.9Q119.7 21 118.35 19.6Z"/><path fill="#D8E1E6" stroke="none" d="M248.15 19.6Q246.8 18.25 244.85 18.25L140.85 18.25Q138.95 18.25 137.55 19.6 136.2 21 136.2 22.9L136.2 175.65Q136.2 177.6 137.55 178.95 138.95 180.3 140.85 180.3L244.85 180.3Q246.8 180.3 248.15 178.95 249.5 177.6 249.5 175.65L249.5 22.9Q249.5 21 248.15 19.6Z"/><animate attributeName="display" repeatCount="indefinite" dur="1s" keyTimes="0;.758;.767;1" values="none;inline;none;none"/></g><g display="none" id="Layer53_0_FILL"><path fill="#F2F4F6" stroke="none" d="M-10.7 19.6Q-12.05 18.25 -13.95 18.25L-117.95 18.25Q-119.9 18.25 -121.25 19.6 -122.6 21 -122.6 22.9L-122.6 175.65Q-122.6 177.6 -121.25 178.95 -119.9 180.3 -117.95 180.3L-13.95 180.3Q-12.05 180.3 -10.7 178.95 -9.35 177.6 -9.35 175.65L-9.35 22.9Q-9.35 21 -10.7 19.6M377.95 19.6Q376.6 18.25 374.65 18.25L270.65 18.25Q268.75 18.25 267.35 19.6 266 21 266 22.9L266 175.65Q266 177.6 267.35 178.95 268.75 180.3 270.65 180.3L374.65 180.3Q376.6 180.3 377.95 178.95 379.3 177.6 379.3 175.65L379.3 22.9Q379.3 21 377.95 19.6Z"/><path fill="#F0F3F5" stroke="none" d="M119.15 19.6Q117.75 18.25 115.85 18.25L11.8 18.25Q9.9 18.25 8.5 19.6 7.15 21 7.15 22.9L7.15 175.65Q7.15 177.6 8.5 178.95 9.9 180.3 11.8 180.3L115.85 180.3Q117.75 180.3 119.15 178.95 120.5 177.6 120.5 175.65L120.5 22.9Q120.5 21 119.15 19.6Z"/><path fill="#D9E1E6" stroke="none" d="M248.95 19.6Q247.6 18.25 245.65 18.25L141.65 18.25Q139.75 18.25 138.35 19.6 137 21 137 22.9L137 175.65Q137 177.6 138.35 178.95 139.75 180.3 141.65 180.3L245.65 180.3Q247.6 180.3 248.95 178.95 250.3 177.6 250.3 175.65L250.3 22.9Q250.3 21 248.95 19.6Z"/><animate attributeName="display" repeatCount="indefinite" dur="1s" keyTimes="0;.75;.758;1" values="none;inline;none;none"/></g><g display="none" id="Layer52_0_FILL"><path fill="#F2F4F6" stroke="none" d="M-9.95 19.6Q-11.3 18.25 -13.2 18.25L-117.2 18.25Q-119.15 18.25 -120.5 19.6 -121.85 21 -121.85 22.9L-121.85 175.65Q-121.85 177.6 -120.5 178.95 -119.15 180.3 -117.2 180.3L-13.2 180.3Q-11.3 180.3 -9.95 178.95 -8.6 177.6 -8.6 175.65L-8.6 22.9Q-8.6 21 -9.95 19.6M378.7 19.6Q377.35 18.25 375.4 18.25L271.4 18.25Q269.5 18.25 268.1 19.6 266.75 21 266.75 22.9L266.75 175.65Q266.75 177.6 268.1 178.95 269.5 180.3 271.4 180.3L375.4 180.3Q377.35 180.3 378.7 178.95 380.05 177.6 380.05 175.65L380.05 22.9Q380.05 21 378.7 19.6Z"/><path fill="#F0F3F5" stroke="none" d="M119.9 19.6Q118.5 18.25 116.6 18.25L12.55 18.25Q10.65 18.25 9.25 19.6 7.9 21 7.9 22.9L7.9 175.65Q7.9 177.6 9.25 178.95 10.65 180.3 12.55 180.3L116.6 180.3Q118.5 180.3 119.9 178.95 121.25 177.6 121.25 175.65L121.25 22.9Q121.25 21 119.9 19.6Z"/><path fill="#D9E1E6" stroke="none" d="M249.7 19.6Q248.35 18.25 246.4 18.25L142.4 18.25Q140.5 18.25 139.1 19.6 137.75 21 137.75 22.9L137.75 175.65Q137.75 177.6 139.1 178.95 140.5 180.3 142.4 180.3L246.4 180.3Q248.35 180.3 249.7 178.95 251.05 177.6 251.05 175.65L251.05 22.9Q251.05 21 249.7 19.6Z"/><animate attributeName="display" repeatCount="indefinite" dur="1s" keyTimes="0;.742;.75;1" values="none;inline;none;none"/></g><g display="none" id="Layer51_0_FILL"><path fill="#F2F4F6" stroke="none" d="M-9.1 19.6Q-10.45 18.25 -12.35 18.25L-116.35 18.25Q-118.3 18.25 -119.65 19.6 -121 21 -121 22.9L-121 175.65Q-121 177.6 -119.65 178.95 -118.3 180.3 -116.35 180.3L-12.35 180.3Q-10.45 180.3 -9.1 178.95 -7.75 177.6 -7.75 175.65L-7.75 22.9Q-7.75 21 -9.1 19.6M379.55 19.6Q378.2 18.25 376.25 18.25L272.25 18.25Q270.35 18.25 268.95 19.6 267.6 21 267.6 22.9L267.6 175.65Q267.6 177.6 268.95 178.95 270.35 180.3 272.25 180.3L376.25 180.3Q378.2 180.3 379.55 178.95 380.9 177.6 380.9 175.65L380.9 22.9Q380.9 21 379.55 19.6Z"/><path fill="#F0F3F5" stroke="none" d="M120.75 19.6Q119.35 18.25 117.45 18.25L13.4 18.25Q11.5 18.25 10.1 19.6 8.75 21 8.75 22.9L8.75 175.65Q8.75 177.6 10.1 178.95 11.5 180.3 13.4 180.3L117.45 180.3Q119.35 180.3 120.75 178.95 122.1 177.6 122.1 175.65L122.1 22.9Q122.1 21 120.75 19.6Z"/><path fill="#D9E1E6" stroke="none" d="M250.55 19.6Q249.2 18.25 247.25 18.25L143.25 18.25Q141.35 18.25 139.95 19.6 138.6 21 138.6 22.9L138.6 175.65Q138.6 177.6 139.95 178.95 141.35 180.3 143.25 180.3L247.25 180.3Q249.2 180.3 250.55 178.95 251.9 177.6 251.9 175.65L251.9 22.9Q251.9 21 250.55 19.6Z"/><animate attributeName="display" repeatCount="indefinite" dur="1s" keyTimes="0;.733;.742;1" values="none;inline;none;none"/></g><g display="none" id="Layer50_0_FILL"><path fill="#F2F4F6" stroke="none" d="M-8.2 19.6Q-9.55 18.25 -11.45 18.25L-115.45 18.25Q-117.4 18.25 -118.75 19.6 -120.1 21 -120.1 22.9L-120.1 175.65Q-120.1 177.6 -118.75 178.95 -117.4 180.3 -115.45 180.3L-11.45 180.3Q-9.55 180.3 -8.2 178.95 -6.85 177.6 -6.85 175.65L-6.85 22.9Q-6.85 21 -8.2 19.6M380.45 19.6Q379.1 18.25 377.15 18.25L273.15 18.25Q271.25 18.25 269.85 19.6 268.5 21 268.5 22.9L268.5 175.65Q268.5 177.6 269.85 178.95 271.25 180.3 273.15 180.3L377.15 180.3Q379.1 180.3 380.45 178.95 381.8 177.6 381.8 175.65L381.8 22.9Q381.8 21 380.45 19.6Z"/><path fill="#F0F2F5" stroke="none" d="M123 22.9Q123 21 121.65 19.6 120.25 18.25 118.35 18.25L14.3 18.25Q12.4 18.25 11 19.6 9.65 21 9.65 22.9L9.65 175.65Q9.65 177.6 11 178.95 12.4 180.3 14.3 180.3L118.35 180.3Q120.25 180.3 121.65 178.95 123 177.6 123 175.65L123 22.9Z"/><path fill="#D9E2E6" stroke="none" d="M251.45 19.6Q250.1 18.25 248.15 18.25L144.15 18.25Q142.25 18.25 140.85 19.6 139.5 21 139.5 22.9L139.5 175.65Q139.5 177.6 140.85 178.95 142.25 180.3 144.15 180.3L248.15 180.3Q250.1 180.3 251.45 178.95 252.8 177.6 252.8 175.65L252.8 22.9Q252.8 21 251.45 19.6Z"/><animate attributeName="display" repeatCount="indefinite" dur="1s" keyTimes="0;.725;.733;1" values="none;inline;none;none"/></g><g display="none" id="Layer49_0_FILL"><path fill="#F2F4F6" stroke="none" d="M-7.2 19.6Q-8.55 18.25 -10.45 18.25L-114.45 18.25Q-116.4 18.25 -117.75 19.6 -119.1 21 -119.1 22.9L-119.1 175.65Q-119.1 177.6 -117.75 178.95 -116.4 180.3 -114.45 180.3L-10.45 180.3Q-8.55 180.3 -7.2 178.95 -5.85 177.6 -5.85 175.65L-5.85 22.9Q-5.85 21 -7.2 19.6M381.45 19.6Q380.1 18.25 378.15 18.25L274.15 18.25Q272.25 18.25 270.85 19.6 269.5 21 269.5 22.9L269.5 175.65Q269.5 177.6 270.85 178.95 272.25 180.3 274.15 180.3L378.15 180.3Q380.1 180.3 381.45 178.95 382.8 177.6 382.8 175.65L382.8 22.9Q382.8 21 381.45 19.6Z"/><path fill="#F0F2F5" stroke="none" d="M124 22.9Q124 21 122.65 19.6 121.25 18.25 119.35 18.25L15.3 18.25Q13.4 18.25 12 19.6 10.65 21 10.65 22.9L10.65 175.65Q10.65 177.6 12 178.95 13.4 180.3 15.3 180.3L119.35 180.3Q121.25 180.3 122.65 178.95 124 177.6 124 175.65L124 22.9Z"/><path fill="#D9E2E6" stroke="none" d="M252.45 19.6Q251.1 18.25 249.15 18.25L145.15 18.25Q143.25 18.25 141.85 19.6 140.5 21 140.5 22.9L140.5 175.65Q140.5 177.6 141.85 178.95 143.25 180.3 145.15 180.3L249.15 180.3Q251.1 180.3 252.45 178.95 253.8 177.6 253.8 175.65L253.8 22.9Q253.8 21 252.45 19.6Z"/><animate attributeName="display" repeatCount="indefinite" dur="1s" keyTimes="0;.717;.725;1" values="none;inline;none;none"/></g><g display="none" id="Layer48_0_FILL"><path fill="#F2F4F6" stroke="none" d="M-6.15 19.6Q-7.5 18.25 -9.4 18.25L-113.4 18.25Q-115.35 18.25 -116.7 19.6 -118.05 21 -118.05 22.9L-118.05 175.65Q-118.05 177.6 -116.7 178.95 -115.35 180.3 -113.4 180.3L-9.4 180.3Q-7.5 180.3 -6.15 178.95 -4.8 177.6 -4.8 175.65L-4.8 22.9Q-4.8 21 -6.15 19.6M382.5 19.6Q381.15 18.25 379.2 18.25L275.2 18.25Q273.3 18.25 271.9 19.6 270.55 21 270.55 22.9L270.55 175.65Q270.55 177.6 271.9 178.95 273.3 180.3 275.2 180.3L379.2 180.3Q381.15 180.3 382.5 178.95 383.85 177.6 383.85 175.65L383.85 22.9Q383.85 21 382.5 19.6Z"/><path fill="#EFF2F4" stroke="none" d="M125.05 22.9Q125.05 21 123.7 19.6 122.3 18.25 120.4 18.25L16.35 18.25Q14.45 18.25 13.05 19.6 11.7 21 11.7 22.9L11.7 175.65Q11.7 177.6 13.05 178.95 14.45 180.3 16.35 180.3L120.4 180.3Q122.3 180.3 123.7 178.95 125.05 177.6 125.05 175.65L125.05 22.9Z"/><path fill="#DAE2E7" stroke="none" d="M253.5 19.6Q252.15 18.25 250.2 18.25L146.2 18.25Q144.3 18.25 142.9 19.6 141.55 21 141.55 22.9L141.55 175.65Q141.55 177.6 142.9 178.95 144.3 180.3 146.2 180.3L250.2 180.3Q252.15 180.3 253.5 178.95 254.85 177.6 254.85 175.65L254.85 22.9Q254.85 21 253.5 19.6Z"/><animate attributeName="display" repeatCount="indefinite" dur="1s" keyTimes="0;.708;.717;1" values="none;inline;none;none"/></g><g display="none" id="Layer47_0_FILL"><path fill="#F2F4F6" stroke="none" d="M-5.05 19.6Q-6.4 18.25 -8.3 18.25L-112.3 18.25Q-114.25 18.25 -115.6 19.6 -116.95 21 -116.95 22.9L-116.95 175.65Q-116.95 177.6 -115.6 178.95 -114.25 180.3 -112.3 180.3L-8.3 180.3Q-6.4 180.3 -5.05 178.95 -3.7 177.6 -3.7 175.65L-3.7 22.9Q-3.7 21 -5.05 19.6M383.6 19.6Q382.25 18.25 380.3 18.25L276.3 18.25Q274.4 18.25 273 19.6 271.65 21 271.65 22.9L271.65 175.65Q271.65 177.6 273 178.95 274.4 180.3 276.3 180.3L380.3 180.3Q382.25 180.3 383.6 178.95 384.95 177.6 384.95 175.65L384.95 22.9Q384.95 21 383.6 19.6Z"/><path fill="#EFF2F4" stroke="none" d="M124.8 19.6Q123.4 18.25 121.5 18.25L17.45 18.25Q15.55 18.25 14.15 19.6 12.8 21 12.8 22.9L12.8 175.65Q12.8 177.6 14.15 178.95 15.55 180.3 17.45 180.3L121.5 180.3Q123.4 180.3 124.8 178.95 126.15 177.6 126.15 175.65L126.15 22.9Q126.15 21 124.8 19.6Z"/><path fill="#DAE2E7" stroke="none" d="M254.6 19.6Q253.25 18.25 251.3 18.25L147.3 18.25Q145.4 18.25 144 19.6 142.65 21 142.65 22.9L142.65 175.65Q142.65 177.6 144 178.95 145.4 180.3 147.3 180.3L251.3 180.3Q253.25 180.3 254.6 178.95 255.95 177.6 255.95 175.65L255.95 22.9Q255.95 21 254.6 19.6Z"/><animate attributeName="display" repeatCount="indefinite" dur="1s" keyTimes="0;.7;.708;1" values="none;inline;none;none"/></g><g display="none" id="Layer46_0_FILL"><path fill="#F2F4F6" stroke="none" d="M-3.9 19.6Q-5.25 18.25 -7.15 18.25L-111.15 18.25Q-113.1 18.25 -114.45 19.6 -115.8 21 -115.8 22.9L-115.8 175.65Q-115.8 177.6 -114.45 178.95 -113.1 180.3 -111.15 180.3L-7.15 180.3Q-5.25 180.3 -3.9 178.95 -2.55 177.6 -2.55 175.65L-2.55 22.9Q-2.55 21 -3.9 19.6M384.75 19.6Q383.4 18.25 381.45 18.25L277.45 18.25Q275.55 18.25 274.15 19.6 272.8 21 272.8 22.9L272.8 175.65Q272.8 177.6 274.15 178.95 275.55 180.3 277.45 180.3L381.45 180.3Q383.4 180.3 384.75 178.95 386.1 177.6 386.1 175.65L386.1 22.9Q386.1 21 384.75 19.6Z"/><path fill="#EFF2F4" stroke="none" d="M125.95 19.6Q124.55 18.25 122.65 18.25L18.6 18.25Q16.7 18.25 15.3 19.6 13.95 21 13.95 22.9L13.95 175.65Q13.95 177.6 15.3 178.95 16.7 180.3 18.6 180.3L122.65 180.3Q124.55 180.3 125.95 178.95 127.3 177.6 127.3 175.65L127.3 22.9Q127.3 21 125.95 19.6Z"/><path fill="#DAE2E7" stroke="none" d="M255.75 19.6Q254.4 18.25 252.45 18.25L148.45 18.25Q146.55 18.25 145.15 19.6 143.8 21 143.8 22.9L143.8 175.65Q143.8 177.6 145.15 178.95 146.55 180.3 148.45 180.3L252.45 180.3Q254.4 180.3 255.75 178.95 257.1 177.6 257.1 175.65L257.1 22.9Q257.1 21 255.75 19.6Z"/><animate attributeName="display" repeatCount="indefinite" dur="1s" keyTimes="0;.692;.7;1" values="none;inline;none;none"/></g><g display="none" id="Layer45_0_FILL"><path fill="#F2F4F6" stroke="none" d="M-2.65 19.6Q-4 18.25 -5.9 18.25L-109.9 18.25Q-111.85 18.25 -113.2 19.6 -114.55 21 -114.55 22.9L-114.55 175.65Q-114.55 177.6 -113.2 178.95 -111.85 180.3 -109.9 180.3L-5.9 180.3Q-4 180.3 -2.65 178.95 -1.3 177.6 -1.3 175.65L-1.3 22.9Q-1.3 21 -2.65 19.6M386 19.6Q384.65 18.25 382.7 18.25L278.7 18.25Q276.8 18.25 275.4 19.6 274.05 21 274.05 22.9L274.05 175.65Q274.05 177.6 275.4 178.95 276.8 180.3 278.7 180.3L382.7 180.3Q384.65 180.3 386 178.95 387.35 177.6 387.35 175.65L387.35 22.9Q387.35 21 386 19.6Z"/><path fill="#EFF2F4" stroke="none" d="M127.2 19.6Q125.8 18.25 123.9 18.25L19.85 18.25Q17.95 18.25 16.55 19.6 15.2 21 15.2 22.9L15.2 175.65Q15.2 177.6 16.55 178.95 17.95 180.3 19.85 180.3L123.9 180.3Q125.8 180.3 127.2 178.95 128.55 177.6 128.55 175.65L128.55 22.9Q128.55 21 127.2 19.6Z"/><path fill="#DAE2E7" stroke="none" d="M257 19.6Q255.65 18.25 253.7 18.25L149.7 18.25Q147.8 18.25 146.4 19.6 145.05 21 145.05 22.9L145.05 175.65Q145.05 177.6 146.4 178.95 147.8 180.3 149.7 180.3L253.7 180.3Q255.65 180.3 257 178.95 258.35 177.6 258.35 175.65L258.35 22.9Q258.35 21 257 19.6Z"/><animate attributeName="display" repeatCount="indefinite" dur="1s" keyTimes="0;.683;.692;1" values="none;inline;none;none"/></g><g display="none" id="Layer44_0_FILL"><path fill="#F2F4F6" stroke="none" d="M0 175.65L0 22.9Q0 21 -1.35 19.6 -2.7 18.25 -4.6 18.25L-108.6 18.25Q-110.55 18.25 -111.9 19.6 -113.25 21 -113.25 22.9L-113.25 175.65Q-113.25 177.6 -111.9 178.95 -110.55 180.3 -108.6 180.3L-4.6 180.3Q-2.7 180.3 -1.35 178.95 0 177.6 0 175.65M388.65 22.9Q388.65 21 387.3 19.6 385.95 18.25 384 18.25L280 18.25Q278.1 18.25 276.7 19.6 275.35 21 275.35 22.9L275.35 175.65Q275.35 177.6 276.7 178.95 278.1 180.3 280 180.3L384 180.3Q385.95 180.3 387.3 178.95 388.65 177.6 388.65 175.65L388.65 22.9Z"/><path fill="#EEF1F4" stroke="none" d="M128.5 19.6Q127.1 18.25 125.2 18.25L21.15 18.25Q19.25 18.25 17.85 19.6 16.5 21 16.5 22.9L16.5 175.65Q16.5 177.6 17.85 178.95 19.25 180.3 21.15 180.3L125.2 180.3Q127.1 180.3 128.5 178.95 129.85 177.6 129.85 175.65L129.85 22.9Q129.85 21 128.5 19.6Z"/><path fill="#DBE3E7" stroke="none" d="M258.3 19.6Q256.95 18.25 255 18.25L151 18.25Q149.1 18.25 147.7 19.6 146.35 21 146.35 22.9L146.35 175.65Q146.35 177.6 147.7 178.95 149.1 180.3 151 180.3L255 180.3Q256.95 180.3 258.3 178.95 259.65 177.6 259.65 175.65L259.65 22.9Q259.65 21 258.3 19.6Z"/><animate attributeName="display" repeatCount="indefinite" dur="1s" keyTimes="0;.675;.683;1" values="none;inline;none;none"/></g><g display="none" id="Layer43_0_FILL"><path fill="#F2F4F6" stroke="none" d="M1.4 22.9Q1.4 21 .05 19.6 -1.3 18.25 -3.2 18.25L-107.2 18.25Q-109.15 18.25 -110.5 19.6 -111.85 21 -111.85 22.9L-111.85 175.65Q-111.85 177.6 -110.5 178.95 -109.15 180.3 -107.2 180.3L-3.2 180.3Q-1.3 180.3 .05 178.95 1.4 177.6 1.4 175.65L1.4 22.9M388.7 19.6Q387.35 18.25 385.4 18.25L281.4 18.25Q279.5 18.25 278.1 19.6 276.75 21 276.75 22.9L276.75 175.65Q276.75 177.6 278.1 178.95 279.5 180.3 281.4 180.3L385.4 180.3Q387.35 180.3 388.7 178.95 390.05 177.6 390.05 175.65L390.05 22.9Q390.05 21 388.7 19.6Z"/><path fill="#EEF1F4" stroke="none" d="M129.9 19.6Q128.5 18.25 126.6 18.25L22.55 18.25Q20.65 18.25 19.25 19.6 17.9 21 17.9 22.9L17.9 175.65Q17.9 177.6 19.25 178.95 20.65 180.3 22.55 180.3L126.6 180.3Q128.5 180.3 129.9 178.95 131.25 177.6 131.25 175.65L131.25 22.9Q131.25 21 129.9 19.6Z"/><path fill="#DBE3E7" stroke="none" d="M259.7 19.6Q258.35 18.25 256.4 18.25L152.4 18.25Q150.5 18.25 149.1 19.6 147.75 21 147.75 22.9L147.75 175.65Q147.75 177.6 149.1 178.95 150.5 180.3 152.4 180.3L256.4 180.3Q258.35 180.3 259.7 178.95 261.05 177.6 261.05 175.65L261.05 22.9Q261.05 21 259.7 19.6Z"/><animate attributeName="display" repeatCount="indefinite" dur="1s" keyTimes="0;.667;.675;1" values="none;inline;none;none"/></g><g display="none" id="Layer42_0_FILL"><path fill="#F2F4F6" stroke="none" d="M2.8 22.9Q2.8 21 1.45 19.6 .1 18.25 -1.8 18.25L-105.8 18.25Q-107.75 18.25 -109.1 19.6 -110.45 21 -110.45 22.9L-110.45 175.65Q-110.45 177.6 -109.1 178.95 -107.75 180.3 -105.8 180.3L-1.8 180.3Q.1 180.3 1.45 178.95 2.8 177.6 2.8 175.65L2.8 22.9M390.1 19.6Q388.75 18.25 386.8 18.25L282.8 18.25Q280.9 18.25 279.5 19.6 278.15 21 278.15 22.9L278.15 175.65Q278.15 177.6 279.5 178.95 280.9 180.3 282.8 180.3L386.8 180.3Q388.75 180.3 390.1 178.95 391.45 177.6 391.45 175.65L391.45 22.9Q391.45 21 390.1 19.6Z"/><path fill="#EEF1F3" stroke="none" d="M131.3 19.6Q129.9 18.25 128 18.25L23.95 18.25Q22.05 18.25 20.65 19.6 19.3 21 19.3 22.9L19.3 175.65Q19.3 177.6 20.65 178.95 22.05 180.3 23.95 180.3L128 180.3Q129.9 180.3 131.3 178.95 132.65 177.6 132.65 175.65L132.65 22.9Q132.65 21 131.3 19.6Z"/><path fill="#DBE3E8" stroke="none" d="M261.1 19.6Q259.75 18.25 257.8 18.25L153.8 18.25Q151.9 18.25 150.5 19.6 149.15 21 149.15 22.9L149.15 175.65Q149.15 177.6 150.5 178.95 151.9 180.3 153.8 180.3L257.8 180.3Q259.75 180.3 261.1 178.95 262.45 177.6 262.45 175.65L262.45 22.9Q262.45 21 261.1 19.6Z"/><animate attributeName="display" repeatCount="indefinite" dur="1s" keyTimes="0;.658;.667;1" values="none;inline;none;none"/></g><g display="none" id="Layer41_0_FILL"><path fill="#F2F4F6" stroke="none" d="M4.3 22.9Q4.3 21 2.95 19.6 1.6 18.25 -.3 18.25L-104.3 18.25Q-106.25 18.25 -107.6 19.6 -108.95 21 -108.95 22.9L-108.95 175.65Q-108.95 177.6 -107.6 178.95 -106.25 180.3 -104.3 180.3L-.3 180.3Q1.6 180.3 2.95 178.95 4.3 177.6 4.3 175.65L4.3 22.9M391.6 19.6Q390.25 18.25 388.3 18.25L284.3 18.25Q282.4 18.25 281 19.6 279.65 21 279.65 22.9L279.65 175.65Q279.65 177.6 281 178.95 282.4 180.3 284.3 180.3L388.3 180.3Q390.25 180.3 391.6 178.95 392.95 177.6 392.95 175.65L392.95 22.9Q392.95 21 391.6 19.6Z"/><path fill="#EEF1F3" stroke="none" d="M132.8 19.6Q131.4 18.25 129.5 18.25L25.45 18.25Q23.55 18.25 22.15 19.6 20.8 21 20.8 22.9L20.8 175.65Q20.8 177.6 22.15 178.95 23.55 180.3 25.45 180.3L129.5 180.3Q131.4 180.3 132.8 178.95 134.15 177.6 134.15 175.65L134.15 22.9Q134.15 21 132.8 19.6Z"/><path fill="#DBE3E8" stroke="none" d="M262.6 19.6Q261.25 18.25 259.3 18.25L155.3 18.25Q153.4 18.25 152 19.6 150.65 21 150.65 22.9L150.65 175.65Q150.65 177.6 152 178.95 153.4 180.3 155.3 180.3L259.3 180.3Q261.25 180.3 262.6 178.95 263.95 177.6 263.95 175.65L263.95 22.9Q263.95 21 262.6 19.6Z"/><animate attributeName="display" repeatCount="indefinite" dur="1s" keyTimes="0;.65;.658;1" values="none;inline;none;none"/></g><g display="none" id="Layer40_0_FILL"><path fill="#F2F4F6" stroke="none" d="M4.55 19.6Q3.2 18.25 1.3 18.25L-102.7 18.25Q-104.65 18.25 -106 19.6 -107.35 21 -107.35 22.9L-107.35 175.65Q-107.35 177.6 -106 178.95 -104.65 180.3 -102.7 180.3L1.3 180.3Q3.2 180.3 4.55 178.95 5.9 177.6 5.9 175.65L5.9 22.9Q5.9 21 4.55 19.6M393.2 19.6Q391.85 18.25 389.9 18.25L285.9 18.25Q284 18.25 282.6 19.6 281.25 21 281.25 22.9L281.25 175.65Q281.25 177.6 282.6 178.95 284 180.3 285.9 180.3L389.9 180.3Q391.85 180.3 393.2 178.95 394.55 177.6 394.55 175.65L394.55 22.9Q394.55 21 393.2 19.6Z"/><path fill="#EDF0F3" stroke="none" d="M134.4 19.6Q133 18.25 131.1 18.25L27.05 18.25Q25.15 18.25 23.75 19.6 22.4 21 22.4 22.9L22.4 175.65Q22.4 177.6 23.75 178.95 25.15 180.3 27.05 180.3L131.1 180.3Q133 180.3 134.4 178.95 135.75 177.6 135.75 175.65L135.75 22.9Q135.75 21 134.4 19.6Z"/><path fill="#DCE4E8" stroke="none" d="M264.2 19.6Q262.85 18.25 260.9 18.25L156.9 18.25Q155 18.25 153.6 19.6 152.25 21 152.25 22.9L152.25 175.65Q152.25 177.6 153.6 178.95 155 180.3 156.9 180.3L260.9 180.3Q262.85 180.3 264.2 178.95 265.55 177.6 265.55 175.65L265.55 22.9Q265.55 21 264.2 19.6Z"/><animate attributeName="display" repeatCount="indefinite" dur="1s" keyTimes="0;.642;.65;1" values="none;inline;none;none"/></g><g display="none" id="Layer39_0_FILL"><path fill="#F2F4F6" stroke="none" d="M6.3 19.6Q4.95 18.25 3.05 18.25L-100.95 18.25Q-102.9 18.25 -104.25 19.6 -105.6 21 -105.6 22.9L-105.6 175.65Q-105.6 177.6 -104.25 178.95 -102.9 180.3 -100.95 180.3L3.05 180.3Q4.95 180.3 6.3 178.95 7.65 177.6 7.65 175.65L7.65 22.9Q7.65 21 6.3 19.6M394.95 19.6Q393.6 18.25 391.65 18.25L287.65 18.25Q285.75 18.25 284.35 19.6 283 21 283 22.9L283 175.65Q283 177.6 284.35 178.95 285.75 180.3 287.65 180.3L391.65 180.3Q393.6 180.3 394.95 178.95 396.3 177.6 396.3 175.65L396.3 22.9Q396.3 21 394.95 19.6Z"/><path fill="#EDF0F3" stroke="none" d="M136.15 19.6Q134.75 18.25 132.85 18.25L28.8 18.25Q26.9 18.25 25.5 19.6 24.15 21 24.15 22.9L24.15 175.65Q24.15 177.6 25.5 178.95 26.9 180.3 28.8 180.3L132.85 180.3Q134.75 180.3 136.15 178.95 137.5 177.6 137.5 175.65L137.5 22.9Q137.5 21 136.15 19.6Z"/><path fill="#DCE4E8" stroke="none" d="M265.95 19.6Q264.6 18.25 262.65 18.25L158.65 18.25Q156.75 18.25 155.35 19.6 154 21 154 22.9L154 175.65Q154 177.6 155.35 178.95 156.75 180.3 158.65 180.3L262.65 180.3Q264.6 180.3 265.95 178.95 267.3 177.6 267.3 175.65L267.3 22.9Q267.3 21 265.95 19.6Z"/><animate attributeName="display" repeatCount="indefinite" dur="1s" keyTimes="0;.633;.642;1" values="none;inline;none;none"/></g><g display="none" id="Layer38_0_FILL"><path fill="#F2F4F6" stroke="none" d="M8.05 19.6Q6.7 18.25 4.8 18.25L-99.2 18.25Q-101.15 18.25 -102.5 19.6 -103.85 21 -103.85 22.9L-103.85 175.65Q-103.85 177.6 -102.5 178.95 -101.15 180.3 -99.2 180.3L4.8 180.3Q6.7 180.3 8.05 178.95 9.4 177.6 9.4 175.65L9.4 22.9Q9.4 21 8.05 19.6M396.7 19.6Q395.35 18.25 393.4 18.25L289.4 18.25Q287.5 18.25 286.1 19.6 284.75 21 284.75 22.9L284.75 175.65Q284.75 177.6 286.1 178.95 287.5 180.3 289.4 180.3L393.4 180.3Q395.35 180.3 396.7 178.95 398.05 177.6 398.05 175.65L398.05 22.9Q398.05 21 396.7 19.6Z"/><path fill="#EDF0F3" stroke="none" d="M137.9 19.6Q136.5 18.25 134.6 18.25L30.55 18.25Q28.65 18.25 27.25 19.6 25.9 21 25.9 22.9L25.9 175.65Q25.9 177.6 27.25 178.95 28.65 180.3 30.55 180.3L134.6 180.3Q136.5 180.3 137.9 178.95 139.25 177.6 139.25 175.65L139.25 22.9Q139.25 21 137.9 19.6Z"/><path fill="#DCE4E8" stroke="none" d="M267.7 19.6Q266.35 18.25 264.4 18.25L160.4 18.25Q158.5 18.25 157.1 19.6 155.75 21 155.75 22.9L155.75 175.65Q155.75 177.6 157.1 178.95 158.5 180.3 160.4 180.3L264.4 180.3Q266.35 180.3 267.7 178.95 269.05 177.6 269.05 175.65L269.05 22.9Q269.05 21 267.7 19.6Z"/><animate attributeName="display" repeatCount="indefinite" dur="1s" keyTimes="0;.625;.633;1" values="none;inline;none;none"/></g><g display="none" id="Layer37_0_FILL"><path fill="#F2F4F6" stroke="none" d="M9.8 19.6Q8.45 18.25 6.55 18.25L-97.45 18.25Q-99.4 18.25 -100.75 19.6 -102.1 21 -102.1 22.9L-102.1 175.65Q-102.1 177.6 -100.75 178.95 -99.4 180.3 -97.45 180.3L6.55 180.3Q8.45 180.3 9.8 178.95 11.15 177.6 11.15 175.65L11.15 22.9Q11.15 21 9.8 19.6M398.45 19.6Q397.1 18.25 395.15 18.25L291.15 18.25Q289.25 18.25 287.85 19.6 286.5 21 286.5 22.9L286.5 175.65Q286.5 177.6 287.85 178.95 289.25 180.3 291.15 180.3L395.15 180.3Q397.1 180.3 398.45 178.95 399.8 177.6 399.8 175.65L399.8 22.9Q399.8 21 398.45 19.6Z"/><path fill="#ECF0F2" stroke="none" d="M139.65 19.6Q138.25 18.25 136.35 18.25L32.3 18.25Q30.4 18.25 29 19.6 27.65 21 27.65 22.9L27.65 175.65Q27.65 177.6 29 178.95 30.4 180.3 32.3 180.3L136.35 180.3Q138.25 180.3 139.65 178.95 141 177.6 141 175.65L141 22.9Q141 21 139.65 19.6Z"/><path fill="#DDE4E9" stroke="none" d="M269.45 19.6Q268.1 18.25 266.15 18.25L162.15 18.25Q160.25 18.25 158.85 19.6 157.5 21 157.5 22.9L157.5 175.65Q157.5 177.6 158.85 178.95 160.25 180.3 162.15 180.3L266.15 180.3Q268.1 180.3 269.45 178.95 270.8 177.6 270.8 175.65L270.8 22.9Q270.8 21 269.45 19.6Z"/><animate attributeName="display" repeatCount="indefinite" dur="1s" keyTimes="0;.617;.625;1" values="none;inline;none;none"/></g><g display="none" id="Layer36_0_FILL"><path fill="#F2F4F6" stroke="none" d="M11.8 19.6Q10.45 18.25 8.55 18.25L-95.45 18.25Q-97.4 18.25 -98.75 19.6 -100.1 21 -100.1 22.9L-100.1 175.65Q-100.1 177.6 -98.75 178.95 -97.4 180.3 -95.45 180.3L8.55 180.3Q10.45 180.3 11.8 178.95 13.15 177.6 13.15 175.65L13.15 22.9Q13.15 21 11.8 19.6M400.45 19.6Q399.1 18.25 397.15 18.25L293.15 18.25Q291.25 18.25 289.85 19.6 288.5 21 288.5 22.9L288.5 175.65Q288.5 177.6 289.85 178.95 291.25 180.3 293.15 180.3L397.15 180.3Q399.1 180.3 400.45 178.95 401.8 177.6 401.8 175.65L401.8 22.9Q401.8 21 400.45 19.6Z"/><path fill="#ECEFF2" stroke="none" d="M141.65 19.6Q140.25 18.25 138.35 18.25L34.3 18.25Q32.4 18.25 31 19.6 29.65 21 29.65 22.9L29.65 175.65Q29.65 177.6 31 178.95 32.4 180.3 34.3 180.3L138.35 180.3Q140.25 180.3 141.65 178.95 143 177.6 143 175.65L143 22.9Q143 21 141.65 19.6Z"/><path fill="#DDE5E9" stroke="none" d="M272.8 22.9Q272.8 21 271.45 19.6 270.1 18.25 268.15 18.25L164.15 18.25Q162.25 18.25 160.85 19.6 159.5 21 159.5 22.9L159.5 175.65Q159.5 177.6 160.85 178.95 162.25 180.3 164.15 180.3L268.15 180.3Q270.1 180.3 271.45 178.95 272.8 177.6 272.8 175.65L272.8 22.9Z"/><animate attributeName="display" repeatCount="indefinite" dur="1s" keyTimes="0;.608;.617;1" values="none;inline;none;none"/></g><g display="none" id="Layer35_0_FILL"><path fill="#F2F4F6" stroke="none" d="M13.8 19.6Q12.45 18.25 10.55 18.25L-93.45 18.25Q-95.4 18.25 -96.75 19.6 -98.1 21 -98.1 22.9L-98.1 175.65Q-98.1 177.6 -96.75 178.95 -95.4 180.3 -93.45 180.3L10.55 180.3Q12.45 180.3 13.8 178.95 15.15 177.6 15.15 175.65L15.15 22.9Q15.15 21 13.8 19.6M402.45 19.6Q401.1 18.25 399.15 18.25L295.15 18.25Q293.25 18.25 291.85 19.6 290.5 21 290.5 22.9L290.5 175.65Q290.5 177.6 291.85 178.95 293.25 180.3 295.15 180.3L399.15 180.3Q401.1 180.3 402.45 178.95 403.8 177.6 403.8 175.65L403.8 22.9Q403.8 21 402.45 19.6Z"/><path fill="#EBEFF2" stroke="none" d="M143.65 19.6Q142.25 18.25 140.35 18.25L36.3 18.25Q34.4 18.25 33 19.6 31.65 21 31.65 22.9L31.65 175.65Q31.65 177.6 33 178.95 34.4 180.3 36.3 180.3L140.35 180.3Q142.25 180.3 143.65 178.95 145 177.6 145 175.65L145 22.9Q145 21 143.65 19.6Z"/><path fill="#DEE5E9" stroke="none" d="M273.45 19.6Q272.1 18.25 270.15 18.25L166.15 18.25Q164.25 18.25 162.85 19.6 161.5 21 161.5 22.9L161.5 175.65Q161.5 177.6 162.85 178.95 164.25 180.3 166.15 180.3L270.15 180.3Q272.1 180.3 273.45 178.95 274.8 177.6 274.8 175.65L274.8 22.9Q274.8 21 273.45 19.6Z"/><animate attributeName="display" repeatCount="indefinite" dur="1s" keyTimes="0;.6;.608;1" values="none;inline;none;none"/></g><g display="none" id="Layer34_0_FILL"><path fill="#F2F4F6" stroke="none" d="M15.9 19.6Q14.55 18.25 12.65 18.25L-91.35 18.25Q-93.3 18.25 -94.65 19.6 -96 21 -96 22.9L-96 175.65Q-96 177.6 -94.65 178.95 -93.3 180.3 -91.35 180.3L12.65 180.3Q14.55 180.3 15.9 178.95 17.25 177.6 17.25 175.65L17.25 22.9Q17.25 21 15.9 19.6M404.55 19.6Q403.2 18.25 401.25 18.25L297.25 18.25Q295.35 18.25 293.95 19.6 292.6 21 292.6 22.9L292.6 175.65Q292.6 177.6 293.95 178.95 295.35 180.3 297.25 180.3L401.25 180.3Q403.2 180.3 404.55 178.95 405.9 177.6 405.9 175.65L405.9 22.9Q405.9 21 404.55 19.6Z"/><path fill="#EBEFF2" stroke="none" d="M145.75 19.6Q144.35 18.25 142.45 18.25L38.4 18.25Q36.5 18.25 35.1 19.6 33.75 21 33.75 22.9L33.75 175.65Q33.75 177.6 35.1 178.95 36.5 180.3 38.4 180.3L142.45 180.3Q144.35 180.3 145.75 178.95 147.1 177.6 147.1 175.65L147.1 22.9Q147.1 21 145.75 19.6Z"/><path fill="#DEE5E9" stroke="none" d="M275.55 19.6Q274.2 18.25 272.25 18.25L168.25 18.25Q166.35 18.25 164.95 19.6 163.6 21 163.6 22.9L163.6 175.65Q163.6 177.6 164.95 178.95 166.35 180.3 168.25 180.3L272.25 180.3Q274.2 180.3 275.55 178.95 276.9 177.6 276.9 175.65L276.9 22.9Q276.9 21 275.55 19.6Z"/><animate attributeName="display" repeatCount="indefinite" dur="1s" keyTimes="0;.592;.6;1" values="none;inline;none;none"/></g><g display="none" id="Layer33_0_FILL"><path fill="#F2F4F6" stroke="none" d="M18.05 19.6Q16.7 18.25 14.8 18.25L-89.2 18.25Q-91.15 18.25 -92.5 19.6 -93.85 21 -93.85 22.9L-93.85 175.65Q-93.85 177.6 -92.5 178.95 -91.15 180.3 -89.2 180.3L14.8 180.3Q16.7 180.3 18.05 178.95 19.4 177.6 19.4 175.65L19.4 22.9Q19.4 21 18.05 19.6M408.05 22.9Q408.05 21 406.7 19.6 405.35 18.25 403.4 18.25L299.4 18.25Q297.5 18.25 296.1 19.6 294.75 21 294.75 22.9L294.75 175.65Q294.75 177.6 296.1 178.95 297.5 180.3 299.4 180.3L403.4 180.3Q405.35 180.3 406.7 178.95 408.05 177.6 408.05 175.65L408.05 22.9Z"/><path fill="#EAEEF1" stroke="none" d="M147.9 19.6Q146.5 18.25 144.6 18.25L40.55 18.25Q38.65 18.25 37.25 19.6 35.9 21 35.9 22.9L35.9 175.65Q35.9 177.6 37.25 178.95 38.65 180.3 40.55 180.3L144.6 180.3Q146.5 180.3 147.9 178.95 149.25 177.6 149.25 175.65L149.25 22.9Q149.25 21 147.9 19.6Z"/><path fill="#DFE6EA" stroke="none" d="M277.7 19.6Q276.35 18.25 274.4 18.25L170.4 18.25Q168.5 18.25 167.1 19.6 165.75 21 165.75 22.9L165.75 175.65Q165.75 177.6 167.1 178.95 168.5 180.3 170.4 180.3L274.4 180.3Q276.35 180.3 277.7 178.95 279.05 177.6 279.05 175.65L279.05 22.9Q279.05 21 277.7 19.6Z"/><animate attributeName="display" repeatCount="indefinite" dur="1s" keyTimes="0;.583;.592;1" values="none;inline;none;none"/></g><g display="none" id="Layer32_0_FILL"><path fill="#F2F4F6" stroke="none" d="M20.3 19.6Q18.95 18.25 17.05 18.25L-86.95 18.25Q-88.9 18.25 -90.25 19.6 -91.6 21 -91.6 22.9L-91.6 175.65Q-91.6 177.6 -90.25 178.95 -88.9 180.3 -86.95 180.3L17.05 180.3Q18.95 180.3 20.3 178.95 21.65 177.6 21.65 175.65L21.65 22.9Q21.65 21 20.3 19.6M408.95 19.6Q407.6 18.25 405.65 18.25L301.65 18.25Q299.75 18.25 298.35 19.6 297 21 297 22.9L297 175.65Q297 177.6 298.35 178.95 299.75 180.3 301.65 180.3L405.65 180.3Q407.6 180.3 408.95 178.95 410.3 177.6 410.3 175.65L410.3 22.9Q410.3 21 408.95 19.6Z"/><path fill="#EAEEF1" stroke="none" d="M150.15 19.6Q148.75 18.25 146.85 18.25L42.8 18.25Q40.9 18.25 39.5 19.6 38.15 21 38.15 22.9L38.15 175.65Q38.15 177.6 39.5 178.95 40.9 180.3 42.8 180.3L146.85 180.3Q148.75 180.3 150.15 178.95 151.5 177.6 151.5 175.65L151.5 22.9Q151.5 21 150.15 19.6Z"/><path fill="#DFE6EA" stroke="none" d="M279.95 19.6Q278.6 18.25 276.65 18.25L172.65 18.25Q170.75 18.25 169.35 19.6 168 21 168 22.9L168 175.65Q168 177.6 169.35 178.95 170.75 180.3 172.65 180.3L276.65 180.3Q278.6 180.3 279.95 178.95 281.3 177.6 281.3 175.65L281.3 22.9Q281.3 21 279.95 19.6Z"/><animate attributeName="display" repeatCount="indefinite" dur="1s" keyTimes="0;.575;.583;1" values="none;inline;none;none"/></g><g display="none" id="Layer31_0_FILL"><path fill="#F2F4F6" stroke="none" d="M22.65 19.6Q21.3 18.25 19.4 18.25L-84.6 18.25Q-86.55 18.25 -87.9 19.6 -89.25 21 -89.25 22.9L-89.25 175.65Q-89.25 177.6 -87.9 178.95 -86.55 180.3 -84.6 180.3L19.4 180.3Q21.3 180.3 22.65 178.95 24 177.6 24 175.65L24 22.9Q24 21 22.65 19.6M411.3 19.6Q409.95 18.25 408 18.25L304 18.25Q302.1 18.25 300.7 19.6 299.35 21 299.35 22.9L299.35 175.65Q299.35 177.6 300.7 178.95 302.1 180.3 304 180.3L408 180.3Q409.95 180.3 411.3 178.95 412.65 177.6 412.65 175.65L412.65 22.9Q412.65 21 411.3 19.6Z"/><path fill="#EAEEF1" stroke="none" d="M152.5 19.6Q151.1 18.25 149.2 18.25L45.15 18.25Q43.25 18.25 41.85 19.6 40.5 21 40.5 22.9L40.5 175.65Q40.5 177.6 41.85 178.95 43.25 180.3 45.15 180.3L149.2 180.3Q151.1 180.3 152.5 178.95 153.85 177.6 153.85 175.65L153.85 22.9Q153.85 21 152.5 19.6Z"/><path fill="#DFE6EA" stroke="none" d="M282.3 19.6Q280.95 18.25 279 18.25L175 18.25Q173.1 18.25 171.7 19.6 170.35 21 170.35 22.9L170.35 175.65Q170.35 177.6 171.7 178.95 173.1 180.3 175 180.3L279 180.3Q280.95 180.3 282.3 178.95 283.65 177.6 283.65 175.65L283.65 22.9Q283.65 21 282.3 19.6Z"/><animate attributeName="display" repeatCount="indefinite" dur="1s" keyTimes="0;.567;.575;1" values="none;inline;none;none"/></g><g display="none" id="Layer30_0_FILL"><path fill="#F2F4F6" stroke="none" d="M25.15 19.6Q23.8 18.25 21.9 18.25L-82.1 18.25Q-84.05 18.25 -85.4 19.6 -86.75 21 -86.75 22.9L-86.75 175.65Q-86.75 177.6 -85.4 178.95 -84.05 180.3 -82.1 180.3L21.9 180.3Q23.8 180.3 25.15 178.95 26.5 177.6 26.5 175.65L26.5 22.9Q26.5 21 25.15 19.6M413.8 19.6Q412.45 18.25 410.5 18.25L306.5 18.25Q304.6 18.25 303.2 19.6 301.85 21 301.85 22.9L301.85 175.65Q301.85 177.6 303.2 178.95 304.6 180.3 306.5 180.3L410.5 180.3Q412.45 180.3 413.8 178.95 415.15 177.6 415.15 175.65L415.15 22.9Q415.15 21 413.8 19.6Z"/><path fill="#E9EDF0" stroke="none" d="M155 19.6Q153.6 18.25 151.7 18.25L47.65 18.25Q45.75 18.25 44.35 19.6 43 21 43 22.9L43 175.65Q43 177.6 44.35 178.95 45.75 180.3 47.65 180.3L151.7 180.3Q153.6 180.3 155 178.95 156.35 177.6 156.35 175.65L156.35 22.9Q156.35 21 155 19.6Z"/><path fill="#E0E7EB" stroke="none" d="M286.15 22.9Q286.15 21 284.8 19.6 283.45 18.25 281.5 18.25L177.5 18.25Q175.6 18.25 174.2 19.6 172.85 21 172.85 22.9L172.85 175.65Q172.85 177.6 174.2 178.95 175.6 180.3 177.5 180.3L281.5 180.3Q283.45 180.3 284.8 178.95 286.15 177.6 286.15 175.65L286.15 22.9Z"/><animate attributeName="display" repeatCount="indefinite" dur="1s" keyTimes="0;.558;.567;1" values="none;inline;none;none"/></g><g display="none" id="Layer29_0_FILL"><path fill="#F2F4F6" stroke="none" d="M27.65 19.6Q26.3 18.25 24.4 18.25L-79.6 18.25Q-81.55 18.25 -82.9 19.6 -84.25 21 -84.25 22.9L-84.25 175.65Q-84.25 177.6 -82.9 178.95 -81.55 180.3 -79.6 180.3L24.4 180.3Q26.3 180.3 27.65 178.95 29 177.6 29 175.65L29 22.9Q29 21 27.65 19.6M416.3 19.6Q414.95 18.25 413 18.25L309 18.25Q307.1 18.25 305.7 19.6 304.35 21 304.35 22.9L304.35 175.65Q304.35 177.6 305.7 178.95 307.1 180.3 309 180.3L413 180.3Q414.95 180.3 416.3 178.95 417.65 177.6 417.65 175.65L417.65 22.9Q417.65 21 416.3 19.6Z"/><path fill="#E8EDF0" stroke="none" d="M158.85 22.9Q158.85 21 157.5 19.6 156.1 18.25 154.2 18.25L50.15 18.25Q48.25 18.25 46.85 19.6 45.5 21 45.5 22.9L45.5 175.65Q45.5 177.6 46.85 178.95 48.25 180.3 50.15 180.3L154.2 180.3Q156.1 180.3 157.5 178.95 158.85 177.6 158.85 175.65L158.85 22.9Z"/><path fill="#E1E7EB" stroke="none" d="M287.3 19.6Q285.95 18.25 284 18.25L180 18.25Q178.1 18.25 176.7 19.6 175.35 21 175.35 22.9L175.35 175.65Q175.35 177.6 176.7 178.95 178.1 180.3 180 180.3L284 180.3Q285.95 180.3 287.3 178.95 288.65 177.6 288.65 175.65L288.65 22.9Q288.65 21 287.3 19.6Z"/><animate attributeName="display" repeatCount="indefinite" dur="1s" keyTimes="0;.55;.558;1" values="none;inline;none;none"/></g><g display="none" id="Layer28_0_FILL"><path fill="#F2F4F6" stroke="none" d="M30.3 19.6Q28.95 18.25 27.05 18.25L-76.95 18.25Q-78.9 18.25 -80.25 19.6 -81.6 21 -81.6 22.9L-81.6 175.65Q-81.6 177.6 -80.25 178.95 -78.9 180.3 -76.95 180.3L27.05 180.3Q28.95 180.3 30.3 178.95 31.65 177.6 31.65 175.65L31.65 22.9Q31.65 21 30.3 19.6M418.95 19.6Q417.6 18.25 415.65 18.25L311.65 18.25Q309.75 18.25 308.35 19.6 307 21 307 22.9L307 175.65Q307 177.6 308.35 178.95 309.75 180.3 311.65 180.3L415.65 180.3Q417.6 180.3 418.95 178.95 420.3 177.6 420.3 175.65L420.3 22.9Q420.3 21 418.95 19.6Z"/><path fill="#E8EDF0" stroke="none" d="M160.15 19.6Q158.75 18.25 156.85 18.25L52.8 18.25Q50.9 18.25 49.5 19.6 48.15 21 48.15 22.9L48.15 175.65Q48.15 177.6 49.5 178.95 50.9 180.3 52.8 180.3L156.85 180.3Q158.75 180.3 160.15 178.95 161.5 177.6 161.5 175.65L161.5 22.9Q161.5 21 160.15 19.6Z"/><path fill="#E1E7EB" stroke="none" d="M289.95 19.6Q288.6 18.25 286.65 18.25L182.65 18.25Q180.75 18.25 179.35 19.6 178 21 178 22.9L178 175.65Q178 177.6 179.35 178.95 180.75 180.3 182.65 180.3L286.65 180.3Q288.6 180.3 289.95 178.95 291.3 177.6 291.3 175.65L291.3 22.9Q291.3 21 289.95 19.6Z"/><animate attributeName="display" repeatCount="indefinite" dur="1s" keyTimes="0;.542;.55;1" values="none;inline;none;none"/></g><g display="none" id="Layer27_0_FILL"><path fill="#F2F4F6" stroke="none" d="M33.05 19.6Q31.7 18.25 29.8 18.25L-74.2 18.25Q-76.15 18.25 -77.5 19.6 -78.85 21 -78.85 22.9L-78.85 175.65Q-78.85 177.6 -77.5 178.95 -76.15 180.3 -74.2 180.3L29.8 180.3Q31.7 180.3 33.05 178.95 34.4 177.6 34.4 175.65L34.4 22.9Q34.4 21 33.05 19.6M421.7 19.6Q420.35 18.25 418.4 18.25L314.4 18.25Q312.5 18.25 311.1 19.6 309.75 21 309.75 22.9L309.75 175.65Q309.75 177.6 311.1 178.95 312.5 180.3 314.4 180.3L418.4 180.3Q420.35 180.3 421.7 178.95 423.05 177.6 423.05 175.65L423.05 22.9Q423.05 21 421.7 19.6Z"/><path fill="#E7ECEF" stroke="none" d="M164.25 22.9Q164.25 21 162.9 19.6 161.5 18.25 159.6 18.25L55.55 18.25Q53.65 18.25 52.25 19.6 50.9 21 50.9 22.9L50.9 175.65Q50.9 177.6 52.25 178.95 53.65 180.3 55.55 180.3L159.6 180.3Q161.5 180.3 162.9 178.95 164.25 177.6 164.25 175.65L164.25 22.9Z"/><path fill="#E2E8EC" stroke="none" d="M292.7 19.6Q291.35 18.25 289.4 18.25L185.4 18.25Q183.5 18.25 182.1 19.6 180.75 21 180.75 22.9L180.75 175.65Q180.75 177.6 182.1 178.95 183.5 180.3 185.4 180.3L289.4 180.3Q291.35 180.3 292.7 178.95 294.05 177.6 294.05 175.65L294.05 22.9Q294.05 21 292.7 19.6Z"/><animate attributeName="display" repeatCount="indefinite" dur="1s" keyTimes="0;.533;.542;1" values="none;inline;none;none"/></g><g display="none" id="Layer26_0_FILL"><path fill="#F2F4F6" stroke="none" d="M35.9 19.6Q34.55 18.25 32.65 18.25L-71.35 18.25Q-73.3 18.25 -74.65 19.6 -76 21 -76 22.9L-76 175.65Q-76 177.6 -74.65 178.95 -73.3 180.3 -71.35 180.3L32.65 180.3Q34.55 180.3 35.9 178.95 37.25 177.6 37.25 175.65L37.25 22.9Q37.25 21 35.9 19.6M424.55 19.6Q423.2 18.25 421.25 18.25L317.25 18.25Q315.35 18.25 313.95 19.6 312.6 21 312.6 22.9L312.6 175.65Q312.6 177.6 313.95 178.95 315.35 180.3 317.25 180.3L421.25 180.3Q423.2 180.3 424.55 178.95 425.9 177.6 425.9 175.65L425.9 22.9Q425.9 21 424.55 19.6Z"/><path fill="#E7ECEF" stroke="none" d="M165.75 19.6Q164.35 18.25 162.45 18.25L58.4 18.25Q56.5 18.25 55.1 19.6 53.75 21 53.75 22.9L53.75 175.65Q53.75 177.6 55.1 178.95 56.5 180.3 58.4 180.3L162.45 180.3Q164.35 180.3 165.75 178.95 167.1 177.6 167.1 175.65L167.1 22.9Q167.1 21 165.75 19.6Z"/><path fill="#E2E8EC" stroke="none" d="M295.55 19.6Q294.2 18.25 292.25 18.25L188.25 18.25Q186.35 18.25 184.95 19.6 183.6 21 183.6 22.9L183.6 175.65Q183.6 177.6 184.95 178.95 186.35 180.3 188.25 180.3L292.25 180.3Q294.2 180.3 295.55 178.95 296.9 177.6 296.9 175.65L296.9 22.9Q296.9 21 295.55 19.6Z"/><animate attributeName="display" repeatCount="indefinite" dur="1s" keyTimes="0;.525;.533;1" values="none;inline;none;none"/></g><g display="none" id="Layer25_0_FILL"><path fill="#F2F4F6" stroke="none" d="M38.9 19.6Q37.55 18.25 35.65 18.25L-68.35 18.25Q-70.3 18.25 -71.65 19.6 -73 21 -73 22.9L-73 175.65Q-73 177.6 -71.65 178.95 -70.3 180.3 -68.35 180.3L35.65 180.3Q37.55 180.3 38.9 178.95 40.25 177.6 40.25 175.65L40.25 22.9Q40.25 21 38.9 19.6M427.55 19.6Q426.2 18.25 424.25 18.25L320.25 18.25Q318.35 18.25 316.95 19.6 315.6 21 315.6 22.9L315.6 175.65Q315.6 177.6 316.95 178.95 318.35 180.3 320.25 180.3L424.25 180.3Q426.2 180.3 427.55 178.95 428.9 177.6 428.9 175.65L428.9 22.9Q428.9 21 427.55 19.6Z"/><path fill="#E6EBEF" stroke="none" d="M168.75 19.6Q167.35 18.25 165.45 18.25L61.4 18.25Q59.5 18.25 58.1 19.6 56.75 21 56.75 22.9L56.75 175.65Q56.75 177.6 58.1 178.95 59.5 180.3 61.4 180.3L165.45 180.3Q167.35 180.3 168.75 178.95 170.1 177.6 170.1 175.65L170.1 22.9Q170.1 21 168.75 19.6Z"/><path fill="#E3E9EC" stroke="none" d="M298.55 19.6Q297.2 18.25 295.25 18.25L191.25 18.25Q189.35 18.25 187.95 19.6 186.6 21 186.6 22.9L186.6 175.65Q186.6 177.6 187.95 178.95 189.35 180.3 191.25 180.3L295.25 180.3Q297.2 180.3 298.55 178.95 299.9 177.6 299.9 175.65L299.9 22.9Q299.9 21 298.55 19.6Z"/><animate attributeName="display" repeatCount="indefinite" dur="1s" keyTimes="0;.517;.525;1" values="none;inline;none;none"/></g><g display="none" id="Layer24_0_FILL"><path fill="#F2F4F6" stroke="none" d="M43.25 22.9Q43.25 21 41.9 19.6 40.55 18.25 38.65 18.25L-65.35 18.25Q-67.3 18.25 -68.65 19.6 -70 21 -70 22.9L-70 175.65Q-70 177.6 -68.65 178.95 -67.3 180.3 -65.35 180.3L38.65 180.3Q40.55 180.3 41.9 178.95 43.25 177.6 43.25 175.65L43.25 22.9M430.55 19.6Q429.2 18.25 427.25 18.25L323.25 18.25Q321.35 18.25 319.95 19.6 318.6 21 318.6 22.9L318.6 175.65Q318.6 177.6 319.95 178.95 321.35 180.3 323.25 180.3L427.25 180.3Q429.2 180.3 430.55 178.95 431.9 177.6 431.9 175.65L431.9 22.9Q431.9 21 430.55 19.6Z"/><path fill="#E6EBEE" stroke="none" d="M171.75 19.6Q170.35 18.25 168.45 18.25L64.4 18.25Q62.5 18.25 61.1 19.6 59.75 21 59.75 22.9L59.75 175.65Q59.75 177.6 61.1 178.95 62.5 180.3 64.4 180.3L168.45 180.3Q170.35 180.3 171.75 178.95 173.1 177.6 173.1 175.65L173.1 22.9Q173.1 21 171.75 19.6Z"/><path fill="#E3E9ED" stroke="none" d="M301.55 19.6Q300.2 18.25 298.25 18.25L194.25 18.25Q192.35 18.25 190.95 19.6 189.6 21 189.6 22.9L189.6 175.65Q189.6 177.6 190.95 178.95 192.35 180.3 194.25 180.3L298.25 180.3Q300.2 180.3 301.55 178.95 302.9 177.6 302.9 175.65L302.9 22.9Q302.9 21 301.55 19.6Z"/><animate attributeName="display" repeatCount="indefinite" dur="1s" keyTimes="0;.508;.517;1" values="none;inline;none;none"/></g><g display="none" id="Layer23_0_FILL"><path fill="#F2F4F6" stroke="none" d="M46.5 22.9Q46.5 21 45.15 19.6 43.8 18.25 41.9 18.25L-62.1 18.25Q-64.05 18.25 -65.4 19.6 -66.75 21 -66.75 22.9L-66.75 175.65Q-66.75 177.6 -65.4 178.95 -64.05 180.3 -62.1 180.3L41.9 180.3Q43.8 180.3 45.15 178.95 46.5 177.6 46.5 175.65L46.5 22.9M433.8 19.6Q432.45 18.25 430.5 18.25L326.5 18.25Q324.6 18.25 323.2 19.6 321.85 21 321.85 22.9L321.85 175.65Q321.85 177.6 323.2 178.95 324.6 180.3 326.5 180.3L430.5 180.3Q432.45 180.3 433.8 178.95 435.15 177.6 435.15 175.65L435.15 22.9Q435.15 21 433.8 19.6Z"/><path fill="#E5EAEE" stroke="none" d="M175 19.6Q173.6 18.25 171.7 18.25L67.65 18.25Q65.75 18.25 64.35 19.6 63 21 63 22.9L63 175.65Q63 177.6 64.35 178.95 65.75 180.3 67.65 180.3L171.7 180.3Q173.6 180.3 175 178.95 176.35 177.6 176.35 175.65L176.35 22.9Q176.35 21 175 19.6Z"/><path fill="#E4EAED" stroke="none" d="M304.8 19.6Q303.45 18.25 301.5 18.25L197.5 18.25Q195.6 18.25 194.2 19.6 192.85 21 192.85 22.9L192.85 175.65Q192.85 177.6 194.2 178.95 195.6 180.3 197.5 180.3L301.5 180.3Q303.45 180.3 304.8 178.95 306.15 177.6 306.15 175.65L306.15 22.9Q306.15 21 304.8 19.6Z"/><animate attributeName="display" repeatCount="indefinite" dur="1s" keyTimes="0;.5;.508;1" values="none;inline;none;none"/></g><g display="none" id="Layer22_0_FILL"><path fill="#F2F4F6" stroke="none" d="M48.4 19.6Q47.05 18.25 45.15 18.25L-58.85 18.25Q-60.8 18.25 -62.15 19.6 -63.5 21 -63.5 22.9L-63.5 175.65Q-63.5 177.6 -62.15 178.95 -60.8 180.3 -58.85 180.3L45.15 180.3Q47.05 180.3 48.4 178.95 49.75 177.6 49.75 175.65L49.75 22.9Q49.75 21 48.4 19.6M437.05 19.6Q435.7 18.25 433.75 18.25L329.75 18.25Q327.85 18.25 326.45 19.6 325.1 21 325.1 22.9L325.1 175.65Q325.1 177.6 326.45 178.95 327.85 180.3 329.75 180.3L433.75 180.3Q435.7 180.3 437.05 178.95 438.4 177.6 438.4 175.65L438.4 22.9Q438.4 21 437.05 19.6Z"/><path fill="#E4EAED" stroke="none" d="M178.25 19.6Q176.85 18.25 174.95 18.25L70.9 18.25Q69 18.25 67.6 19.6 66.25 21 66.25 22.9L66.25 175.65Q66.25 177.6 67.6 178.95 69 180.3 70.9 180.3L174.95 180.3Q176.85 180.3 178.25 178.95 179.6 177.6 179.6 175.65L179.6 22.9Q179.6 21 178.25 19.6Z"/><path fill="#E5EAEE" stroke="none" d="M308.05 19.6Q306.7 18.25 304.75 18.25L200.75 18.25Q198.85 18.25 197.45 19.6 196.1 21 196.1 22.9L196.1 175.65Q196.1 177.6 197.45 178.95 198.85 180.3 200.75 180.3L304.75 180.3Q306.7 180.3 308.05 178.95 309.4 177.6 309.4 175.65L309.4 22.9Q309.4 21 308.05 19.6Z"/><animate attributeName="display" repeatCount="indefinite" dur="1s" keyTimes="0;.492;.5;1" values="none;inline;none;none"/></g><g display="none" id="Layer21_0_FILL"><path fill="#F2F4F6" stroke="none" d="M51.8 19.6Q50.45 18.25 48.55 18.25L-55.45 18.25Q-57.4 18.25 -58.75 19.6 -60.1 21 -60.1 22.9L-60.1 175.65Q-60.1 177.6 -58.75 178.95 -57.4 180.3 -55.45 180.3L48.55 180.3Q50.45 180.3 51.8 178.95 53.15 177.6 53.15 175.65L53.15 22.9Q53.15 21 51.8 19.6M440.45 19.6Q439.1 18.25 437.15 18.25L333.15 18.25Q331.25 18.25 329.85 19.6 328.5 21 328.5 22.9L328.5 175.65Q328.5 177.6 329.85 178.95 331.25 180.3 333.15 180.3L437.15 180.3Q439.1 180.3 440.45 178.95 441.8 177.6 441.8 175.65L441.8 22.9Q441.8 21 440.45 19.6Z"/><path fill="#E3E9ED" stroke="none" d="M181.65 19.6Q180.25 18.25 178.35 18.25L74.3 18.25Q72.4 18.25 71 19.6 69.65 21 69.65 22.9L69.65 175.65Q69.65 177.6 71 178.95 72.4 180.3 74.3 180.3L178.35 180.3Q180.25 180.3 181.65 178.95 183 177.6 183 175.65L183 22.9Q183 21 181.65 19.6Z"/><path fill="#E6EBEE" stroke="none" d="M311.45 19.6Q310.1 18.25 308.15 18.25L204.15 18.25Q202.25 18.25 200.85 19.6 199.5 21 199.5 22.9L199.5 175.65Q199.5 177.6 200.85 178.95 202.25 180.3 204.15 180.3L308.15 180.3Q310.1 180.3 311.45 178.95 312.8 177.6 312.8 175.65L312.8 22.9Q312.8 21 311.45 19.6Z"/><animate attributeName="display" repeatCount="indefinite" dur="1s" keyTimes="0;.483;.492;1" values="none;inline;none;none"/></g><g display="none" id="Layer20_0_FILL"><path fill="#F2F4F6" stroke="none" d="M55.3 19.6Q53.95 18.25 52.05 18.25L-51.95 18.25Q-53.9 18.25 -55.25 19.6 -56.6 21 -56.6 22.9L-56.6 175.65Q-56.6 177.6 -55.25 178.95 -53.9 180.3 -51.95 180.3L52.05 180.3Q53.95 180.3 55.3 178.95 56.65 177.6 56.65 175.65L56.65 22.9Q56.65 21 55.3 19.6M443.95 19.6Q442.6 18.25 440.65 18.25L336.65 18.25Q334.75 18.25 333.35 19.6 332 21 332 22.9L332 175.65Q332 177.6 333.35 178.95 334.75 180.3 336.65 180.3L440.65 180.3Q442.6 180.3 443.95 178.95 445.3 177.6 445.3 175.65L445.3 22.9Q445.3 21 443.95 19.6Z"/><path fill="#E3E9EC" stroke="none" d="M185.15 19.6Q183.75 18.25 181.85 18.25L77.8 18.25Q75.9 18.25 74.5 19.6 73.15 21 73.15 22.9L73.15 175.65Q73.15 177.6 74.5 178.95 75.9 180.3 77.8 180.3L181.85 180.3Q183.75 180.3 185.15 178.95 186.5 177.6 186.5 175.65L186.5 22.9Q186.5 21 185.15 19.6Z"/><path fill="#E6EBEF" stroke="none" d="M314.95 19.6Q313.6 18.25 311.65 18.25L207.65 18.25Q205.75 18.25 204.35 19.6 203 21 203 22.9L203 175.65Q203 177.6 204.35 178.95 205.75 180.3 207.65 180.3L311.65 180.3Q313.6 180.3 314.95 178.95 316.3 177.6 316.3 175.65L316.3 22.9Q316.3 21 314.95 19.6Z"/><animate attributeName="display" repeatCount="indefinite" dur="1s" keyTimes="0;.475;.483;1" values="none;inline;none;none"/></g><g display="none" id="Layer19_0_FILL"><path fill="#F2F4F6" stroke="none" d="M58.9 19.6Q57.55 18.25 55.65 18.25L-48.35 18.25Q-50.3 18.25 -51.65 19.6 -53 21 -53 22.9L-53 175.65Q-53 177.6 -51.65 178.95 -50.3 180.3 -48.35 180.3L55.65 180.3Q57.55 180.3 58.9 178.95 60.25 177.6 60.25 175.65L60.25 22.9Q60.25 21 58.9 19.6M448.9 22.9Q448.9 21 447.55 19.6 446.2 18.25 444.25 18.25L340.25 18.25Q338.35 18.25 336.95 19.6 335.6 21 335.6 22.9L335.6 175.65Q335.6 177.6 336.95 178.95 338.35 180.3 340.25 180.3L444.25 180.3Q446.2 180.3 447.55 178.95 448.9 177.6 448.9 175.65L448.9 22.9Z"/><path fill="#E2E8EC" stroke="none" d="M188.75 19.6Q187.35 18.25 185.45 18.25L81.4 18.25Q79.5 18.25 78.1 19.6 76.75 21 76.75 22.9L76.75 175.65Q76.75 177.6 78.1 178.95 79.5 180.3 81.4 180.3L185.45 180.3Q187.35 180.3 188.75 178.95 190.1 177.6 190.1 175.65L190.1 22.9Q190.1 21 188.75 19.6Z"/><path fill="#E7ECEF" stroke="none" d="M318.55 19.6Q317.2 18.25 315.25 18.25L211.25 18.25Q209.35 18.25 207.95 19.6 206.6 21 206.6 22.9L206.6 175.65Q206.6 177.6 207.95 178.95 209.35 180.3 211.25 180.3L315.25 180.3Q317.2 180.3 318.55 178.95 319.9 177.6 319.9 175.65L319.9 22.9Q319.9 21 318.55 19.6Z"/><animate attributeName="display" repeatCount="indefinite" dur="1s" keyTimes="0;.467;.475;1" values="none;inline;none;none"/></g><g display="none" id="Layer18_0_FILL"><path fill="#F2F4F6" stroke="none" d="M62.65 19.6Q61.3 18.25 59.4 18.25L-44.6 18.25Q-46.55 18.25 -47.9 19.6 -49.25 21 -49.25 22.9L-49.25 175.65Q-49.25 177.6 -47.9 178.95 -46.55 180.3 -44.6 180.3L59.4 180.3Q61.3 180.3 62.65 178.95 64 177.6 64 175.65L64 22.9Q64 21 62.65 19.6M451.3 19.6Q449.95 18.25 448 18.25L344 18.25Q342.1 18.25 340.7 19.6 339.35 21 339.35 22.9L339.35 175.65Q339.35 177.6 340.7 178.95 342.1 180.3 344 180.3L448 180.3Q449.95 180.3 451.3 178.95 452.65 177.6 452.65 175.65L452.65 22.9Q452.65 21 451.3 19.6Z"/><path fill="#E1E8EB" stroke="none" d="M192.5 19.6Q191.1 18.25 189.2 18.25L85.15 18.25Q83.25 18.25 81.85 19.6 80.5 21 80.5 22.9L80.5 175.65Q80.5 177.6 81.85 178.95 83.25 180.3 85.15 180.3L189.2 180.3Q191.1 180.3 192.5 178.95 193.85 177.6 193.85 175.65L193.85 22.9Q193.85 21 192.5 19.6Z"/><path fill="#E8ECF0" stroke="none" d="M322.3 19.6Q320.95 18.25 319 18.25L215 18.25Q213.1 18.25 211.7 19.6 210.35 21 210.35 22.9L210.35 175.65Q210.35 177.6 211.7 178.95 213.1 180.3 215 180.3L319 180.3Q320.95 180.3 322.3 178.95 323.65 177.6 323.65 175.65L323.65 22.9Q323.65 21 322.3 19.6Z"/><animate attributeName="display" repeatCount="indefinite" dur="1s" keyTimes="0;.458;.467;1" values="none;inline;none;none"/></g><g display="none" id="Layer17_0_FILL"><path fill="#F2F4F6" stroke="none" d="M66.45 19.6Q65.1 18.25 63.2 18.25L-40.8 18.25Q-42.75 18.25 -44.1 19.6 -45.45 21 -45.45 22.9L-45.45 175.65Q-45.45 177.6 -44.1 178.95 -42.75 180.3 -40.8 180.3L63.2 180.3Q65.1 180.3 66.45 178.95 67.8 177.6 67.8 175.65L67.8 22.9Q67.8 21 66.45 19.6M455.1 19.6Q453.75 18.25 451.8 18.25L347.8 18.25Q345.9 18.25 344.5 19.6 343.15 21 343.15 22.9L343.15 175.65Q343.15 177.6 344.5 178.95 345.9 180.3 347.8 180.3L451.8 180.3Q453.75 180.3 455.1 178.95 456.45 177.6 456.45 175.65L456.45 22.9Q456.45 21 455.1 19.6Z"/><path fill="#E0E7EB" stroke="none" d="M196.3 19.6Q194.9 18.25 193 18.25L88.95 18.25Q87.05 18.25 85.65 19.6 84.3 21 84.3 22.9L84.3 175.65Q84.3 177.6 85.65 178.95 87.05 180.3 88.95 180.3L193 180.3Q194.9 180.3 196.3 178.95 197.65 177.6 197.65 175.65L197.65 22.9Q197.65 21 196.3 19.6Z"/><path fill="#E9EDF0" stroke="none" d="M327.45 22.9Q327.45 21 326.1 19.6 324.75 18.25 322.8 18.25L218.8 18.25Q216.9 18.25 215.5 19.6 214.15 21 214.15 22.9L214.15 175.65Q214.15 177.6 215.5 178.95 216.9 180.3 218.8 180.3L322.8 180.3Q324.75 180.3 326.1 178.95 327.45 177.6 327.45 175.65L327.45 22.9Z"/><animate attributeName="display" repeatCount="indefinite" dur="1s" keyTimes="0;.45;.458;1" values="none;inline;none;none"/></g><g display="none" id="Layer16_0_FILL"><path fill="#F2F4F6" stroke="none" d="M70.45 19.6Q69.1 18.25 67.2 18.25L-36.8 18.25Q-38.75 18.25 -40.1 19.6 -41.45 21 -41.45 22.9L-41.45 175.65Q-41.45 177.6 -40.1 178.95 -38.75 180.3 -36.8 180.3L67.2 180.3Q69.1 180.3 70.45 178.95 71.8 177.6 71.8 175.65L71.8 22.9Q71.8 21 70.45 19.6M459.1 19.6Q457.75 18.25 455.8 18.25L351.8 18.25Q349.9 18.25 348.5 19.6 347.15 21 347.15 22.9L347.15 175.65Q347.15 177.6 348.5 178.95 349.9 180.3 351.8 180.3L455.8 180.3Q457.75 180.3 459.1 178.95 460.45 177.6 460.45 175.65L460.45 22.9Q460.45 21 459.1 19.6Z"/><path fill="#E0E6EA" stroke="none" d="M200.3 19.6Q198.9 18.25 197 18.25L92.95 18.25Q91.05 18.25 89.65 19.6 88.3 21 88.3 22.9L88.3 175.65Q88.3 177.6 89.65 178.95 91.05 180.3 92.95 180.3L197 180.3Q198.9 180.3 200.3 178.95 201.65 177.6 201.65 175.65L201.65 22.9Q201.65 21 200.3 19.6Z"/><path fill="#E9EEF1" stroke="none" d="M330.1 19.6Q328.75 18.25 326.8 18.25L222.8 18.25Q220.9 18.25 219.5 19.6 218.15 21 218.15 22.9L218.15 175.65Q218.15 177.6 219.5 178.95 220.9 180.3 222.8 180.3L326.8 180.3Q328.75 180.3 330.1 178.95 331.45 177.6 331.45 175.65L331.45 22.9Q331.45 21 330.1 19.6Z"/><animate attributeName="display" repeatCount="indefinite" dur="1s" keyTimes="0;.442;.45;1" values="none;inline;none;none"/></g><g display="none" id="Layer15_0_FILL"><path fill="#F2F4F6" stroke="none" d="M74.55 19.6Q73.2 18.25 71.3 18.25L-32.7 18.25Q-34.65 18.25 -36 19.6 -37.35 21 -37.35 22.9L-37.35 175.65Q-37.35 177.6 -36 178.95 -34.65 180.3 -32.7 180.3L71.3 180.3Q73.2 180.3 74.55 178.95 75.9 177.6 75.9 175.65L75.9 22.9Q75.9 21 74.55 19.6M463.2 19.6Q461.85 18.25 459.9 18.25L355.9 18.25Q354 18.25 352.6 19.6 351.25 21 351.25 22.9L351.25 175.65Q351.25 177.6 352.6 178.95 354 180.3 355.9 180.3L459.9 180.3Q461.85 180.3 463.2 178.95 464.55 177.6 464.55 175.65L464.55 22.9Q464.55 21 463.2 19.6Z"/><path fill="#DFE6EA" stroke="none" d="M205.75 22.9Q205.75 21 204.4 19.6 203 18.25 201.1 18.25L97.05 18.25Q95.15 18.25 93.75 19.6 92.4 21 92.4 22.9L92.4 175.65Q92.4 177.6 93.75 178.95 95.15 180.3 97.05 180.3L201.1 180.3Q203 180.3 204.4 178.95 205.75 177.6 205.75 175.65L205.75 22.9Z"/><path fill="#EAEEF1" stroke="none" d="M334.2 19.6Q332.85 18.25 330.9 18.25L226.9 18.25Q225 18.25 223.6 19.6 222.25 21 222.25 22.9L222.25 175.65Q222.25 177.6 223.6 178.95 225 180.3 226.9 180.3L330.9 180.3Q332.85 180.3 334.2 178.95 335.55 177.6 335.55 175.65L335.55 22.9Q335.55 21 334.2 19.6Z"/><animate attributeName="display" repeatCount="indefinite" dur="1s" keyTimes="0;.433;.442;1" values="none;inline;none;none"/></g><g display="none" id="Layer14_0_FILL"><path fill="#F2F4F6" stroke="none" d="M78.8 19.6Q77.45 18.25 75.55 18.25L-28.45 18.25Q-30.4 18.25 -31.75 19.6 -33.1 21 -33.1 22.9L-33.1 175.65Q-33.1 177.6 -31.75 178.95 -30.4 180.3 -28.45 180.3L75.55 180.3Q77.45 180.3 78.8 178.95 80.15 177.6 80.15 175.65L80.15 22.9Q80.15 21 78.8 19.6M467.45 19.6Q466.1 18.25 464.15 18.25L360.15 18.25Q358.25 18.25 356.85 19.6 355.5 21 355.5 22.9L355.5 175.65Q355.5 177.6 356.85 178.95 358.25 180.3 360.15 180.3L464.15 180.3Q466.1 180.3 467.45 178.95 468.8 177.6 468.8 175.65L468.8 22.9Q468.8 21 467.45 19.6Z"/><path fill="#DEE5E9" stroke="none" d="M208.65 19.6Q207.25 18.25 205.35 18.25L101.3 18.25Q99.4 18.25 98 19.6 96.65 21 96.65 22.9L96.65 175.65Q96.65 177.6 98 178.95 99.4 180.3 101.3 180.3L205.35 180.3Q207.25 180.3 208.65 178.95 210 177.6 210 175.65L210 22.9Q210 21 208.65 19.6Z"/><path fill="#EBEFF2" stroke="none" d="M338.45 19.6Q337.1 18.25 335.15 18.25L231.15 18.25Q229.25 18.25 227.85 19.6 226.5 21 226.5 22.9L226.5 175.65Q226.5 177.6 227.85 178.95 229.25 180.3 231.15 180.3L335.15 180.3Q337.1 180.3 338.45 178.95 339.8 177.6 339.8 175.65L339.8 22.9Q339.8 21 338.45 19.6Z"/><animate attributeName="display" repeatCount="indefinite" dur="1s" keyTimes="0;.425;.433;1" values="none;inline;none;none"/></g><g display="none" id="Layer13_0_FILL"><path fill="#F2F4F6" stroke="none" d="M84.5 22.9Q84.5 21 83.15 19.6 81.8 18.25 79.9 18.25L-24.1 18.25Q-26.05 18.25 -27.4 19.6 -28.75 21 -28.75 22.9L-28.75 175.65Q-28.75 177.6 -27.4 178.95 -26.05 180.3 -24.1 180.3L79.9 180.3Q81.8 180.3 83.15 178.95 84.5 177.6 84.5 175.65L84.5 22.9M471.8 19.6Q470.45 18.25 468.5 18.25L364.5 18.25Q362.6 18.25 361.2 19.6 359.85 21 359.85 22.9L359.85 175.65Q359.85 177.6 361.2 178.95 362.6 180.3 364.5 180.3L468.5 180.3Q470.45 180.3 471.8 178.95 473.15 177.6 473.15 175.65L473.15 22.9Q473.15 21 471.8 19.6Z"/><path fill="#DDE4E9" stroke="none" d="M213 19.6Q211.6 18.25 209.7 18.25L105.65 18.25Q103.75 18.25 102.35 19.6 101 21 101 22.9L101 175.65Q101 177.6 102.35 178.95 103.75 180.3 105.65 180.3L209.7 180.3Q211.6 180.3 213 178.95 214.35 177.6 214.35 175.65L214.35 22.9Q214.35 21 213 19.6Z"/><path fill="#ECF0F2" stroke="none" d="M342.8 19.6Q341.45 18.25 339.5 18.25L235.5 18.25Q233.6 18.25 232.2 19.6 230.85 21 230.85 22.9L230.85 175.65Q230.85 177.6 232.2 178.95 233.6 180.3 235.5 180.3L339.5 180.3Q341.45 180.3 342.8 178.95 344.15 177.6 344.15 175.65L344.15 22.9Q344.15 21 342.8 19.6Z"/><animate attributeName="display" repeatCount="indefinite" dur="1s" keyTimes="0;.417;.425;1" values="none;inline;none;none"/></g><g display="none" id="Layer12_0_FILL"><path fill="#F2F4F6" stroke="none" d="M87.55 19.6Q86.2 18.25 84.3 18.25L-19.7 18.25Q-21.65 18.25 -23 19.6 -24.35 21 -24.35 22.9L-24.35 175.65Q-24.35 177.6 -23 178.95 -21.65 180.3 -19.7 180.3L84.3 180.3Q86.2 180.3 87.55 178.95 88.9 177.6 88.9 175.65L88.9 22.9Q88.9 21 87.55 19.6M476.2 19.6Q474.85 18.25 472.9 18.25L368.9 18.25Q367 18.25 365.6 19.6 364.25 21 364.25 22.9L364.25 175.65Q364.25 177.6 365.6 178.95 367 180.3 368.9 180.3L472.9 180.3Q474.85 180.3 476.2 178.95 477.55 177.6 477.55 175.65L477.55 22.9Q477.55 21 476.2 19.6Z"/><path fill="#DCE4E8" stroke="none" d="M217.4 19.6Q216 18.25 214.1 18.25L110.05 18.25Q108.15 18.25 106.75 19.6 105.4 21 105.4 22.9L105.4 175.65Q105.4 177.6 106.75 178.95 108.15 180.3 110.05 180.3L214.1 180.3Q216 180.3 217.4 178.95 218.75 177.6 218.75 175.65L218.75 22.9Q218.75 21 217.4 19.6Z"/><path fill="#EDF0F3" stroke="none" d="M347.2 19.6Q345.85 18.25 343.9 18.25L239.9 18.25Q238 18.25 236.6 19.6 235.25 21 235.25 22.9L235.25 175.65Q235.25 177.6 236.6 178.95 238 180.3 239.9 180.3L343.9 180.3Q345.85 180.3 347.2 178.95 348.55 177.6 348.55 175.65L348.55 22.9Q348.55 21 347.2 19.6Z"/><animate attributeName="display" repeatCount="indefinite" dur="1s" keyTimes="0;.408;.417;1" values="none;inline;none;none"/></g><g display="none" id="Layer11_0_FILL"><path fill="#F2F4F6" stroke="none" d="M92.15 19.6Q90.8 18.25 88.9 18.25L-15.1 18.25Q-17.05 18.25 -18.4 19.6 -19.75 21 -19.75 22.9L-19.75 175.65Q-19.75 177.6 -18.4 178.95 -17.05 180.3 -15.1 180.3L88.9 180.3Q90.8 180.3 92.15 178.95 93.5 177.6 93.5 175.65L93.5 22.9Q93.5 21 92.15 19.6M480.8 19.6Q479.45 18.25 477.5 18.25L373.5 18.25Q371.6 18.25 370.2 19.6 368.85 21 368.85 22.9L368.85 175.65Q368.85 177.6 370.2 178.95 371.6 180.3 373.5 180.3L477.5 180.3Q479.45 180.3 480.8 178.95 482.15 177.6 482.15 175.65L482.15 22.9Q482.15 21 480.8 19.6Z"/><path fill="#DBE3E8" stroke="none" d="M222 19.6Q220.6 18.25 218.7 18.25L114.65 18.25Q112.75 18.25 111.35 19.6 110 21 110 22.9L110 175.65Q110 177.6 111.35 178.95 112.75 180.3 114.65 180.3L218.7 180.3Q220.6 180.3 222 178.95 223.35 177.6 223.35 175.65L223.35 22.9Q223.35 21 222 19.6Z"/><path fill="#EEF1F3" stroke="none" d="M351.8 19.6Q350.45 18.25 348.5 18.25L244.5 18.25Q242.6 18.25 241.2 19.6 239.85 21 239.85 22.9L239.85 175.65Q239.85 177.6 241.2 178.95 242.6 180.3 244.5 180.3L348.5 180.3Q350.45 180.3 351.8 178.95 353.15 177.6 353.15 175.65L353.15 22.9Q353.15 21 351.8 19.6Z"/><animate attributeName="display" repeatCount="indefinite" dur="1s" keyTimes="0;.4;.408;1" values="none;inline;none;none"/></g><g display="none" id="Layer10_0_FILL"><path fill="#F2F4F6" stroke="none" d="M96.9 19.6Q95.55 18.25 93.65 18.25L-10.35 18.25Q-12.3 18.25 -13.65 19.6 -15 21 -15 22.9L-15 175.65Q-15 177.6 -13.65 178.95 -12.3 180.3 -10.35 180.3L93.65 180.3Q95.55 180.3 96.9 178.95 98.25 177.6 98.25 175.65L98.25 22.9Q98.25 21 96.9 19.6M486.9 175.65L486.9 22.9Q486.9 21 485.55 19.6 484.2 18.25 482.25 18.25L378.25 18.25Q376.35 18.25 374.95 19.6 373.6 21 373.6 22.9L373.6 175.65Q373.6 177.6 374.95 178.95 376.35 180.3 378.25 180.3L482.25 180.3Q484.2 180.3 485.55 178.95 486.9 177.6 486.9 175.65Z"/><path fill="#DAE2E7" stroke="none" d="M226.75 19.6Q225.35 18.25 223.45 18.25L119.4 18.25Q117.5 18.25 116.1 19.6 114.75 21 114.75 22.9L114.75 175.65Q114.75 177.6 116.1 178.95 117.5 180.3 119.4 180.3L223.45 180.3Q225.35 180.3 226.75 178.95 228.1 177.6 228.1 175.65L228.1 22.9Q228.1 21 226.75 19.6Z"/><path fill="#EFF2F4" stroke="none" d="M356.55 19.6Q355.2 18.25 353.25 18.25L249.25 18.25Q247.35 18.25 245.95 19.6 244.6 21 244.6 22.9L244.6 175.65Q244.6 177.6 245.95 178.95 247.35 180.3 249.25 180.3L353.25 180.3Q355.2 180.3 356.55 178.95 357.9 177.6 357.9 175.65L357.9 22.9Q357.9 21 356.55 19.6Z"/><animate attributeName="display" repeatCount="indefinite" dur="1s" keyTimes="0;.392;.4;1" values="none;inline;none;none"/></g><g display="none" id="Layer9_0_FILL"><path fill="#F2F4F6" stroke="none" d="M101.75 19.6Q100.4 18.25 98.5 18.25L-5.5 18.25Q-7.45 18.25 -8.8 19.6 -10.15 21 -10.15 22.9L-10.15 175.65Q-10.15 177.6 -8.8 178.95 -7.45 180.3 -5.5 180.3L98.5 180.3Q100.4 180.3 101.75 178.95 103.1 177.6 103.1 175.65L103.1 22.9Q103.1 21 101.75 19.6M490.4 19.6Q489.05 18.25 487.1 18.25L383.1 18.25Q381.2 18.25 379.8 19.6 378.45 21 378.45 22.9L378.45 175.65Q378.45 177.6 379.8 178.95 381.2 180.3 383.1 180.3L487.1 180.3Q489.05 180.3 490.4 178.95 491.75 177.6 491.75 175.65L491.75 22.9Q491.75 21 490.4 19.6Z"/><path fill="#D9E2E6" stroke="none" d="M231.6 19.6Q230.2 18.25 228.3 18.25L124.25 18.25Q122.35 18.25 120.95 19.6 119.6 21 119.6 22.9L119.6 175.65Q119.6 177.6 120.95 178.95 122.35 180.3 124.25 180.3L228.3 180.3Q230.2 180.3 231.6 178.95 232.95 177.6 232.95 175.65L232.95 22.9Q232.95 21 231.6 19.6Z"/><path fill="#F0F2F5" stroke="none" d="M361.4 19.6Q360.05 18.25 358.1 18.25L254.1 18.25Q252.2 18.25 250.8 19.6 249.45 21 249.45 22.9L249.45 175.65Q249.45 177.6 250.8 178.95 252.2 180.3 254.1 180.3L358.1 180.3Q360.05 180.3 361.4 178.95 362.75 177.6 362.75 175.65L362.75 22.9Q362.75 21 361.4 19.6Z"/><animate attributeName="display" repeatCount="indefinite" dur="1s" keyTimes="0;.383;.392;1" values="none;inline;none;none"/></g><g display="none" id="Layer8_0_FILL"><path fill="#F2F4F6" stroke="none" d="M106.75 19.6Q105.4 18.25 103.5 18.25L-.5 18.25Q-2.45 18.25 -3.8 19.6 -5.15 21 -5.15 22.9L-5.15 175.65Q-5.15 177.6 -3.8 178.95 -2.45 180.3 -.5 180.3L103.5 180.3Q105.4 180.3 106.75 178.95 108.1 177.6 108.1 175.65L108.1 22.9Q108.1 21 106.75 19.6M495.4 19.6Q494.05 18.25 492.1 18.25L388.1 18.25Q386.2 18.25 384.8 19.6 383.45 21 383.45 22.9L383.45 175.65Q383.45 177.6 384.8 178.95 386.2 180.3 388.1 180.3L492.1 180.3Q494.05 180.3 495.4 178.95 496.75 177.6 496.75 175.65L496.75 22.9Q496.75 21 495.4 19.6Z"/><path fill="#D8E1E6" stroke="none" d="M236.6 19.6Q235.2 18.25 233.3 18.25L129.25 18.25Q127.35 18.25 125.95 19.6 124.6 21 124.6 22.9L124.6 175.65Q124.6 177.6 125.95 178.95 127.35 180.3 129.25 180.3L233.3 180.3Q235.2 180.3 236.6 178.95 237.95 177.6 237.95 175.65L237.95 22.9Q237.95 21 236.6 19.6Z"/><path fill="#F1F3F5" stroke="none" d="M367.75 22.9Q367.75 21 366.4 19.6 365.05 18.25 363.1 18.25L259.1 18.25Q257.2 18.25 255.8 19.6 254.45 21 254.45 22.9L254.45 175.65Q254.45 177.6 255.8 178.95 257.2 180.3 259.1 180.3L363.1 180.3Q365.05 180.3 366.4 178.95 367.75 177.6 367.75 175.65L367.75 22.9Z"/><animate attributeName="display" repeatCount="indefinite" dur="1s" keyTimes="0;.375;.383;1" values="none;inline;none;none"/></g><g display="none" id="Layer7_0_FILL"><path fill="#F2F4F6" stroke="none" d="M111.85 19.6Q110.5 18.25 108.6 18.25L4.6 18.25Q2.65 18.25 1.3 19.6 -.05 21 -.05 22.9L-.05 175.65Q-.05 177.6 1.3 178.95 2.65 180.3 4.6 180.3L108.6 180.3Q110.5 180.3 111.85 178.95 113.2 177.6 113.2 175.65L113.2 22.9Q113.2 21 111.85 19.6M371.5 19.6Q370.15 18.25 368.2 18.25L264.2 18.25Q262.3 18.25 260.9 19.6 259.55 21 259.55 22.9L259.55 175.65Q259.55 177.6 260.9 178.95 262.3 180.3 264.2 180.3L368.2 180.3Q370.15 180.3 371.5 178.95 372.85 177.6 372.85 175.65L372.85 22.9Q372.85 21 371.5 19.6M500.5 19.6Q499.15 18.25 497.2 18.25L393.2 18.25Q391.3 18.25 389.9 19.6 388.55 21 388.55 22.9L388.55 175.65Q388.55 177.6 389.9 178.95 391.3 180.3 393.2 180.3L497.2 180.3Q499.15 180.3 500.5 178.95 501.85 177.6 501.85 175.65L501.85 22.9Q501.85 21 500.5 19.6Z"/><path fill="#D7E0E5" stroke="none" d="M241.7 19.6Q240.3 18.25 238.4 18.25L134.35 18.25Q132.45 18.25 131.05 19.6 129.7 21 129.7 22.9L129.7 175.65Q129.7 177.6 131.05 178.95 132.45 180.3 134.35 180.3L238.4 180.3Q240.3 180.3 241.7 178.95 243.05 177.6 243.05 175.65L243.05 22.9Q243.05 21 241.7 19.6Z"/><animate attributeName="display" repeatCount="indefinite" dur="1s" keyTimes="0;.367;.375;1" values="none;inline;none;none"/></g><g display="none" id="Layer4_0_FILL"><path fill="#D7E0E5" stroke="none" d="M241.8 19.6Q240.4 18.25 238.5 18.25L134.45 18.25Q132.55 18.25 131.15 19.6 129.8 21 129.8 22.9L129.8 175.65Q129.8 177.6 131.15 178.95 132.55 180.3 134.45 180.3L238.5 180.3Q240.4 180.3 241.8 178.95 243.15 177.6 243.15 175.65L243.15 22.9Q243.15 21 241.8 19.6Z"/><path fill="#F2F4F6" stroke="none" d="M111.9 19.6Q110.55 18.25 108.65 18.25L4.65 18.25Q2.7 18.25 1.35 19.6 0 21 0 22.9L0 175.65Q0 177.6 1.35 178.95 2.7 180.3 4.65 180.3L108.65 180.3Q110.55 180.3 111.9 178.95 113.25 177.6 113.25 175.65L113.25 22.9Q113.25 21 111.9 19.6Z"/><path fill="#F2F4F6" stroke="none" d="M371.5 19.6Q370.15 18.25 368.2 18.25L264.2 18.25Q262.3 18.25 260.9 19.6 259.55 21 259.55 22.9L259.55 175.65Q259.55 177.6 260.9 178.95 262.3 180.3 264.2 180.3L368.2 180.3Q370.15 180.3 371.5 178.95 372.85 177.6 372.85 175.65L372.85 22.9Q372.85 21 371.5 19.6Z"/><animate attributeName="display" repeatCount="indefinite" dur="1s" keyTimes="0;.367;1" values="inline;none;none"/></g></g><mask id="mask_"><g><g><g><g id="Layer3_0_FILL"><path fill="#FFF" stroke="none" d="M308.5 3.55Q304.95 0 300 0L125 0Q120 0 116.5 3.55 113 7.05 113 12L113 187Q113 192 116.5 195.5 120 199 125 199L300 199Q304.95 199 308.5 195.5 312 192 312 187L312 12Q312 7.05 308.5 3.55Z" fill-opacity="1"/></g></g><animate attributeName="display" repeatCount="indefinite" dur="1s" keyTimes="0;.992;1" values="none;inline;inline"/></g><g display="none"><g><g id="Layer2_0_FILL"><path fill="#FFF" stroke="none" d="M308.5 3.55Q304.95 0 300 0L125 0Q120 0 116.5 3.55 113 7.05 113 12L113 187Q113 192 116.5 195.5 120 199 125 199L300 199Q304.95 199 308.5 195.5 312 192 312 187L312 12Q312 7.05 308.5 3.55Z" fill-opacity="1"/></g></g><animate attributeName="display" repeatCount="indefinite" dur="1s" keyTimes="0;.992;1" values="inline;none;none"/></g></g></mask><path fill="#F2F4F6" stroke="none" d="M307.35 5.75Q301.75 .1 293.75 0L132.2 0Q124.2 .1 118.6 5.75 113 11.4 113 19.4L113 180.65Q113 188.65 118.6 194.3 124.2 199.95 132.2 200L293.75 200Q301.75 199.95 307.35 194.3 313 188.65 313 180.65L313 19.4Q313 11.4 307.35 5.75M306.3 6.85Q311.45 12.05 311.45 19.4L311.45 180.65Q311.45 188 306.3 193.2 301.1 198.4 293.75 198.45L132.2 198.45Q124.85 198.4 119.7 193.2 114.5 188 114.5 180.65L114.5 19.4Q114.5 12.05 119.7 6.85 124.85 1.6 132.2 1.6L293.75 1.6Q301.1 1.65 306.3 6.85Z"/></g></svg>